<?xml version="1.0" standalone="no"?>
<!DOCTYPE svg PUBLIC "-//W3C//DTD SVG 1.1//EN" 
  "http://www.w3.org/Graphics/SVG/1.1/DTD/svg11.dtd">
<svg width="40.300mm" height="128.500mm" version="1.1"
     viewBox="0 0 40.300 128.500"
     xmlns="http://www.w3.org/2000/svg"  xmlns:xlink="http://www.w3.org/1999/xlink" 
     xmlns:fpd="http://www.schaeffer-ag.de">
  <desc>Created with the Front Panel Designer by the export of the file 'beehive.fpd'.</desc>
  <defs>
    <pattern id="revside-fill" x="1" y="1" width="1.5" height="1.5" patternUnits="userSpaceOnUse">
      <line x1="0" y1="0" x2="1" y2="1" style="stroke-width:0.2; stroke:black; stroke-dasharray:none;" />
      <line x1="0" y1="1" x2="1" y2="0" style="stroke-width:0.2; stroke:black; stroke-dasharray:none;" />
    </pattern>
    <pattern id="revside-fill-silver" x="1" y="1" width="1.5" height="1.5" patternUnits="userSpaceOnUse">
      <line x1="0" y1="0" x2="1.5" y2="1.5" style="stroke-width:0.2; stroke:#e0e0e0; stroke-dasharray:none;" />
      <line x1="0" y1="1.5" x2="1.5" y2="0" style="stroke-width:0.2; stroke:#e0e0e0; stroke-dasharray:none;" />
    </pattern>
  </defs>
<g transform="scale(1,-1) translate(0, -128.500)" 
   fill-rule="evenodd"
   style="stroke-linecap:round; stroke-linejoin:round; stroke-opacity:1.0; stroke-opacity:1.0;">
<path d="
M40.300 128.500
L40.300 0.000
L0.000 0.000
L0.000 128.500
L40.300 128.500
" 
fill="#cccccc" vector-effect="non-scaling-stroke" stroke="#000000" stroke-width="0.100mm" />
<path d="
M14.381 124.681
A1.287,1.287 0 0,1 14.381,127.256
L12.493 127.256
L12.493 122.106
L14.667 122.106
A1.288,1.288 0 0,1 14.667,124.681
L12.493 124.681
" 
fill="none" vector-effect="non-scaling-stroke" stroke="#000000" stroke-width="0.200mm" fpd:engraving_ral_9005="1" />
<path d="
M17.299 123.823
L20.160 123.823
L20.160 124.109
A1.431,1.431 0 0,1 17.299,124.109
L17.299 123.537
A1.500,1.500 0 0,1 19.988,122.621
" 
fill="none" vector-effect="non-scaling-stroke" stroke="#000000" stroke-width="0.200mm" fpd:engraving_ral_9005="1" />
<path d="
M21.533 123.823
L24.394 123.823
L24.394 124.109
A1.431,1.431 0 0,1 21.533,124.109
L21.533 123.537
A1.500,1.500 0 0,1 24.222,122.621
" 
fill="none" vector-effect="non-scaling-stroke" stroke="#000000" stroke-width="0.200mm" fpd:engraving_ral_9005="1" />
<path d="
M25.767 127.256
L25.767 122.106
L25.767 124.681
L29.200 124.681
L29.200 122.106
L29.200 127.256
" 
fill="none" vector-effect="non-scaling-stroke" stroke="#000000" stroke-width="0.200mm" fpd:engraving_ral_9005="1" />
<path d="
M30.573 127.256
L30.573 126.970
" 
fill="none" vector-effect="non-scaling-stroke" stroke="#000000" stroke-width="0.200mm" fpd:engraving_ral_9005="1" />
<path d="
M30.573 125.539
L30.573 122.106
" 
fill="none" vector-effect="non-scaling-stroke" stroke="#000000" stroke-width="0.200mm" fpd:engraving_ral_9005="1" />
<path d="
M31.946 125.539
L33.376 122.106
L34.807 125.539
" 
fill="none" vector-effect="non-scaling-stroke" stroke="#000000" stroke-width="0.200mm" fpd:engraving_ral_9005="1" />
<path d="
M36.180 123.823
L39.041 123.823
L39.041 124.109
A1.431,1.431 0 0,1 36.180,124.109
L36.180 123.537
A1.500,1.500 0 0,1 38.869,122.621
" 
fill="none" vector-effect="non-scaling-stroke" stroke="#000000" stroke-width="0.200mm" fpd:engraving_ral_9005="1" />
<path d="
M23.649 118.845
L23.649 120.927
L24.458 119.423
L25.268 120.927
L25.268 118.845
" 
fill="none" vector-effect="non-scaling-stroke" stroke="#000000" stroke-width="0.200mm" fpd:engraving_ral_9005="1" />
<path d="
M27.027 120.233
L27.027 119.423
A0.601,0.601 0 0,0 25.824,119.423
L25.824 119.655
A0.601,0.601 0 0,0 27.027,119.655
L27.027 119.099
A0.337,0.337 0 0,1 27.304,118.799
" 
fill="none" vector-effect="non-scaling-stroke" stroke="#000000" stroke-width="0.200mm" fpd:engraving_ral_9005="1" />
<path d="
M28.854 120.048
A0.574,0.574 0 0,1 27.860,119.655
L27.860 119.423
A0.575,0.575 0 0,1 28.924,119.123
" 
fill="none" vector-effect="non-scaling-stroke" stroke="#000000" stroke-width="0.200mm" fpd:engraving_ral_9005="1" />
<path d="
M29.480 118.845
L29.480 120.233
L29.480 119.770
A0.511,0.511 0 0,0 29.595,120.094
A0.329,0.329 0 0,0 30.104,120.094
" 
fill="none" vector-effect="non-scaling-stroke" stroke="#000000" stroke-width="0.200mm" fpd:engraving_ral_9005="1" />
<path d="
M30.637 119.423
L30.637 119.655
A0.578,0.578 0 0,0 31.793,119.655
L31.793 119.423
A0.578,0.578 0 0,0 30.637,119.423
" 
fill="none" vector-effect="non-scaling-stroke" stroke="#000000" stroke-width="0.200mm" fpd:engraving_ral_9005="1" />
<path d="
M33.830 119.539
A0.740,0.740 0 0,1 35.310,119.539
L35.310 120.233
A0.740,0.740 0 0,1 33.830,120.233
L33.830 119.539
" 
fill="none" vector-effect="non-scaling-stroke" stroke="#000000" stroke-width="0.200mm" fpd:engraving_ral_9005="1" />
<path d="
M37.207 120.719
A0.549,0.549 0 0,1 36.883,120.927
A1.307,1.307 0 0,1 36.236,120.904
A0.618,0.618 0 0,1 35.912,120.673
A0.423,0.423 0 0,1 36.120,120.025
L36.930 119.747
A0.423,0.423 0 0,0 37.138,119.099
A0.618,0.618 0 0,0 36.814,118.868
A1.307,1.307 0 0,0 36.166,118.845
A0.549,0.549 0 0,0 35.842,119.053
" 
fill="none" vector-effect="non-scaling-stroke" stroke="#000000" stroke-width="0.200mm" fpd:engraving_ral_9005="1" />
<path d="
M39.035 120.626
A0.678,0.678 0 0,1 37.763,120.279
L37.763 119.493
A0.695,0.695 0 0,1 39.104,119.238
" 
fill="none" vector-effect="non-scaling-stroke" stroke="#000000" stroke-width="0.200mm" fpd:engraving_ral_9005="1" />
<path d="
M32.406 9.614
L33.592 9.614
" 
fill="none" vector-effect="non-scaling-stroke" stroke="#000000" stroke-width="0.200mm" fpd:engraving_ral_9005="1" />
<path d="
M32.168 9.059
L32.999 11.057
L33.830 9.059
" 
fill="none" vector-effect="non-scaling-stroke" stroke="#000000" stroke-width="0.200mm" fpd:engraving_ral_9005="1" />
<path d="
M34.399 10.391
L34.399 9.614
A0.593,0.555 0.000 0,1 35.586,9.614
L35.586 9.059
L35.586 10.391
" 
fill="none" vector-effect="non-scaling-stroke" stroke="#000000" stroke-width="0.200mm" fpd:engraving_ral_9005="1" />
<path d="
M36.155 10.391
L37.341 9.059
" 
fill="none" vector-effect="non-scaling-stroke" stroke="#000000" stroke-width="0.200mm" fpd:engraving_ral_9005="1" />
<path d="
M36.155 9.059
L37.341 10.391
" 
fill="none" vector-effect="non-scaling-stroke" stroke="#000000" stroke-width="0.200mm" fpd:engraving_ral_9005="1" />
<path d="
M31.172 23.122
L31.172 21.124
L31.172 22.123
L32.596 22.123
L32.596 21.124
L32.596 23.122
" 
fill="none" vector-effect="non-scaling-stroke" stroke="#000000" stroke-width="0.200mm" fpd:engraving_ral_9005="1" />
<path d="
M34.400 22.456
L34.400 21.679
A0.617,0.577 0.000 0,0 33.166,21.679
L33.166 21.901
A0.617,0.577 0.000 0,0 34.400,21.901
L34.400 21.368
A0.346,0.323 0.000 0,1 34.685,21.080
" 
fill="none" vector-effect="non-scaling-stroke" stroke="#000000" stroke-width="0.200mm" fpd:engraving_ral_9005="1" />
<path d="
M35.254 21.125
L35.254 22.457
L35.254 22.013
A0.524,0.491 0.000 0,0 35.372,22.324
A0.338,0.316 0.000 0,0 35.894,22.324
" 
fill="none" vector-effect="non-scaling-stroke" stroke="#000000" stroke-width="0.200mm" fpd:engraving_ral_9005="1" />
<path d="
M36.440 21.125
L36.440 22.457
L36.440 22.013
A0.475,0.444 0.000 0,0 37.389,22.013
L37.389 21.125
L37.389 22.013
A0.475,0.444 0.000 0,0 38.339,22.013
L38.339 21.125
" 
fill="none" vector-effect="non-scaling-stroke" stroke="#000000" stroke-width="0.200mm" fpd:engraving_ral_9005="1" />
<path d="
M23.099 22.123
L24.285 22.123
" 
fill="none" vector-effect="non-scaling-stroke" stroke="#000000" stroke-width="0.200mm" fpd:engraving_ral_9005="1" />
<path d="
M24.522 23.122
L23.099 23.122
L23.099 21.124
" 
fill="none" vector-effect="non-scaling-stroke" stroke="#000000" stroke-width="0.200mm" fpd:engraving_ral_9005="1" />
<path d="
M25.092 21.124
L25.092 23.122
L25.923 21.679
L26.753 23.122
L26.753 21.124
" 
fill="none" vector-effect="non-scaling-stroke" stroke="#000000" stroke-width="0.200mm" fpd:engraving_ral_9005="1" />
<path d="
M30.698 33.036
L30.698 35.034
L31.528 33.591
L32.359 35.034
L32.359 33.036
" 
fill="none" vector-effect="non-scaling-stroke" stroke="#000000" stroke-width="0.200mm" fpd:engraving_ral_9005="1" />
<path d="
M32.929 33.591
L32.929 33.813
A0.593,0.555 0.000 0,0 34.115,33.813
L34.115 33.591
A0.593,0.555 0.000 0,0 32.929,33.591
" 
fill="none" vector-effect="non-scaling-stroke" stroke="#000000" stroke-width="0.200mm" fpd:engraving_ral_9005="1" />
<path d="
M34.685 33.036
L34.685 34.368
L34.685 33.924
A0.524,0.491 0.000 0,0 34.804,34.235
A0.338,0.316 0.000 0,0 35.326,34.235
" 
fill="none" vector-effect="non-scaling-stroke" stroke="#000000" stroke-width="0.200mm" fpd:engraving_ral_9005="1" />
<path d="
M35.871 32.370
L35.871 33.813
A0.593,0.555 0.000 0,0 37.058,33.813
L37.058 33.591
A0.593,0.555 0.000 0,0 35.871,33.591
L35.871 34.368
" 
fill="none" vector-effect="non-scaling-stroke" stroke="#000000" stroke-width="0.200mm" fpd:engraving_ral_9005="1" />
<path d="
M37.627 35.034
L37.627 33.036
L37.627 33.813
A0.593,0.555 0.000 0,0 38.813,33.813
L38.813 33.036
" 
fill="none" vector-effect="non-scaling-stroke" stroke="#000000" stroke-width="0.200mm" fpd:engraving_ral_9005="1" />
<path d="
M0.966 35.034
L2.390 35.034
L1.678 35.034
L1.678 33.036
" 
fill="none" vector-effect="non-scaling-stroke" stroke="#000000" stroke-width="0.200mm" fpd:engraving_ral_9005="1" />
<path d="
M2.960 35.034
L2.960 34.923
" 
fill="none" vector-effect="non-scaling-stroke" stroke="#000000" stroke-width="0.200mm" fpd:engraving_ral_9005="1" />
<path d="
M2.960 34.368
L2.960 33.036
" 
fill="none" vector-effect="non-scaling-stroke" stroke="#000000" stroke-width="0.200mm" fpd:engraving_ral_9005="1" />
<path d="
M3.529 33.036
L3.529 34.368
L3.529 33.924
A0.475,0.444 0.000 0,0 4.479,33.924
L4.479 33.036
L4.479 33.924
A0.475,0.444 0.000 0,0 5.428,33.924
L5.428 33.036
" 
fill="none" vector-effect="non-scaling-stroke" stroke="#000000" stroke-width="0.200mm" fpd:engraving_ral_9005="1" />
<path d="
M5.997 35.034
L5.997 33.591
A0.593,0.555 0.000 0,1 7.183,33.591
L7.183 33.813
A0.593,0.555 0.000 0,1 5.997,33.813
L5.997 33.036
" 
fill="none" vector-effect="non-scaling-stroke" stroke="#000000" stroke-width="0.200mm" fpd:engraving_ral_9005="1" />
<path d="
M7.752 33.036
L7.752 34.368
L7.752 33.924
A0.524,0.491 0.000 0,0 7.871,34.235
A0.338,0.316 0.000 0,0 8.393,34.235
" 
fill="none" vector-effect="non-scaling-stroke" stroke="#000000" stroke-width="0.200mm" fpd:engraving_ral_9005="1" />
<path d="
M8.938 33.702
L10.125 33.702
L10.125 33.813
A0.593,0.555 0.000 0,1 8.938,33.813
L8.938 33.591
A0.622,0.582 0.000 0,1 10.054,33.236
" 
fill="none" vector-effect="non-scaling-stroke" stroke="#000000" stroke-width="0.200mm" fpd:engraving_ral_9005="1" />
<path d="
M3.077 23.122
L4.501 23.122
L3.789 23.122
L3.789 21.124
" 
fill="none" vector-effect="non-scaling-stroke" stroke="#000000" stroke-width="0.200mm" fpd:engraving_ral_9005="1" />
<path d="
M5.071 21.124
L5.071 22.456
L5.071 22.012
A0.524,0.491 0.000 0,0 5.189,22.323
A0.338,0.316 0.000 0,0 5.712,22.323
" 
fill="none" vector-effect="non-scaling-stroke" stroke="#000000" stroke-width="0.200mm" fpd:engraving_ral_9005="1" />
<path d="
M6.257 23.122
L6.257 23.011
" 
fill="none" vector-effect="non-scaling-stroke" stroke="#000000" stroke-width="0.200mm" fpd:engraving_ral_9005="1" />
<path d="
M6.257 22.456
L6.257 21.124
" 
fill="none" vector-effect="non-scaling-stroke" stroke="#000000" stroke-width="0.200mm" fpd:engraving_ral_9005="1" />
<path d="
M8.013 22.456
L8.013 21.679
A0.594,0.555 0.000 0,0 6.826,21.635
L6.826 21.901
A0.593,0.555 0.000 0,0 8.013,21.901
L8.013 21.013
A0.598,0.560 0.000 0,0 6.992,20.613
" 
fill="none" vector-effect="non-scaling-stroke" stroke="#000000" stroke-width="0.200mm" fpd:engraving_ral_9005="1" />
<path d="
M11.508 21.124
L11.508 23.122
L12.338 21.679
L13.169 23.122
L13.169 21.124
" 
fill="none" vector-effect="non-scaling-stroke" stroke="#000000" stroke-width="0.200mm" fpd:engraving_ral_9005="1" />
<path d="
M13.739 21.679
L13.739 21.901
A0.593,0.555 0.000 0,0 14.925,21.901
L14.925 21.679
A0.593,0.555 0.000 0,0 13.739,21.679
" 
fill="none" vector-effect="non-scaling-stroke" stroke="#000000" stroke-width="0.200mm" fpd:engraving_ral_9005="1" />
<path d="
M16.682 23.122
L16.682 21.679
A0.594,0.555 0.000 0,0 15.495,21.635
L15.495 21.901
A0.593,0.555 0.000 0,0 16.682,21.901
L16.682 21.124
" 
fill="none" vector-effect="non-scaling-stroke" stroke="#000000" stroke-width="0.200mm" fpd:engraving_ral_9005="1" />
<path d="
M17.250 21.790
L18.437 21.790
L18.437 21.901
A0.593,0.555 0.000 0,1 17.250,21.901
L17.250 21.679
A0.622,0.582 0.000 0,1 18.366,21.324
" 
fill="none" vector-effect="non-scaling-stroke" stroke="#000000" stroke-width="0.200mm" fpd:engraving_ral_9005="1" />
<path d="
M19.006 23.122
L19.006 21.390
A0.289,0.271 0.000 0,1 19.243,21.124
" 
fill="none" vector-effect="non-scaling-stroke" stroke="#000000" stroke-width="0.200mm" fpd:engraving_ral_9005="1" />
<path d="
M22.719 9.725
A0.759,0.710 0.000 0,1 24.238,9.725
L24.238 10.391
A0.759,0.710 0.000 0,1 22.719,10.391
L22.719 9.725
" 
fill="none" vector-effect="non-scaling-stroke" stroke="#000000" stroke-width="0.200mm" fpd:engraving_ral_9005="1" />
<path d="
M24.808 10.391
L24.808 9.614
A0.593,0.555 0.000 0,1 25.994,9.614
L25.994 9.059
L25.994 10.391
" 
fill="none" vector-effect="non-scaling-stroke" stroke="#000000" stroke-width="0.200mm" fpd:engraving_ral_9005="1" />
<path d="
M26.777 11.057
L26.777 10.391
L27.133 10.391
L26.539 10.391
L26.777 10.391
L26.777 9.325
A0.289,0.271 0.000 0,1 27.014,9.059
" 
fill="none" vector-effect="non-scaling-stroke" stroke="#000000" stroke-width="0.200mm" fpd:engraving_ral_9005="1" />
<path d="
M11.484 11.057
L12.196 9.059
L12.908 11.057
" 
fill="none" vector-effect="non-scaling-stroke" stroke="#000000" stroke-width="0.200mm" fpd:engraving_ral_9005="1" />
<path d="
M13.478 8.926
L14.380 11.168
" 
fill="none" vector-effect="non-scaling-stroke" stroke="#000000" stroke-width="0.200mm" fpd:engraving_ral_9005="1" />
<path d="
M14.950 9.725
A0.759,0.710 0.000 0,1 16.469,9.725
L16.469 10.391
A0.759,0.710 0.000 0,1 14.950,10.391
L14.950 9.725
" 
fill="none" vector-effect="non-scaling-stroke" stroke="#000000" stroke-width="0.200mm" fpd:engraving_ral_9005="1" />
<path d="
M18.058 10.213
A0.588,0.550 0.000 0,1 17.038,9.836
L17.038 9.614
A0.590,0.552 0.000 0,1 18.129,9.325
" 
fill="none" vector-effect="non-scaling-stroke" stroke="#000000" stroke-width="0.200mm" fpd:engraving_ral_9005="1" />
<path d="
M18.913 11.057
L18.913 10.391
L19.269 10.391
L18.675 10.391
L18.913 10.391
L18.913 9.325
A0.289,0.271 0.000 0,1 19.150,9.059
" 
fill="none" vector-effect="non-scaling-stroke" stroke="#000000" stroke-width="0.200mm" fpd:engraving_ral_9005="1" />
<path d="
M1.915 11.057
L1.915 9.059
L3.102 9.059
" 
fill="none" vector-effect="non-scaling-stroke" stroke="#000000" stroke-width="0.200mm" fpd:engraving_ral_9005="1" />
<path d="
M3.671 9.725
L4.858 9.725
L4.858 9.836
A0.593,0.555 0.000 0,1 3.671,9.836
L3.671 9.614
A0.622,0.582 0.000 0,1 4.787,9.259
" 
fill="none" vector-effect="non-scaling-stroke" stroke="#000000" stroke-width="0.200mm" fpd:engraving_ral_9005="1" />
<path d="
M5.428 10.391
L6.021 9.059
L6.614 10.391
" 
fill="none" vector-effect="non-scaling-stroke" stroke="#000000" stroke-width="0.200mm" fpd:engraving_ral_9005="1" />
<path d="
M7.183 9.725
L8.370 9.725
L8.370 9.836
A0.593,0.555 0.000 0,1 7.183,9.836
L7.183 9.614
A0.622,0.582 0.000 0,1 8.299,9.259
" 
fill="none" vector-effect="non-scaling-stroke" stroke="#000000" stroke-width="0.200mm" fpd:engraving_ral_9005="1" />
<path d="
M8.938 11.057
L8.938 9.325
A0.289,0.271 0.000 0,1 9.176,9.059
" 
fill="none" vector-effect="non-scaling-stroke" stroke="#000000" stroke-width="0.200mm" fpd:engraving_ral_9005="1" />
<path d="
M25.033 81.816
L25.033 84.416
L26.114 82.538
L27.195 84.416
L27.195 81.816
" 
fill="none" vector-effect="non-scaling-stroke" stroke="#000000" stroke-width="0.200mm" fpd:engraving_ral_9005="1" />
<path d="
M27.936 82.538
L27.936 82.827
A0.772,0.722 0.000 0,0 29.480,82.827
L29.480 82.538
A0.772,0.722 0.000 0,0 27.936,82.538
" 
fill="none" vector-effect="non-scaling-stroke" stroke="#000000" stroke-width="0.200mm" fpd:engraving_ral_9005="1" />
<path d="
M30.222 81.816
L30.222 83.549
L30.222 82.972
A0.682,0.638 0.000 0,0 30.376,83.376
A0.440,0.411 0.000 0,0 31.056,83.376
" 
fill="none" vector-effect="non-scaling-stroke" stroke="#000000" stroke-width="0.200mm" fpd:engraving_ral_9005="1" />
<path d="
M31.765 80.949
L31.765 82.827
A0.772,0.722 0.000 0,0 33.310,82.827
L33.310 82.538
A0.772,0.722 0.000 0,0 31.765,82.538
L31.765 83.549
" 
fill="none" vector-effect="non-scaling-stroke" stroke="#000000" stroke-width="0.200mm" fpd:engraving_ral_9005="1" />
<path d="
M34.050 84.417
L34.050 81.817
L34.050 82.828
A0.772,0.722 0.000 0,0 35.594,82.828
L35.594 81.817
" 
fill="none" vector-effect="non-scaling-stroke" stroke="#000000" stroke-width="0.200mm" fpd:engraving_ral_9005="1" />
<path d="
M25.651 107.276
L25.651 104.676
L25.651 105.976
L27.504 105.976
L27.504 104.676
L27.504 107.276
" 
fill="none" vector-effect="non-scaling-stroke" stroke="#000000" stroke-width="0.200mm" fpd:engraving_ral_9005="1" />
<path d="
M29.851 106.409
L29.851 105.398
A0.803,0.751 0.000 0,0 28.245,105.398
L28.245 105.687
A0.803,0.751 0.000 0,0 29.851,105.687
L29.851 104.994
A0.450,0.421 0.000 0,1 30.222,104.618
" 
fill="none" vector-effect="non-scaling-stroke" stroke="#000000" stroke-width="0.200mm" fpd:engraving_ral_9005="1" />
<path d="
M30.963 104.676
L30.963 106.409
L30.963 105.832
A0.682,0.638 0.000 0,0 31.117,106.236
A0.440,0.411 0.000 0,0 31.796,106.236
" 
fill="none" vector-effect="non-scaling-stroke" stroke="#000000" stroke-width="0.200mm" fpd:engraving_ral_9005="1" />
<path d="
M32.506 104.676
L32.506 106.409
L32.506 105.832
A0.618,0.578 0.000 0,0 33.742,105.832
L33.742 104.676
L33.742 105.832
A0.618,0.578 0.000 0,0 34.977,105.832
L34.977 104.676
" 
fill="none" vector-effect="non-scaling-stroke" stroke="#000000" stroke-width="0.200mm" fpd:engraving_ral_9005="1" />
<path d="
M6.010 105.976
L7.554 105.976
" 
fill="none" vector-effect="non-scaling-stroke" stroke="#000000" stroke-width="0.200mm" fpd:engraving_ral_9005="1" />
<path d="
M7.862 107.276
L6.010 107.276
L6.010 104.676
" 
fill="none" vector-effect="non-scaling-stroke" stroke="#000000" stroke-width="0.200mm" fpd:engraving_ral_9005="1" />
<path d="
M8.604 104.676
L8.604 106.409
L8.604 105.832
A0.682,0.638 0.000 0,0 8.758,106.236
A0.440,0.411 0.000 0,0 9.438,106.236
" 
fill="none" vector-effect="non-scaling-stroke" stroke="#000000" stroke-width="0.200mm" fpd:engraving_ral_9005="1" />
<path d="
M10.149 105.543
L11.693 105.543
L11.693 105.687
A0.772,0.722 0.000 0,1 10.149,105.687
L10.149 105.398
A0.810,0.757 0.000 0,1 11.600,104.936
" 
fill="none" vector-effect="non-scaling-stroke" stroke="#000000" stroke-width="0.200mm" fpd:engraving_ral_9005="1" />
<path d="
M13.977 106.409
L13.977 105.398
A0.772,0.722 0.000 0,0 12.433,105.398
L12.433 105.687
A0.772,0.722 0.000 0,0 13.977,105.687
L13.977 103.809
" 
fill="none" vector-effect="non-scaling-stroke" stroke="#000000" stroke-width="0.200mm" fpd:engraving_ral_9005="1" />
<path d="
M4.034 84.416
L5.887 84.416
L4.961 84.416
L4.961 81.816
" 
fill="none" vector-effect="non-scaling-stroke" stroke="#000000" stroke-width="0.200mm" fpd:engraving_ral_9005="1" />
<path d="
M6.629 84.416
L6.629 84.272
" 
fill="none" vector-effect="non-scaling-stroke" stroke="#000000" stroke-width="0.200mm" fpd:engraving_ral_9005="1" />
<path d="
M6.629 83.549
L6.629 81.816
" 
fill="none" vector-effect="non-scaling-stroke" stroke="#000000" stroke-width="0.200mm" fpd:engraving_ral_9005="1" />
<path d="
M7.370 81.816
L7.370 83.549
L7.370 82.972
A0.618,0.578 0.000 0,0 8.606,82.972
L8.606 81.816
L8.606 82.972
A0.618,0.578 0.000 0,0 9.841,82.972
L9.841 81.816
" 
fill="none" vector-effect="non-scaling-stroke" stroke="#000000" stroke-width="0.200mm" fpd:engraving_ral_9005="1" />
<path d="
M10.582 84.416
L10.582 82.538
A0.772,0.722 0.000 0,1 12.126,82.538
L12.126 82.827
A0.772,0.722 0.000 0,1 10.582,82.827
L10.582 81.816
" 
fill="none" vector-effect="non-scaling-stroke" stroke="#000000" stroke-width="0.200mm" fpd:engraving_ral_9005="1" />
<path d="
M12.866 81.816
L12.866 83.549
L12.866 82.972
A0.682,0.638 0.000 0,0 13.021,83.376
A0.440,0.411 0.000 0,0 13.700,83.376
" 
fill="none" vector-effect="non-scaling-stroke" stroke="#000000" stroke-width="0.200mm" fpd:engraving_ral_9005="1" />
<path d="
M14.410 82.683
L15.954 82.683
L15.954 82.827
A0.772,0.722 0.000 0,1 14.410,82.827
L14.410 82.538
A0.810,0.757 0.000 0,1 15.861,82.076
" 
fill="none" vector-effect="non-scaling-stroke" stroke="#000000" stroke-width="0.200mm" fpd:engraving_ral_9005="1" />
<path d="
M17.776 42.476
L19.320 42.476
" 
fill="none" vector-effect="non-scaling-stroke" stroke="#000000" stroke-width="0.200mm" fpd:engraving_ral_9005="1" />
<path d="
M19.629 43.776
L17.776 43.776
L17.776 41.176
" 
fill="none" vector-effect="non-scaling-stroke" stroke="#000000" stroke-width="0.200mm" fpd:engraving_ral_9005="1" />
<path d="
M20.371 41.176
L20.371 43.776
L21.452 41.898
L22.532 43.776
L22.532 41.176
" 
fill="none" vector-effect="non-scaling-stroke" stroke="#000000" stroke-width="0.200mm" fpd:engraving_ral_9005="1" />
<path d="
M11.508 69.907
L13.104 69.907
" 
fill="none" vector-effect="non-scaling-stroke" stroke="#000000" stroke-width="0.200mm" fpd:engraving_ral_9005="1" />
<path d="
M12.306 69.109
L12.306 70.706
" 
fill="none" vector-effect="non-scaling-stroke" stroke="#000000" stroke-width="0.200mm" fpd:engraving_ral_9005="1" />
<path d="
M9.991 71.945
L9.991 68.771
" 
fill="none" vector-effect="non-scaling-stroke" stroke="#000000" stroke-width="0.200mm" fpd:engraving_ral_9005="1" />
<path d="
M6.805 69.998
L8.402 69.998
" 
fill="none" vector-effect="non-scaling-stroke" stroke="#000000" stroke-width="0.200mm" fpd:engraving_ral_9005="1" />
<path d="
M31.828 69.907
L33.424 69.907
" 
fill="none" vector-effect="non-scaling-stroke" stroke="#000000" stroke-width="0.200mm" fpd:engraving_ral_9005="1" />
<path d="
M32.626 69.109
L32.626 70.706
" 
fill="none" vector-effect="non-scaling-stroke" stroke="#000000" stroke-width="0.200mm" fpd:engraving_ral_9005="1" />
<path d="
M30.311 71.945
L30.311 68.771
" 
fill="none" vector-effect="non-scaling-stroke" stroke="#000000" stroke-width="0.200mm" fpd:engraving_ral_9005="1" />
<path d="
M27.125 69.998
L28.722 69.998
" 
fill="none" vector-effect="non-scaling-stroke" stroke="#000000" stroke-width="0.200mm" fpd:engraving_ral_9005="1" />
<path d="
M21.668 52.127
L23.264 52.127
" 
fill="none" vector-effect="non-scaling-stroke" stroke="#000000" stroke-width="0.200mm" fpd:engraving_ral_9005="1" />
<path d="
M22.466 51.329
L22.466 52.926
" 
fill="none" vector-effect="non-scaling-stroke" stroke="#000000" stroke-width="0.200mm" fpd:engraving_ral_9005="1" />
<path d="
M20.151 54.165
L20.151 50.991
" 
fill="none" vector-effect="non-scaling-stroke" stroke="#000000" stroke-width="0.200mm" fpd:engraving_ral_9005="1" />
<path d="
M16.965 52.218
L18.562 52.218
" 
fill="none" vector-effect="non-scaling-stroke" stroke="#000000" stroke-width="0.200mm" fpd:engraving_ral_9005="1" />
<path d="
M5.900 3.000
A1.600,1.600 0 1,0 9.100,3.000
A1.600,1.600 0 1,0 5.900,3.000
" 
fill="#ffffff" vector-effect="non-scaling-stroke" stroke="#000000" stroke-width="0.100mm" />
<path d="
M5.900 125.500
A1.600,1.600 0 1,0 9.100,125.500
A1.600,1.600 0 1,0 5.900,125.500
" 
fill="#ffffff" vector-effect="non-scaling-stroke" stroke="#000000" stroke-width="0.100mm" />
<path d="
M24.587 75.693
A2.600,2.600 0 1,0 29.787,75.693
A2.600,2.600 0 1,0 24.587,75.693
" 
fill="#ffffff" vector-effect="non-scaling-stroke" stroke="#000000" stroke-width="0.100mm" />
<path d="
M18.601 73.153
A1.550,1.550 0 1,0 21.701,73.153
A1.550,1.550 0 1,0 18.601,73.153
" 
fill="#ffffff" vector-effect="non-scaling-stroke" stroke="#000000" stroke-width="0.100mm" />
<path d="
M10.515 75.693
A2.600,2.600 0 1,0 15.715,75.693
A2.600,2.600 0 1,0 10.515,75.693
" 
fill="#ffffff" vector-effect="non-scaling-stroke" stroke="#000000" stroke-width="0.100mm" />
<path d="
M18.601 78.233
A1.550,1.550 0 1,0 21.701,78.233
A1.550,1.550 0 1,0 18.601,78.233
" 
fill="#ffffff" vector-effect="non-scaling-stroke" stroke="#000000" stroke-width="0.100mm" />
<path d="
M18.601 83.313
A1.550,1.550 0 1,0 21.701,83.313
A1.550,1.550 0 1,0 18.601,83.313
" 
fill="#ffffff" vector-effect="non-scaling-stroke" stroke="#000000" stroke-width="0.100mm" />
<path d="
M18.601 88.393
A1.550,1.550 0 1,0 21.701,88.393
A1.550,1.550 0 1,0 18.601,88.393
" 
fill="#ffffff" vector-effect="non-scaling-stroke" stroke="#000000" stroke-width="0.100mm" />
<path d="
M18.601 93.473
A1.550,1.550 0 1,0 21.701,93.473
A1.550,1.550 0 1,0 18.601,93.473
" 
fill="#ffffff" vector-effect="non-scaling-stroke" stroke="#000000" stroke-width="0.100mm" />
<path d="
M18.601 98.553
A1.550,1.550 0 1,0 21.701,98.553
A1.550,1.550 0 1,0 18.601,98.553
" 
fill="#ffffff" vector-effect="non-scaling-stroke" stroke="#000000" stroke-width="0.100mm" />
<path d="
M18.601 103.633
A1.550,1.550 0 1,0 21.701,103.633
A1.550,1.550 0 1,0 18.601,103.633
" 
fill="#ffffff" vector-effect="non-scaling-stroke" stroke="#000000" stroke-width="0.100mm" />
<path d="
M18.601 108.713
A1.550,1.550 0 1,0 21.701,108.713
A1.550,1.550 0 1,0 18.601,108.713
" 
fill="#ffffff" vector-effect="non-scaling-stroke" stroke="#000000" stroke-width="0.100mm" />
<path d="
M31.506 15.673
A3.250,3.250 0 1,0 38.006,15.673
A3.250,3.250 0 1,0 31.506,15.673
" 
fill="#ffffff" vector-effect="non-scaling-stroke" stroke="#000000" stroke-width="0.100mm" />
<path d="
M31.506 27.738
A3.250,3.250 0 1,0 38.006,27.738
A3.250,3.250 0 1,0 31.506,27.738
" 
fill="#ffffff" vector-effect="non-scaling-stroke" stroke="#000000" stroke-width="0.100mm" />
<path d="
M21.676 27.738
A3.250,3.250 0 1,0 28.176,27.738
A3.250,3.250 0 1,0 21.676,27.738
" 
fill="#ffffff" vector-effect="non-scaling-stroke" stroke="#000000" stroke-width="0.100mm" />
<path d="
M31.506 39.650
A3.250,3.250 0 1,0 38.006,39.650
A3.250,3.250 0 1,0 31.506,39.650
" 
fill="#ffffff" vector-effect="non-scaling-stroke" stroke="#000000" stroke-width="0.100mm" />
<path d="
M2.296 39.650
A3.250,3.250 0 1,0 8.796,39.650
A3.250,3.250 0 1,0 2.296,39.650
" 
fill="#ffffff" vector-effect="non-scaling-stroke" stroke="#000000" stroke-width="0.100mm" />
<path d="
M2.296 27.738
A3.250,3.250 0 1,0 8.796,27.738
A3.250,3.250 0 1,0 2.296,27.738
" 
fill="#ffffff" vector-effect="non-scaling-stroke" stroke="#000000" stroke-width="0.100mm" />
<path d="
M12.126 27.738
A3.250,3.250 0 1,0 18.626,27.738
A3.250,3.250 0 1,0 12.126,27.738
" 
fill="#ffffff" vector-effect="non-scaling-stroke" stroke="#000000" stroke-width="0.100mm" />
<path d="
M21.676 15.673
A3.250,3.250 0 1,0 28.176,15.673
A3.250,3.250 0 1,0 21.676,15.673
" 
fill="#ffffff" vector-effect="non-scaling-stroke" stroke="#000000" stroke-width="0.100mm" />
<path d="
M12.126 15.673
A3.250,3.250 0 1,0 18.626,15.673
A3.250,3.250 0 1,0 12.126,15.673
" 
fill="#ffffff" vector-effect="non-scaling-stroke" stroke="#000000" stroke-width="0.100mm" />
<path d="
M2.296 15.673
A3.250,3.250 0 1,0 8.796,15.673
A3.250,3.250 0 1,0 2.296,15.673
" 
fill="#ffffff" vector-effect="non-scaling-stroke" stroke="#000000" stroke-width="0.100mm" />
<path d="
M27.061 88.393
A3.250,3.250 0 1,0 33.561,88.393
A3.250,3.250 0 1,0 27.061,88.393
" 
fill="#ffffff" vector-effect="non-scaling-stroke" stroke="#000000" stroke-width="0.100mm" />
<path d="
M27.061 111.253
A3.250,3.250 0 1,0 33.561,111.253
A3.250,3.250 0 1,0 27.061,111.253
" 
fill="#ffffff" vector-effect="non-scaling-stroke" stroke="#000000" stroke-width="0.100mm" />
<path d="
M6.741 111.253
A3.250,3.250 0 1,0 13.241,111.253
A3.250,3.250 0 1,0 6.741,111.253
" 
fill="#ffffff" vector-effect="non-scaling-stroke" stroke="#000000" stroke-width="0.100mm" />
<path d="
M6.741 88.393
A3.250,3.250 0 1,0 13.241,88.393
A3.250,3.250 0 1,0 6.741,88.393
" 
fill="#ffffff" vector-effect="non-scaling-stroke" stroke="#000000" stroke-width="0.100mm" />
<path d="
M6.741 65.533
A3.250,3.250 0 1,0 13.241,65.533
A3.250,3.250 0 1,0 6.741,65.533
" 
fill="#ffffff" vector-effect="non-scaling-stroke" stroke="#000000" stroke-width="0.100mm" />
<path d="
M27.061 65.533
A3.250,3.250 0 1,0 33.561,65.533
A3.250,3.250 0 1,0 27.061,65.533
" 
fill="#ffffff" vector-effect="non-scaling-stroke" stroke="#000000" stroke-width="0.100mm" />
<path d="
M16.901 47.753
A3.250,3.250 0 1,0 23.401,47.753
A3.250,3.250 0 1,0 16.901,47.753
" 
fill="#ffffff" vector-effect="non-scaling-stroke" stroke="#000000" stroke-width="0.100mm" />
<path d="
M40.300 128.500
L40.300 0.000
L0.000 0.000
L0.000 128.500
L40.300 128.500
" 
fill="none" vector-effect="non-scaling-stroke" stroke="#000000" stroke-width="0.100mm" />
</g>
</svg>
