G04 DipTrace 3.2.0.1*
G04 beehive.GBS*
%MOIN*%
G04 #@! TF.FileFunction,Soldermask,Bot*
G04 #@! TF.Part,Single*
%AMOUTLINE34*
4,1,8,
-0.039108,0.016199,
-0.016199,0.039108,
0.016199,0.039108,
0.039108,0.016199,
0.039108,-0.016199,
0.016199,-0.039108,
-0.016199,-0.039108,
-0.039108,-0.016199,
-0.039108,0.016199,
0*%
%AMOUTLINE67*
4,1,16,
-0.005451,0.0415,
-0.023051,0.037483,
-0.037527,0.025939,
-0.04556,0.009258,
-0.04556,-0.009258,
-0.037527,-0.025939,
-0.023051,-0.037483,
-0.005451,-0.0415,
0.005451,-0.0415,
0.023051,-0.037483,
0.037527,-0.025939,
0.04556,-0.009258,
0.04556,0.009258,
0.037527,0.025939,
0.023051,0.037483,
0.005451,0.0415,
-0.005451,0.0415,
0*%
%AMOUTLINE69*
4,1,8,
0.008419,0.020325,
0.020325,0.008419,
0.020325,-0.008419,
0.008419,-0.020325,
-0.008419,-0.020325,
-0.020325,-0.008419,
-0.020325,0.008419,
-0.008419,0.020325,
0.008419,0.020325,
0*%
%AMOUTLINE71*
4,1,4,
0.030163,-0.03016,
-0.030114,-0.030208,
-0.030211,0.030118,
0.030163,0.030166,
0.030163,-0.03016,
0*%
%AMOUTLINE74*
4,1,8,
-0.015816,-0.038184,
-0.038184,-0.015816,
-0.038184,0.015816,
-0.015816,0.038184,
0.015816,0.038184,
0.038184,0.015816,
0.038184,-0.015816,
0.015816,-0.038184,
-0.015816,-0.038184,
0*%
%AMOUTLINE89*
4,1,16,
0.054,0.017951,
0.048745,0.040974,
0.033733,0.0598,
0.012039,0.070247,
-0.012039,0.070247,
-0.033733,0.0598,
-0.048745,0.040974,
-0.054,0.017951,
-0.054,-0.017951,
-0.048745,-0.040974,
-0.033733,-0.0598,
-0.012039,-0.070247,
0.012039,-0.070247,
0.033733,-0.0598,
0.048745,-0.040974,
0.054,-0.017951,
0.054,0.017951,
0*%
%ADD49C,0.122047*%
%ADD59O,0.068X0.073*%
%ADD61C,0.055559*%
%ADD63O,0.082X0.062*%
%ADD65O,0.062X0.082*%
%ADD67C,0.073*%
%ADD116OUTLINE34*%
%ADD149OUTLINE67*%
%ADD151OUTLINE69*%
%ADD153OUTLINE71*%
%ADD156OUTLINE74*%
%ADD171OUTLINE89*%
%FSLAX26Y26*%
G04*
G70*
G90*
G75*
G01*
G04 BotMask*
%LPD*%
D116*
X1857273Y3714999D3*
Y3814999D3*
Y3914999D3*
D149*
X1372827Y969412D3*
Y1294412D3*
D67*
Y869412D3*
D149*
X1754078Y1712161D3*
Y1387161D3*
D67*
Y1812161D3*
D149*
X985327Y969412D3*
Y1294412D3*
D67*
Y869412D3*
D149*
X604078Y1712161D3*
Y1387161D3*
D67*
Y1812161D3*
D149*
Y969412D3*
Y1294412D3*
D67*
Y869412D3*
D149*
X1754078Y768412D3*
Y443412D3*
D67*
Y868412D3*
D149*
Y969412D3*
Y1294412D3*
D67*
Y869412D3*
D149*
X1372827Y768412D3*
Y443412D3*
D67*
Y868412D3*
D149*
X985327Y768412D3*
Y443412D3*
D67*
Y868412D3*
D149*
X604078Y768412D3*
Y443412D3*
D67*
Y868412D3*
D151*
X1913949Y4238955D3*
X1863950D3*
X1913949Y4288955D3*
X1863950D3*
X1913949Y4338955D3*
X1863950D3*
X1913949Y4388955D3*
X1863950D3*
X1913949Y4438955D3*
X1863950D3*
D65*
X729078Y4631412D3*
X829078D3*
D153*
X460327Y4439849D3*
D63*
Y4339849D3*
Y4239849D3*
Y4139849D3*
D156*
X1129078Y2593912D3*
X1229078D3*
X1129078Y2493912D3*
X1229078D3*
X1129078Y2393912D3*
X1229078D3*
X1129078Y2293912D3*
X1229078D3*
X1129078Y2193912D3*
X1229078D3*
D61*
X1179078Y4293912D3*
X1079078D3*
X1279078D3*
X1179078Y4093912D3*
X1079078D3*
X1279078D3*
X1179078Y3893912D3*
X1079078D3*
X1279078D3*
X1179078Y3693912D3*
X1079078D3*
X1279078D3*
X1179078Y3493912D3*
X1079078D3*
X1279078D3*
X1179078Y3293912D3*
X1079078D3*
X1279078D3*
X1179078Y3093912D3*
X1079078D3*
X1279078D3*
X1179078Y2893912D3*
X1079078D3*
X1279078D3*
D59*
X1677078Y4098912D3*
X1579078Y4098637D3*
X1481078Y4098912D3*
D171*
X1392078Y4393912D3*
X1766078D3*
D59*
X877078Y4098912D3*
X779078Y4098637D3*
X681078Y4098912D3*
D171*
X592078Y4393912D3*
X966078D3*
D59*
X1677078Y3198912D3*
X1579078Y3198637D3*
X1481078Y3198912D3*
D171*
X1392078Y3493912D3*
X1766078D3*
D59*
X877078Y3198912D3*
X779078Y3198637D3*
X681078Y3198912D3*
D171*
X592078Y3493912D3*
X966078D3*
D59*
X1677078Y2298912D3*
X1579078Y2298637D3*
X1481078Y2298912D3*
D171*
X1392078Y2593912D3*
X1766078D3*
D59*
X1277078Y1598912D3*
X1179078Y1598637D3*
X1081078Y1598912D3*
D171*
X992078Y1893912D3*
X1366078D3*
D59*
X877078Y2298912D3*
X779078Y2298637D3*
X681078Y2298912D3*
D171*
X592078Y2593912D3*
X966078D3*
D65*
X1545481Y2866311D3*
Y3122311D3*
X1367481Y2866311D3*
Y3122311D3*
X813176Y3121912D3*
Y2865912D3*
X991176Y3121912D3*
Y2865912D3*
D49*
X479078Y4612661D3*
X1879078Y4606411D3*
M02*
