G04 DipTrace 3.2.0.1*
G04 beehive.GTO*
%MOIN*%
G04 #@! TF.FileFunction,Legend,Top*
G04 #@! TF.Part,Single*
%ADD10C,0.009843*%
%ADD14C,0.01*%
%ADD15C,0.008*%
%ADD16C,0.006*%
%ADD24O,0.03353X0.032749*%
%ADD25O,0.050685X0.049906*%
%ADD26C,0.038022*%
%ADD27O,0.032812X0.031211*%
%ADD28C,0.041009*%
%ADD29O,0.037282X0.037766*%
%ADD30C,0.000013*%
%ADD31C,0.004*%
%ADD37C,0.005*%
%ADD38C,0.002*%
%ADD44C,0.002756*%
%ADD79C,0.004632*%
%ADD80C,0.012351*%
%ADD81C,0.00772*%
%FSLAX26Y26*%
G04*
G70*
G90*
G75*
G01*
G04 TopSilk*
%LPD*%
X1756042Y3290017D2*
D10*
X1818971D1*
X1756042Y3297466D2*
X1818971D1*
X1756042D2*
Y3273907D1*
X1818971Y3297466D2*
Y3273907D1*
X1848751Y3142437D2*
Y3079508D1*
X1856200Y3142437D2*
Y3079508D1*
Y3142437D2*
X1832641D1*
X1856200Y3079508D2*
X1832641D1*
X1363181Y3786963D2*
D30*
G02X1363181Y3786963I57083J0D01*
G01*
X1382859Y3743662D2*
D31*
G02X1382859Y3830265I37399J43302D01*
G01*
X1457669Y3743662D2*
G03X1455691Y3832239I-37384J43476D01*
G01*
X1382859Y3723976D2*
X1357272D1*
Y3818457D1*
X1384837Y3846021D1*
X1455691D2*
X1483256Y3818457D1*
Y3723976D1*
X1457669D1*
X755222Y2032589D2*
D30*
G02X755222Y2032589I76774J0D01*
G01*
X798529Y1963686D2*
D31*
G02X798529Y2101492I33484J68903D01*
G01*
X865464Y1963686D2*
G03X865464Y2101492I-33483J68903D01*
G01*
X798529Y1949910D2*
X749319D1*
Y2071963D1*
X792625Y2115269D1*
X871367D2*
X914674Y2071963D1*
Y1949910D1*
X865464D1*
X753432Y1791417D2*
D30*
G02X753432Y1791417I76774J0D01*
G01*
X796739Y1722514D2*
D31*
G02X796739Y1860321I33484J68903D01*
G01*
X863674Y1722514D2*
G03X863674Y1860321I-33483J68903D01*
G01*
X796739Y1708738D2*
X747529D1*
Y1830791D1*
X790835Y1874097D1*
X869577D2*
X912883Y1830791D1*
Y1708738D1*
X863674D1*
G36*
X1551834Y3913323D2*
Y3892080D1*
X1512609D1*
Y3913323D1*
X1551834D1*
G37*
X1495488Y4577924D2*
D30*
G02X1495488Y4577924I57083J0D01*
G01*
X1515166Y4534622D2*
D31*
G02X1515166Y4621226I37399J43302D01*
G01*
X1589976Y4534622D2*
G03X1587998Y4623200I-37384J43476D01*
G01*
X1515166Y4514937D2*
X1489579D1*
Y4609418D1*
X1517144Y4636981D1*
X1587998D2*
X1615563Y4609418D1*
Y4514937D1*
X1589976D1*
G36*
X1452638Y4618104D2*
Y4596861D1*
X1413414D1*
Y4618104D1*
X1452638D1*
G37*
G36*
X833902Y4050036D2*
X855144D1*
Y4010811D1*
X833902D1*
Y4050036D1*
G37*
G36*
X727683Y4009938D2*
X706440D1*
Y4049163D1*
X727683D1*
Y4009938D1*
G37*
G36*
X1483722Y4039289D2*
X1504965D1*
Y4000064D1*
X1483722D1*
Y4039289D1*
G37*
G36*
X771691Y4196436D2*
X792933D1*
Y4157211D1*
X771691D1*
Y4196436D1*
G37*
X1577815Y2475614D2*
D10*
Y2412685D1*
X1585264Y2475614D2*
Y2412685D1*
Y2475614D2*
X1561705D1*
X1585264Y2412685D2*
X1561705D1*
G36*
X493916Y4015759D2*
X472674D1*
Y4054983D1*
X493916D1*
Y4015759D1*
G37*
G36*
X1582863Y4331843D2*
Y4310601D1*
X1543639D1*
Y4331843D1*
X1582863D1*
G37*
X818330Y2985259D2*
D30*
G02X818330Y2985259I57083J0D01*
G01*
X918715Y2947854D2*
D31*
G02X832112Y2947854I-43302J37399D01*
G01*
X918715Y3022663D2*
G03X830138Y3020685I-43476J-37384D01*
G01*
X938401Y2947854D2*
Y2922266D1*
X843920D1*
X816356Y2949832D1*
Y3020685D2*
X843920Y3048251D1*
X938401D1*
Y3022663D1*
G36*
X456071Y3054374D2*
X416847D1*
Y3033132D1*
X456071D1*
Y3054374D1*
G37*
G36*
X452198Y3191574D2*
X491423D1*
Y3212816D1*
X452198D1*
Y3191574D1*
G37*
G36*
X499235Y3567038D2*
X477993D1*
Y3606263D1*
X499235D1*
Y3567038D1*
G37*
G36*
X618275Y3640742D2*
X639517D1*
Y3601517D1*
X618275D1*
Y3640742D1*
G37*
G36*
X470490Y3699538D2*
X491732D1*
Y3660314D1*
X470490D1*
Y3699538D1*
G37*
X1544868Y2993272D2*
D30*
G02X1544868Y2993272I57083J0D01*
G01*
X1645253Y2955867D2*
D31*
G02X1558650Y2955867I-43302J37399D01*
G01*
X1645253Y3030676D2*
G03X1556676Y3028699I-43476J-37384D01*
G01*
X1664939Y2955867D2*
Y2930280D1*
X1570458D1*
X1542894Y2957845D1*
Y3028699D2*
X1570458Y3056264D1*
X1664939D1*
Y3030676D1*
G36*
X1024635Y3622627D2*
X1045878D1*
Y3583403D1*
X1024635D1*
Y3622627D1*
G37*
G36*
X1162782Y3620193D2*
X1184025D1*
Y3580969D1*
X1162782D1*
Y3620193D1*
G37*
G36*
X729412Y3455547D2*
X708170D1*
Y3494772D1*
X729412D1*
Y3455547D1*
G37*
G36*
X734033Y3525427D2*
X712791D1*
Y3564651D1*
X734033D1*
Y3525427D1*
G37*
G36*
X422053Y2848030D2*
Y2869273D1*
X461277D1*
Y2848030D1*
X422053D1*
G37*
G36*
X789239Y2788526D2*
X810482D1*
Y2749302D1*
X789239D1*
Y2788526D1*
G37*
X477461Y2796583D2*
D10*
X528603D1*
X765744Y2630231D2*
D30*
G02X765744Y2630231I57083J0D01*
G01*
X785422Y2586929D2*
D31*
G02X785422Y2673533I37399J43302D01*
G01*
X860232Y2586929D2*
G03X858254Y2675507I-37384J43476D01*
G01*
X785422Y2567244D2*
X759835D1*
Y2661725D1*
X787400Y2689289D1*
X858254D2*
X885819Y2661725D1*
Y2567244D1*
X860232D1*
X554422Y2702525D2*
D10*
Y2753667D1*
G36*
X1555792Y3303088D2*
X1534549D1*
Y3342312D1*
X1555792D1*
Y3303088D1*
G37*
G36*
X658630Y2076513D2*
X637388D1*
Y2115738D1*
X658630D1*
Y2076513D1*
G37*
G36*
X610714Y3308782D2*
Y3287540D1*
X571490D1*
Y3308782D1*
X610714D1*
G37*
G36*
X770490Y2463526D2*
X791732D1*
Y2424302D1*
X770490D1*
Y2463526D1*
G37*
G36*
X818347Y676450D2*
Y655208D1*
X779122D1*
Y676450D1*
X818347D1*
G37*
G36*
X566890Y2280664D2*
X606114D1*
Y2301907D1*
X566890D1*
Y2280664D1*
G37*
G36*
X1463324Y549298D2*
X1442082D1*
Y588522D1*
X1463324D1*
Y549298D1*
G37*
G36*
X1489881Y1174298D2*
X1468638D1*
Y1213522D1*
X1489881D1*
Y1174298D1*
G37*
G36*
X701254Y549298D2*
X680011D1*
Y588522D1*
X701254D1*
Y549298D1*
G37*
G36*
X714881Y1174298D2*
X693638D1*
Y1213522D1*
X714881D1*
Y1174298D1*
G37*
G36*
X500166Y1793047D2*
X478923D1*
Y1832272D1*
X500166D1*
Y1793047D1*
G37*
G36*
X492096Y2424298D2*
X470854D1*
Y2463522D1*
X492096D1*
Y2424298D1*
G37*
G36*
X1582137Y672494D2*
Y651251D1*
X1542912D1*
Y672494D1*
X1582137D1*
G37*
G36*
X660579Y1880672D2*
X639337D1*
Y1919896D1*
X660579D1*
Y1880672D1*
G37*
G36*
X1669831Y588526D2*
X1691074D1*
Y549302D1*
X1669831D1*
Y588526D1*
G37*
G36*
X1643275Y1213526D2*
X1664517D1*
Y1174302D1*
X1643275D1*
Y1213526D1*
G37*
G36*
X913227Y588526D2*
X934470D1*
Y549302D1*
X913227D1*
Y588526D1*
G37*
G36*
X893275Y1213526D2*
X914517D1*
Y1174302D1*
X893275D1*
Y1213526D1*
G37*
G36*
X1098345Y1387206D2*
X1077103D1*
Y1426431D1*
X1098345D1*
Y1387206D1*
G37*
G36*
X1168321Y1698828D2*
X1189563D1*
Y1659604D1*
X1168321D1*
Y1698828D1*
G37*
G36*
X801440Y2209727D2*
X822682D1*
Y2170503D1*
X801440D1*
Y2209727D1*
G37*
G36*
X1555415Y2193907D2*
X1534172D1*
Y2233131D1*
X1555415D1*
Y2193907D1*
G37*
G36*
X614608Y1474756D2*
X593365D1*
Y1513980D1*
X614608D1*
Y1474756D1*
G37*
G36*
X1866437Y549298D2*
X1845195D1*
Y588522D1*
X1866437D1*
Y549298D1*
G37*
G36*
X1832990Y1494776D2*
X1854232D1*
Y1455551D1*
X1832990D1*
Y1494776D1*
G37*
G36*
X504647Y588526D2*
X525890D1*
Y549302D1*
X504647D1*
Y588526D1*
G37*
G36*
X557172Y1175629D2*
X535930D1*
Y1214853D1*
X557172D1*
Y1175629D1*
G37*
G36*
X1631803Y463526D2*
X1653046D1*
Y424302D1*
X1631803D1*
Y463526D1*
G37*
G36*
X1193275D2*
X1214517D1*
Y424302D1*
X1193275D1*
Y463526D1*
G37*
G36*
X1839881Y1074298D2*
X1818638D1*
Y1113522D1*
X1839881D1*
Y1074298D1*
G37*
X892901Y3275190D2*
D16*
X860912D1*
Y3297191D1*
Y3387194D2*
X892901D1*
X860912Y3365192D2*
Y3387194D1*
X1495410Y1900459D2*
D10*
X1680457D1*
Y2008739D1*
Y2010701D2*
X1495410D1*
Y1971338D1*
Y1900459D2*
Y1939822D1*
G03X1495410Y1971338I1844J15758D01*
G01*
X1936013Y3586652D2*
D37*
Y4043345D1*
Y3586652D2*
X1597431D1*
Y4043345D1*
X1936013D1*
X1121138Y4641903D2*
D30*
G02X1121138Y4641903I18004J0D01*
G01*
X1096583Y4684209D2*
D16*
Y4345626D1*
X1254074D2*
X1096583D1*
X1254074D2*
Y4684209D1*
X1096583D2*
X1254074D1*
X1108391Y4672392D2*
D38*
Y4357443D1*
X1242266D2*
X1108391D1*
X1242266D2*
Y4672392D1*
X1108391D2*
X1242266D1*
X1660277Y2704440D2*
D37*
Y2607451D1*
X1484293D2*
Y2704440D1*
X737782Y3870643D2*
D30*
G02X737782Y3870643I23619J0D01*
G01*
X962191Y3924782D2*
D14*
X973038Y3913935D1*
Y3669852D1*
X962191Y3659006D1*
X718109D1*
X707262Y3669852D1*
Y3913935D1*
X718109Y3924782D1*
X962191D1*
X485817Y2893409D2*
D30*
G02X485817Y2893409I8842J0D01*
G01*
X737011Y2891155D2*
D16*
Y3033171D1*
X477326D2*
Y2986663D1*
Y2937663D1*
Y2891155D1*
X1457424Y819177D2*
D10*
X1654275D1*
X1457424Y945146D2*
X1654275D1*
Y819177D2*
Y945146D1*
X1457424Y819177D2*
Y862473D1*
Y901850D2*
Y945146D1*
Y862473D2*
G03X1457424Y901850I-3J19688D01*
G01*
X700152Y822906D2*
X897004D1*
X700152Y948874D2*
X897004D1*
Y822906D2*
Y948874D1*
X700152Y822906D2*
Y866202D1*
Y905578D2*
Y948874D1*
Y866202D2*
G03X700152Y905578I-3J19688D01*
G01*
X447830Y2051342D2*
D30*
G02X447830Y2051342I12793J0D01*
G01*
X541332Y2030663D2*
D15*
Y2199974D1*
X431096D1*
Y2030663D1*
X541332D1*
X1926452Y4213955D2*
D16*
X1938951Y4226455D1*
Y4251455D2*
X1926452Y4263955D1*
X1938951Y4276455D1*
Y4301455D2*
X1926452Y4313955D1*
X1938951Y4326455D1*
Y4351455D2*
X1926452Y4363955D1*
X1938951Y4376455D1*
Y4401455D2*
X1926452Y4413955D1*
Y4213955D2*
X1851449D1*
X1838950Y4226455D1*
Y4251455D1*
X1851449Y4263955D1*
X1838950Y4276455D1*
Y4301455D1*
X1851449Y4313955D1*
X1838950Y4326455D1*
Y4351455D1*
X1851449Y4363955D1*
X1838950Y4376455D1*
Y4401455D1*
X1851449Y4413955D1*
Y4263955D2*
X1926452D1*
X1851449Y4313955D2*
X1926452D1*
X1851449Y4363955D2*
X1926452D1*
X1851449Y4413955D2*
X1926452D1*
X1938951Y4376455D2*
Y4401455D1*
Y4326455D2*
Y4351455D1*
Y4276455D2*
Y4301455D1*
Y4226455D2*
Y4251455D1*
X1926452Y4413955D2*
X1938951Y4426455D1*
Y4451455D2*
X1926452Y4463955D1*
X1851449Y4413955D2*
X1838950Y4426455D1*
Y4451455D1*
X1851449Y4463955D1*
X1926452D1*
X1938951Y4426455D2*
Y4451455D1*
X1951450Y4226455D2*
D15*
Y4251455D1*
X704078Y4681412D2*
X754078D1*
X779078Y4656412D1*
Y4606412D2*
X754078Y4581412D1*
X779078Y4656412D2*
X804078Y4681412D1*
X854078D1*
X879078Y4656412D1*
Y4606412D2*
X854078Y4581412D1*
X804078D1*
X779078Y4606412D1*
X679078Y4656412D2*
Y4606412D1*
X704078Y4681412D2*
X679078Y4656412D1*
Y4606412D2*
X704078Y4581412D1*
X754078D2*
X704078D1*
X879078Y4656412D2*
Y4606412D1*
X510327Y4164849D2*
Y4114849D1*
X485327Y4089849D1*
X435327D2*
X410327Y4114849D1*
X485327Y4289849D2*
X510327Y4264849D1*
Y4214849D1*
X485327Y4189849D1*
X435327D2*
X410327Y4214849D1*
Y4264849D1*
X435327Y4289849D1*
X510327Y4164849D2*
X485327Y4189849D1*
X435327D2*
X410327Y4164849D1*
Y4114849D2*
Y4164849D1*
X510327Y4464849D2*
Y4414849D1*
X485327Y4389849D1*
X435327D2*
X410327Y4414849D1*
X485327Y4389849D2*
X510327Y4364849D1*
Y4314849D1*
X485327Y4289849D1*
X435327D2*
X410327Y4314849D1*
Y4364849D1*
X435327Y4389849D1*
X485327Y4489849D2*
X435327D1*
X510327Y4464849D2*
X485327Y4489849D1*
X435327D2*
X410327Y4464849D1*
Y4414849D2*
Y4464849D1*
X485327Y4089849D2*
X435327D1*
X1069838Y2618896D2*
Y2568873D1*
X1356243Y2791550D2*
Y1996274D1*
X1001912D2*
Y2307307D1*
Y2480518D1*
Y2791550D1*
X1352310D1*
X1356243Y1996274D2*
X1001912D1*
Y2480518D2*
X1060979D1*
Y2307307D1*
X1001912D1*
G36*
X1206546Y1930509D2*
X1190804D1*
Y1922623D1*
X1206546D1*
Y1930509D1*
G37*
X1171117Y1942320D2*
D44*
X1234103D1*
Y1910824D2*
X1171117D1*
G36*
X1203630Y1829698D2*
X1187888D1*
Y1821812D1*
X1203630D1*
Y1829698D1*
G37*
X1168201Y1841509D2*
D44*
X1231187D1*
Y1810013D2*
X1168201D1*
G36*
X1661664Y4605640D2*
Y4621381D1*
X1653778D1*
Y4605640D1*
X1661664D1*
G37*
X1673475Y4641068D2*
D44*
Y4578082D1*
X1641979D2*
Y4641068D1*
G36*
X1824406Y2399850D2*
X1816519D1*
Y2415591D1*
X1824406D1*
Y2399850D1*
G37*
X1836217Y2435278D2*
D44*
Y2372292D1*
X1804721D2*
Y2435278D1*
X482537Y3779579D2*
D30*
G02X482537Y3779579I7166J0D01*
G01*
X416875Y3818942D2*
D15*
Y3901636D1*
X470030Y3974458D2*
X493638D1*
X546793Y3901636D2*
Y3818942D1*
X493638Y3746120D2*
X470030D1*
G36*
X476734Y2362244D2*
X490374D1*
Y2347777D1*
X476734D1*
Y2362244D1*
G37*
G36*
X483658Y1903134D2*
X494662D1*
Y1887129D1*
X483658D1*
Y1903134D1*
G37*
G36*
X471365Y1703723D2*
X482351D1*
Y1686661D1*
X471365D1*
Y1703723D1*
G37*
G36*
X470633Y1598784D2*
X483815D1*
Y1586333D1*
X470633D1*
Y1598784D1*
G37*
G36*
X639864Y2009253D2*
X654389D1*
Y1995333D1*
X639864D1*
Y2009253D1*
G37*
G36*
X641074Y2185371D2*
X655600D1*
Y2169030D1*
X641074D1*
Y2185371D1*
G37*
G36*
X696998Y2526138D2*
X714719D1*
Y2511961D1*
X696998D1*
Y2526138D1*
G37*
G36*
X628768Y2449933D2*
X644718D1*
Y2439299D1*
X628768D1*
Y2449933D1*
G37*
G36*
X1196285Y463344D2*
X1211415D1*
Y427032D1*
X1196285D1*
Y463344D1*
G37*
G36*
X593655Y1515277D2*
X614125D1*
Y1472390D1*
X593655D1*
Y1515277D1*
G37*
G36*
X1171696Y1701396D2*
X1184901D1*
Y1659581D1*
X1171696D1*
Y1701396D1*
G37*
X863238Y3382152D2*
D16*
X905313D1*
Y3277232D1*
X863238D1*
Y3382152D1*
X1241768Y1448686D2*
X1341656D1*
Y1402932D1*
X1241768D1*
Y1448686D1*
G36*
X807240Y4511202D2*
X818562D1*
Y4495161D1*
X807240D1*
Y4511202D1*
G37*
G36*
X727041Y4512146D2*
X740251D1*
Y4497049D1*
X727041D1*
Y4512146D1*
G37*
X478855Y3047110D2*
D16*
X736177D1*
Y2877121D1*
X478855D1*
Y3047110D1*
D24*
X501078Y2898174D3*
D25*
X761536Y3871394D3*
D26*
X1139102Y4641201D3*
D27*
X461515Y2051990D3*
D28*
X734207Y835891D3*
D29*
X1492577Y833529D3*
G36*
X1885280Y4253942D2*
X1943407D1*
Y4171004D1*
X1885280D1*
Y4253942D1*
G37*
X1700309Y3337447D2*
D79*
X1697458Y3336021D1*
X1694573Y3333136D1*
X1693147Y3330284D1*
Y3324547D1*
X1694572Y3321662D1*
X1697458Y3318810D1*
X1700309Y3317351D1*
X1704620Y3315925D1*
X1711817D1*
X1716094Y3317351D1*
X1718980Y3318810D1*
X1721831Y3321662D1*
X1723291Y3324547D1*
Y3330284D1*
X1721831Y3333136D1*
X1718980Y3336021D1*
X1716094Y3337447D1*
X1698917Y3346711D2*
X1697458Y3349596D1*
X1693180Y3353907D1*
X1723291D1*
X1834142Y3043267D2*
X1832716Y3046119D1*
X1829831Y3049004D1*
X1826979Y3050430D1*
X1821242D1*
X1818357Y3049004D1*
X1815505Y3046119D1*
X1814046Y3043267D1*
X1812620Y3038956D1*
Y3031760D1*
X1814046Y3027482D1*
X1815505Y3024597D1*
X1818357Y3021745D1*
X1821242Y3020286D1*
X1826979D1*
X1829831Y3021745D1*
X1832716Y3024597D1*
X1834142Y3027482D1*
X1844865Y3043234D2*
Y3044660D1*
X1846290Y3047545D1*
X1847716Y3048971D1*
X1850602Y3050397D1*
X1856338D1*
X1859190Y3048971D1*
X1860616Y3047545D1*
X1862075Y3044660D1*
Y3041808D1*
X1860616Y3038923D1*
X1857764Y3034645D1*
X1843405Y3020286D1*
X1863501D1*
X1424307Y3668184D2*
X1422881Y3671036D1*
X1419996Y3673921D1*
X1417144Y3675347D1*
X1411407D1*
X1408522Y3673921D1*
X1405670Y3671036D1*
X1404211Y3668184D1*
X1402785Y3663873D1*
Y3656677D1*
X1404211Y3652399D1*
X1405670Y3649514D1*
X1408522Y3646662D1*
X1411407Y3645203D1*
X1417144D1*
X1419996Y3646662D1*
X1422881Y3649514D1*
X1424307Y3652399D1*
X1436456Y3675314D2*
X1452208D1*
X1443619Y3663840D1*
X1447930D1*
X1450782Y3662414D1*
X1452208Y3660988D1*
X1453667Y3656677D1*
Y3653825D1*
X1452208Y3649514D1*
X1449356Y3646629D1*
X1445045Y3645203D1*
X1440734D1*
X1436456Y3646629D1*
X1435030Y3648088D1*
X1433571Y3650940D1*
X931671Y2127054D2*
X930245Y2129906D1*
X927360Y2132791D1*
X924508Y2134217D1*
X918771D1*
X915886Y2132791D1*
X913034Y2129906D1*
X911575Y2127054D1*
X910149Y2122743D1*
Y2115547D1*
X911575Y2111269D1*
X913034Y2108384D1*
X915886Y2105532D1*
X918771Y2104073D1*
X924508D1*
X927360Y2105532D1*
X930245Y2108384D1*
X931671Y2111269D1*
X955293Y2104073D2*
Y2134184D1*
X940934Y2114121D1*
X962456D1*
X956751Y1780334D2*
X955325Y1783186D1*
X952440Y1786071D1*
X949588Y1787497D1*
X943851D1*
X940966Y1786071D1*
X938114Y1783186D1*
X936655Y1780334D1*
X935229Y1776023D1*
Y1768827D1*
X936655Y1764549D1*
X938114Y1761664D1*
X940966Y1758812D1*
X943851Y1757353D1*
X949588D1*
X952440Y1758812D1*
X955325Y1761664D1*
X956751Y1764549D1*
X983226Y1787463D2*
X968900D1*
X967474Y1774564D1*
X968900Y1775990D1*
X973211Y1777449D1*
X977489D1*
X981800Y1775990D1*
X984685Y1773138D1*
X986111Y1768827D1*
Y1765975D1*
X984685Y1761664D1*
X981800Y1758779D1*
X977489Y1757353D1*
X973211D1*
X968900Y1758779D1*
X967474Y1760238D1*
X966015Y1763090D1*
X1523460Y3807117D2*
X1520608Y3805691D1*
X1517723Y3802806D1*
X1516297Y3799954D1*
Y3794217D1*
X1517723Y3791332D1*
X1520608Y3788480D1*
X1523460Y3787021D1*
X1527771Y3785595D1*
X1534967D1*
X1539245Y3787021D1*
X1542130Y3788480D1*
X1544982Y3791332D1*
X1546441Y3794217D1*
Y3799954D1*
X1544982Y3802806D1*
X1542130Y3805691D1*
X1539245Y3807117D1*
X1520609Y3833591D2*
X1517757Y3832165D1*
X1516331Y3827854D1*
Y3825002D1*
X1517757Y3820691D1*
X1522068Y3817806D1*
X1529231Y3816380D1*
X1536393D1*
X1542130Y3817806D1*
X1545016Y3820691D1*
X1546441Y3825002D1*
Y3826428D1*
X1545016Y3830706D1*
X1542130Y3833591D1*
X1537819Y3835017D1*
X1536393D1*
X1532082Y3833591D1*
X1529231Y3830706D1*
X1527805Y3826428D1*
Y3825002D1*
X1529231Y3820691D1*
X1532082Y3817806D1*
X1536393Y3816380D1*
X1552190Y4454033D2*
X1550764Y4456885D1*
X1547879Y4459770D1*
X1545027Y4461196D1*
X1539291D1*
X1536405Y4459770D1*
X1533554Y4456885D1*
X1532094Y4454033D1*
X1530668Y4449722D1*
Y4442526D1*
X1532094Y4438248D1*
X1533554Y4435363D1*
X1536405Y4432512D1*
X1539291Y4431052D1*
X1545027D1*
X1547879Y4432512D1*
X1550764Y4435363D1*
X1552190Y4438248D1*
X1567191Y4431052D2*
X1581550Y4461163D1*
X1561454D1*
X1469678Y4568149D2*
X1466826Y4566723D1*
X1463941Y4563838D1*
X1462515Y4560986D1*
Y4555249D1*
X1463941Y4552364D1*
X1466826Y4549512D1*
X1469678Y4548053D1*
X1473989Y4546627D1*
X1481185D1*
X1485463Y4548053D1*
X1488348Y4549512D1*
X1491200Y4552364D1*
X1492659Y4555249D1*
Y4560986D1*
X1491200Y4563838D1*
X1488348Y4566723D1*
X1485463Y4568149D1*
X1462548Y4584576D2*
X1463974Y4580298D1*
X1466826Y4578839D1*
X1469711D1*
X1472563Y4580298D1*
X1474022Y4583150D1*
X1475448Y4588887D1*
X1476874Y4593198D1*
X1479759Y4596050D1*
X1482611Y4597475D1*
X1486922D1*
X1489774Y4596049D1*
X1491233Y4594624D1*
X1492659Y4590313D1*
Y4584576D1*
X1491233Y4580298D1*
X1489774Y4578839D1*
X1486922Y4577413D1*
X1482611D1*
X1479759Y4578839D1*
X1476874Y4581724D1*
X1475448Y4586002D1*
X1474022Y4591738D1*
X1472563Y4594624D1*
X1469711Y4596050D1*
X1466826D1*
X1463974Y4594624D1*
X1462548Y4590313D1*
Y4584576D1*
X943074Y4037904D2*
X941648Y4040755D1*
X938763Y4043641D1*
X935911Y4045066D1*
X930174D1*
X927289Y4043641D1*
X924437Y4040755D1*
X922978Y4037904D1*
X921552Y4033593D1*
Y4026396D1*
X922978Y4022119D1*
X924437Y4019233D1*
X927289Y4016382D1*
X930174Y4014922D1*
X935911D1*
X938763Y4016382D1*
X941648Y4019233D1*
X943074Y4022119D1*
X971008Y4035018D2*
X969548Y4030707D1*
X966697Y4027822D1*
X962386Y4026396D1*
X960960D1*
X956649Y4027822D1*
X953797Y4030707D1*
X952338Y4035018D1*
Y4036444D1*
X953797Y4040755D1*
X956649Y4043607D1*
X960960Y4045033D1*
X962386D1*
X966697Y4043607D1*
X969548Y4040755D1*
X971008Y4035018D1*
Y4027822D1*
X969548Y4020659D1*
X966697Y4016348D1*
X962386Y4014922D1*
X959534D1*
X955223Y4016348D1*
X953797Y4019233D1*
X667245Y3986247D2*
X665819Y3989099D1*
X662934Y3991984D1*
X660082Y3993410D1*
X654345D1*
X651460Y3991984D1*
X648608Y3989099D1*
X647149Y3986247D1*
X645723Y3981936D1*
Y3974740D1*
X647149Y3970462D1*
X648608Y3967577D1*
X651460Y3964725D1*
X654345Y3963266D1*
X660082D1*
X662934Y3964725D1*
X665819Y3967577D1*
X667245Y3970462D1*
X676509Y3987640D2*
X679394Y3989099D1*
X683705Y3993377D1*
Y3963266D1*
X701591Y3993377D2*
X697280Y3991951D1*
X694395Y3987640D1*
X692969Y3980477D1*
Y3976166D1*
X694395Y3969003D1*
X697280Y3964692D1*
X701591Y3963266D1*
X704443D1*
X708754Y3964692D1*
X711605Y3969003D1*
X713065Y3976166D1*
Y3980477D1*
X711605Y3987640D1*
X708754Y3991951D1*
X704443Y3993377D1*
X701591D1*
X711605Y3987640D2*
X694395Y3969003D1*
X1488827Y4076131D2*
X1487401Y4078982D1*
X1484516Y4081868D1*
X1481664Y4083294D1*
X1475927D1*
X1473042Y4081868D1*
X1470190Y4078982D1*
X1468731Y4076131D1*
X1467305Y4071820D1*
Y4064623D1*
X1468731Y4060346D1*
X1470190Y4057461D1*
X1473042Y4054609D1*
X1475927Y4053150D1*
X1481664D1*
X1484516Y4054609D1*
X1487401Y4057461D1*
X1488827Y4060346D1*
X1498090Y4077523D2*
X1500975Y4078982D1*
X1505286Y4083260D1*
Y4053150D1*
X1514550Y4077523D2*
X1517435Y4078982D1*
X1521746Y4083260D1*
Y4053150D1*
X761251Y4239111D2*
X759825Y4241963D1*
X756940Y4244848D1*
X754088Y4246274D1*
X748351D1*
X745466Y4244848D1*
X742614Y4241963D1*
X741155Y4239111D1*
X739729Y4234800D1*
Y4227604D1*
X741155Y4223326D1*
X742614Y4220441D1*
X745466Y4217589D1*
X748351Y4216130D1*
X754088D1*
X756940Y4217589D1*
X759825Y4220441D1*
X761251Y4223326D1*
X770514Y4240504D2*
X773399Y4241963D1*
X777710Y4246241D1*
Y4216130D1*
X788433Y4239078D2*
Y4240504D1*
X789859Y4243389D1*
X791285Y4244815D1*
X794170Y4246241D1*
X799907D1*
X802759Y4244815D1*
X804185Y4243389D1*
X805644Y4240504D1*
Y4237652D1*
X804185Y4234767D1*
X801333Y4230489D1*
X786974Y4216130D1*
X807070D1*
X1619760Y2365868D2*
X1618334Y2368720D1*
X1615449Y2371605D1*
X1612597Y2373031D1*
X1606860D1*
X1603975Y2371605D1*
X1601123Y2368720D1*
X1599664Y2365868D1*
X1598238Y2361557D1*
Y2354361D1*
X1599664Y2350083D1*
X1601123Y2347198D1*
X1603975Y2344346D1*
X1606860Y2342887D1*
X1612597D1*
X1615449Y2344346D1*
X1618334Y2347198D1*
X1619760Y2350083D1*
X1629023Y2367261D2*
X1631908Y2368720D1*
X1636219Y2372998D1*
Y2342887D1*
X1648368Y2372998D2*
X1664120D1*
X1655531Y2361524D1*
X1659842D1*
X1662694Y2360098D1*
X1664120Y2358672D1*
X1665579Y2354361D1*
Y2351509D1*
X1664120Y2347198D1*
X1661268Y2344313D1*
X1656957Y2342887D1*
X1652646D1*
X1648368Y2344313D1*
X1646942Y2345772D1*
X1645483Y2348624D1*
X528750Y4088054D2*
X527324Y4090906D1*
X524439Y4093791D1*
X521587Y4095217D1*
X515850D1*
X512965Y4093791D1*
X510113Y4090906D1*
X508654Y4088054D1*
X507228Y4083743D1*
Y4076547D1*
X508654Y4072269D1*
X510113Y4069384D1*
X512965Y4066533D1*
X515850Y4065073D1*
X521587D1*
X524439Y4066533D1*
X527324Y4069384D1*
X528750Y4072269D1*
X538014Y4089447D2*
X540899Y4090906D1*
X545210Y4095184D1*
Y4065073D1*
X568832D2*
Y4095184D1*
X554473Y4075121D1*
X575995D1*
X1608121Y4313061D2*
X1605269Y4311635D1*
X1602384Y4308750D1*
X1600958Y4305898D1*
Y4300161D1*
X1602384Y4297276D1*
X1605269Y4294424D1*
X1608121Y4292965D1*
X1612432Y4291539D1*
X1619628D1*
X1623906Y4292965D1*
X1626791Y4294424D1*
X1629643Y4297276D1*
X1631102Y4300161D1*
Y4305898D1*
X1629643Y4308749D1*
X1626791Y4311635D1*
X1623906Y4313061D1*
X1606728Y4322324D2*
X1605269Y4325209D1*
X1600991Y4329520D1*
X1631102D1*
X1600991Y4355995D2*
Y4341669D1*
X1613891Y4340243D1*
X1612465Y4341669D1*
X1611006Y4345980D1*
Y4350258D1*
X1612465Y4354569D1*
X1615317Y4357454D1*
X1619628Y4358880D1*
X1622480D1*
X1626791Y4357454D1*
X1629676Y4354569D1*
X1631102Y4350258D1*
Y4345980D1*
X1629676Y4341669D1*
X1628217Y4340243D1*
X1625365Y4338784D1*
X1008985Y2992548D2*
X1007559Y2995400D1*
X1004674Y2998285D1*
X1001823Y2999711D1*
X996086D1*
X993200Y2998285D1*
X990349Y2995400D1*
X988889Y2992548D1*
X987463Y2988237D1*
Y2981041D1*
X988889Y2976763D1*
X990349Y2973878D1*
X993200Y2971026D1*
X996086Y2969567D1*
X1001823D1*
X1004674Y2971026D1*
X1007559Y2973878D1*
X1008985Y2976763D1*
X1018249Y2993941D2*
X1021134Y2995400D1*
X1025445Y2999678D1*
Y2969567D1*
X1051920Y2995400D2*
X1050494Y2998252D1*
X1046183Y2999678D1*
X1043331D1*
X1039020Y2998252D1*
X1036135Y2993941D1*
X1034709Y2986778D1*
Y2979615D1*
X1036135Y2973878D1*
X1039020Y2970993D1*
X1043331Y2969567D1*
X1044757D1*
X1049034Y2970993D1*
X1051920Y2973878D1*
X1053346Y2978189D1*
Y2979615D1*
X1051920Y2983926D1*
X1049034Y2986778D1*
X1044757Y2988204D1*
X1043331D1*
X1039020Y2986778D1*
X1036135Y2983926D1*
X1034709Y2979615D1*
X418227Y3134384D2*
X415375Y3132958D1*
X412490Y3130073D1*
X411064Y3127221D1*
Y3121484D1*
X412490Y3118599D1*
X415375Y3115748D1*
X418227Y3114288D1*
X422538Y3112862D1*
X429734D1*
X434012Y3114288D1*
X436897Y3115748D1*
X439749Y3118599D1*
X441208Y3121484D1*
Y3127221D1*
X439749Y3130073D1*
X436897Y3132958D1*
X434012Y3134384D1*
X416834Y3143648D2*
X415375Y3146533D1*
X411097Y3150844D1*
X441208D1*
Y3165844D2*
X411097Y3180203D1*
Y3160108D1*
X419220Y3219732D2*
X416368Y3218306D1*
X413483Y3215421D1*
X412057Y3212569D1*
Y3206832D1*
X413483Y3203947D1*
X416368Y3201095D1*
X419220Y3199636D1*
X423531Y3198210D1*
X430727D1*
X435005Y3199636D1*
X437890Y3201095D1*
X440742Y3203947D1*
X442201Y3206832D1*
Y3212569D1*
X440742Y3215421D1*
X437890Y3218306D1*
X435005Y3219732D1*
X417827Y3228995D2*
X416368Y3231880D1*
X412090Y3236191D1*
X442201D1*
X412090Y3252618D2*
X413516Y3248340D1*
X416368Y3246881D1*
X419253D1*
X422105Y3248340D1*
X423564Y3251192D1*
X424990Y3256929D1*
X426416Y3261240D1*
X429301Y3264092D1*
X432153Y3265518D1*
X436464D1*
X439316Y3264092D1*
X440775Y3262666D1*
X442201Y3258355D1*
Y3252618D1*
X440775Y3248340D1*
X439316Y3246881D1*
X436464Y3245455D1*
X432153D1*
X429301Y3246881D1*
X426416Y3249766D1*
X424990Y3254044D1*
X423564Y3259781D1*
X422105Y3262666D1*
X419253Y3264092D1*
X416368D1*
X413516Y3262666D1*
X412090Y3258355D1*
Y3252618D1*
X466355Y3547338D2*
X464929Y3550190D1*
X462044Y3553075D1*
X459192Y3554501D1*
X453455D1*
X450570Y3553075D1*
X447718Y3550190D1*
X446259Y3547338D1*
X444833Y3543027D1*
Y3535831D1*
X446259Y3531553D1*
X447718Y3528668D1*
X450570Y3525816D1*
X453455Y3524357D1*
X459192D1*
X462044Y3525816D1*
X464929Y3528668D1*
X466355Y3531553D1*
X475618Y3548731D2*
X478503Y3550190D1*
X482814Y3554468D1*
Y3524357D1*
X510748Y3544453D2*
X509289Y3540142D1*
X506437Y3537257D1*
X502126Y3535831D1*
X500700D1*
X496389Y3537257D1*
X493537Y3540142D1*
X492078Y3544453D1*
Y3545879D1*
X493537Y3550190D1*
X496389Y3553042D1*
X500700Y3554468D1*
X502126D1*
X506437Y3553042D1*
X509289Y3550190D1*
X510748Y3544453D1*
Y3537257D1*
X509289Y3530094D1*
X506437Y3525783D1*
X502126Y3524357D1*
X499274D1*
X494963Y3525783D1*
X493537Y3528668D1*
X596124Y3589022D2*
X594698Y3591874D1*
X591812Y3594759D1*
X588961Y3596185D1*
X583224D1*
X580339Y3594759D1*
X577487Y3591874D1*
X576028Y3589022D1*
X574602Y3584711D1*
Y3577515D1*
X576028Y3573237D1*
X577487Y3570352D1*
X580339Y3567500D1*
X583224Y3566041D1*
X588961D1*
X591812Y3567500D1*
X594698Y3570352D1*
X596124Y3573237D1*
X606846Y3588988D2*
Y3590414D1*
X608272Y3593300D1*
X609698Y3594725D1*
X612583Y3596151D1*
X618320D1*
X621172Y3594725D1*
X622598Y3593300D1*
X624057Y3590414D1*
Y3587563D1*
X622598Y3584677D1*
X619746Y3580400D1*
X605387Y3566041D1*
X625483D1*
X643369Y3596151D2*
X639058Y3594725D1*
X636173Y3590414D1*
X634747Y3583252D1*
Y3578940D1*
X636173Y3571778D1*
X639058Y3567467D1*
X643369Y3566041D1*
X646221D1*
X650532Y3567467D1*
X653383Y3571778D1*
X654843Y3578940D1*
Y3583252D1*
X653383Y3590414D1*
X650532Y3594725D1*
X646221Y3596151D1*
X643369D1*
X653383Y3590414D2*
X636173Y3571778D1*
X466709Y3643578D2*
X465283Y3646430D1*
X462398Y3649315D1*
X459546Y3650741D1*
X453809D1*
X450924Y3649315D1*
X448072Y3646430D1*
X446613Y3643578D1*
X445187Y3639267D1*
Y3632071D1*
X446613Y3627793D1*
X448072Y3624908D1*
X450924Y3622056D1*
X453809Y3620597D1*
X459546D1*
X462398Y3622056D1*
X465283Y3624908D1*
X466709Y3627793D1*
X477431Y3643545D2*
Y3644971D1*
X478857Y3647856D1*
X480283Y3649282D1*
X483168Y3650708D1*
X488905D1*
X491757Y3649282D1*
X493183Y3647856D1*
X494642Y3644971D1*
Y3642119D1*
X493183Y3639234D1*
X490331Y3634956D1*
X475972Y3620597D1*
X496068D1*
X505332Y3644971D2*
X508217Y3646430D1*
X512528Y3650708D1*
Y3620597D1*
X1621968Y3099900D2*
X1620542Y3102752D1*
X1617657Y3105637D1*
X1614806Y3107063D1*
X1609069D1*
X1606183Y3105637D1*
X1603332Y3102752D1*
X1601872Y3099900D1*
X1600446Y3095589D1*
Y3088393D1*
X1601872Y3084115D1*
X1603332Y3081230D1*
X1606183Y3078378D1*
X1609069Y3076919D1*
X1614806D1*
X1617657Y3078378D1*
X1620542Y3081230D1*
X1621968Y3084115D1*
X1632691Y3099867D2*
Y3101293D1*
X1634117Y3104178D1*
X1635543Y3105604D1*
X1638428Y3107029D1*
X1644165D1*
X1647017Y3105604D1*
X1648443Y3104178D1*
X1649902Y3101293D1*
Y3098441D1*
X1648443Y3095556D1*
X1645591Y3091278D1*
X1631232Y3076919D1*
X1651328D1*
X1662051Y3099867D2*
Y3101293D1*
X1663477Y3104178D1*
X1664903Y3105604D1*
X1667788Y3107029D1*
X1673525D1*
X1676377Y3105604D1*
X1677802Y3104178D1*
X1679262Y3101293D1*
Y3098441D1*
X1677802Y3095556D1*
X1674951Y3091278D1*
X1660592Y3076919D1*
X1680688D1*
X1040085Y3567589D2*
X1038659Y3570440D1*
X1035774Y3573326D1*
X1032923Y3574752D1*
X1027186D1*
X1024300Y3573326D1*
X1021449Y3570440D1*
X1019989Y3567589D1*
X1018563Y3563278D1*
Y3556081D1*
X1019989Y3551804D1*
X1021449Y3548919D1*
X1024300Y3546067D1*
X1027186Y3544608D1*
X1032923D1*
X1035774Y3546067D1*
X1038659Y3548919D1*
X1040085Y3551804D1*
X1050808Y3567555D2*
Y3568981D1*
X1052234Y3571866D1*
X1053660Y3573292D1*
X1056545Y3574718D1*
X1062282D1*
X1065134Y3573292D1*
X1066560Y3571866D1*
X1068019Y3568981D1*
Y3566129D1*
X1066560Y3563244D1*
X1063708Y3558967D1*
X1049349Y3544608D1*
X1069445D1*
X1081594Y3574718D2*
X1097345D1*
X1088757Y3563244D1*
X1093068D1*
X1095919Y3561818D1*
X1097345Y3560392D1*
X1098805Y3556081D1*
Y3553230D1*
X1097345Y3548919D1*
X1094494Y3546033D1*
X1090183Y3544608D1*
X1085871D1*
X1081594Y3546033D1*
X1080168Y3547493D1*
X1078709Y3550344D1*
X1274687Y3608745D2*
X1273261Y3611597D1*
X1270376Y3614482D1*
X1267525Y3615908D1*
X1261788D1*
X1258902Y3614482D1*
X1256051Y3611597D1*
X1254591Y3608745D1*
X1253165Y3604434D1*
Y3597238D1*
X1254591Y3592960D1*
X1256051Y3590075D1*
X1258902Y3587223D1*
X1261788Y3585764D1*
X1267525D1*
X1270376Y3587223D1*
X1273261Y3590075D1*
X1274687Y3592960D1*
X1285410Y3608712D2*
Y3610138D1*
X1286836Y3613023D1*
X1288262Y3614449D1*
X1291147Y3615875D1*
X1296884D1*
X1299736Y3614449D1*
X1301162Y3613023D1*
X1302621Y3610138D1*
Y3607286D1*
X1301162Y3604401D1*
X1298310Y3600123D1*
X1283951Y3585764D1*
X1304047D1*
X1327670D2*
Y3615875D1*
X1313311Y3595812D1*
X1334832D1*
X809498Y3482087D2*
X808072Y3484939D1*
X805186Y3487824D1*
X802335Y3489250D1*
X796598D1*
X793713Y3487824D1*
X790861Y3484939D1*
X789402Y3482087D1*
X787976Y3477776D1*
Y3470580D1*
X789402Y3466302D1*
X790861Y3463417D1*
X793713Y3460565D1*
X796598Y3459106D1*
X802335D1*
X805186Y3460565D1*
X808072Y3463417D1*
X809498Y3466302D1*
X820220Y3482054D2*
Y3483480D1*
X821646Y3486365D1*
X823072Y3487791D1*
X825957Y3489217D1*
X831694D1*
X834546Y3487791D1*
X835972Y3486365D1*
X837431Y3483480D1*
Y3480628D1*
X835972Y3477743D1*
X833120Y3473465D1*
X818761Y3459106D1*
X838857D1*
X865332Y3489217D2*
X851006D1*
X849580Y3476317D1*
X851006Y3477743D1*
X855317Y3479202D1*
X859595D1*
X863906Y3477743D1*
X866791Y3474891D1*
X868217Y3470580D1*
Y3467728D1*
X866791Y3463417D1*
X863906Y3460532D1*
X859595Y3459106D1*
X855317D1*
X851006Y3460532D1*
X849580Y3461991D1*
X848121Y3464843D1*
X817870Y3559528D2*
X816444Y3562380D1*
X813559Y3565265D1*
X810707Y3566691D1*
X804970D1*
X802085Y3565265D1*
X799233Y3562380D1*
X797774Y3559528D1*
X796348Y3555217D1*
Y3548021D1*
X797774Y3543743D1*
X799233Y3540858D1*
X802085Y3538006D1*
X804970Y3536547D1*
X810707D1*
X813559Y3538006D1*
X816444Y3540858D1*
X817870Y3543743D1*
X828593Y3559495D2*
Y3560921D1*
X830019Y3563806D1*
X831445Y3565232D1*
X834330Y3566658D1*
X840067D1*
X842919Y3565232D1*
X844345Y3563806D1*
X845804Y3560921D1*
Y3558069D1*
X844345Y3555184D1*
X841493Y3550906D1*
X827134Y3536547D1*
X847230D1*
X873704Y3562380D2*
X872278Y3565232D1*
X867967Y3566658D1*
X865115D1*
X860804Y3565232D1*
X857919Y3560921D1*
X856493Y3553758D1*
Y3546595D1*
X857919Y3540858D1*
X860804Y3537973D1*
X865115Y3536547D1*
X866541D1*
X870819Y3537973D1*
X873704Y3540858D1*
X875130Y3545169D1*
Y3546595D1*
X873704Y3550906D1*
X870819Y3553758D1*
X866541Y3555184D1*
X865115D1*
X860804Y3553758D1*
X857919Y3550906D1*
X856493Y3546595D1*
X430403Y2725042D2*
X427551Y2723616D1*
X424666Y2720731D1*
X423240Y2717879D1*
Y2712142D1*
X424666Y2709257D1*
X427551Y2706405D1*
X430403Y2704946D1*
X434714Y2703520D1*
X441910D1*
X446188Y2704946D1*
X449073Y2706405D1*
X451925Y2709257D1*
X453384Y2712142D1*
Y2717879D1*
X451925Y2720731D1*
X449073Y2723616D1*
X446188Y2725042D1*
X430436Y2735765D2*
X429010D1*
X426125Y2737191D1*
X424699Y2738617D1*
X423273Y2741502D1*
Y2747239D1*
X424699Y2750091D1*
X426125Y2751516D1*
X429010Y2752976D1*
X431862D1*
X434747Y2751516D1*
X439025Y2748665D1*
X453384Y2734305D1*
Y2754401D1*
Y2769402D2*
X423273Y2783761D1*
Y2763665D1*
X898433Y2797652D2*
X897007Y2800503D1*
X894122Y2803389D1*
X891270Y2804815D1*
X885533D1*
X882648Y2803389D1*
X879796Y2800503D1*
X878337Y2797652D1*
X876911Y2793341D1*
Y2786144D1*
X878337Y2781867D1*
X879796Y2778982D1*
X882648Y2776130D1*
X885533Y2774670D1*
X891270D1*
X894122Y2776130D1*
X897007Y2778982D1*
X898433Y2781867D1*
X909155Y2797618D2*
Y2799044D1*
X910581Y2801929D1*
X912007Y2803355D1*
X914892Y2804781D1*
X920629D1*
X923481Y2803355D1*
X924907Y2801929D1*
X926366Y2799044D1*
Y2796192D1*
X924907Y2793307D1*
X922055Y2789030D1*
X907696Y2774670D1*
X927792D1*
X944219Y2804781D2*
X939941Y2803355D1*
X938482Y2800503D1*
Y2797618D1*
X939941Y2794767D1*
X942793Y2793307D1*
X948530Y2791881D1*
X952841Y2790455D1*
X955693Y2787570D1*
X957119Y2784718D1*
Y2780407D1*
X955693Y2777556D1*
X954267Y2776096D1*
X949956Y2774670D1*
X944219D1*
X939941Y2776096D1*
X938482Y2777556D1*
X937056Y2780407D1*
Y2784718D1*
X938482Y2787570D1*
X941367Y2790455D1*
X945645Y2791881D1*
X951382Y2793307D1*
X954267Y2794767D1*
X955693Y2797618D1*
Y2800503D1*
X954267Y2803355D1*
X949956Y2804781D1*
X944219D1*
X487241Y2575792D2*
X484389Y2574366D1*
X481504Y2571481D1*
X480078Y2568629D1*
Y2562892D1*
X481504Y2560007D1*
X484389Y2557155D1*
X487241Y2555696D1*
X491552Y2554270D1*
X498748D1*
X503026Y2555696D1*
X505911Y2557155D1*
X508763Y2560007D1*
X510222Y2562892D1*
Y2568629D1*
X508763Y2571481D1*
X505911Y2574366D1*
X503026Y2575792D1*
X487274Y2586514D2*
X485848D1*
X482963Y2587940D1*
X481537Y2589366D1*
X480111Y2592251D1*
Y2597988D1*
X481537Y2600840D1*
X482963Y2602266D1*
X485848Y2603725D1*
X488700D1*
X491585Y2602266D1*
X495863Y2599414D1*
X510222Y2585055D1*
Y2605151D1*
X490126Y2633085D2*
X494437Y2631626D1*
X497322Y2628774D1*
X498748Y2624463D1*
Y2623037D1*
X497322Y2618726D1*
X494437Y2615874D1*
X490126Y2614415D1*
X488700D1*
X484389Y2615874D1*
X481537Y2618726D1*
X480111Y2623037D1*
Y2624463D1*
X481537Y2628774D1*
X484389Y2631626D1*
X490126Y2633085D1*
X497322D1*
X504485Y2631626D1*
X508796Y2628774D1*
X510222Y2624463D1*
Y2621611D1*
X508796Y2617300D1*
X505911Y2615874D1*
X895406Y2715064D2*
X893980Y2717916D1*
X891095Y2720801D1*
X888243Y2722227D1*
X882506D1*
X879621Y2720801D1*
X876769Y2717916D1*
X875310Y2715064D1*
X873884Y2710753D1*
Y2703557D1*
X875310Y2699279D1*
X876769Y2696394D1*
X879621Y2693542D1*
X882506Y2692083D1*
X888243D1*
X891095Y2693542D1*
X893980Y2696394D1*
X895406Y2699279D1*
X907554Y2722193D2*
X923306D1*
X914717Y2710719D1*
X919028D1*
X921880Y2709294D1*
X923306Y2707868D1*
X924765Y2703557D1*
Y2700705D1*
X923306Y2696394D1*
X920454Y2693509D1*
X916143Y2692083D1*
X911832D1*
X907554Y2693509D1*
X906128Y2694968D1*
X904669Y2697820D1*
X942651Y2722193D2*
X938340Y2720767D1*
X935455Y2716456D1*
X934029Y2709294D1*
Y2704982D1*
X935455Y2697820D1*
X938340Y2693509D1*
X942651Y2692083D1*
X945503D1*
X949814Y2693509D1*
X952666Y2697820D1*
X954125Y2704982D1*
Y2709294D1*
X952666Y2716456D1*
X949814Y2720767D1*
X945503Y2722193D1*
X942651D1*
X952666Y2716456D2*
X935455Y2697820D1*
X674245Y2667380D2*
X672819Y2670232D1*
X669934Y2673117D1*
X667082Y2674543D1*
X661345D1*
X658460Y2673117D1*
X655608Y2670232D1*
X654149Y2667380D1*
X652723Y2663069D1*
Y2655873D1*
X654149Y2651595D1*
X655608Y2648710D1*
X658460Y2645858D1*
X661345Y2644399D1*
X667082D1*
X669934Y2645858D1*
X672819Y2648710D1*
X674245Y2651595D1*
X686394Y2674510D2*
X702146D1*
X693557Y2663036D1*
X697868D1*
X700720Y2661610D1*
X702146Y2660184D1*
X703605Y2655873D1*
Y2653021D1*
X702146Y2648710D1*
X699294Y2645825D1*
X694983Y2644399D1*
X690672D1*
X686394Y2645825D1*
X684968Y2647284D1*
X683509Y2650136D1*
X712868Y2668773D2*
X715754Y2670232D1*
X720065Y2674510D1*
Y2644399D1*
X1526390Y3379158D2*
X1524964Y3382010D1*
X1522079Y3384895D1*
X1519227Y3386321D1*
X1513490D1*
X1510605Y3384895D1*
X1507753Y3382010D1*
X1506294Y3379158D1*
X1504868Y3374847D1*
Y3367651D1*
X1506294Y3363373D1*
X1507753Y3360488D1*
X1510605Y3357636D1*
X1513490Y3356177D1*
X1519227D1*
X1522079Y3357636D1*
X1524964Y3360488D1*
X1526390Y3363373D1*
X1538539Y3386288D2*
X1554290D1*
X1545701Y3374814D1*
X1550012D1*
X1552864Y3373388D1*
X1554290Y3371962D1*
X1555749Y3367651D1*
Y3364799D1*
X1554290Y3360488D1*
X1551438Y3357603D1*
X1547127Y3356177D1*
X1542816D1*
X1538539Y3357603D1*
X1537113Y3359062D1*
X1535653Y3361914D1*
X1566472Y3379125D2*
Y3380551D1*
X1567898Y3383436D1*
X1569324Y3384862D1*
X1572209Y3386288D1*
X1577946D1*
X1580798Y3384862D1*
X1582224Y3383436D1*
X1583683Y3380551D1*
Y3377699D1*
X1582224Y3374814D1*
X1579372Y3370536D1*
X1565013Y3356177D1*
X1585109D1*
X718144Y2078698D2*
X715292Y2077272D1*
X712407Y2074387D1*
X710981Y2071535D1*
Y2065798D1*
X712407Y2062913D1*
X715292Y2060061D1*
X718144Y2058602D1*
X722455Y2057176D1*
X729651D1*
X733929Y2058602D1*
X736814Y2060061D1*
X739666Y2062913D1*
X741125Y2065798D1*
Y2071535D1*
X739666Y2074387D1*
X736814Y2077272D1*
X733929Y2078698D1*
X711014Y2090847D2*
Y2106599D1*
X722488Y2098010D1*
Y2102321D1*
X723914Y2105173D1*
X725340Y2106599D1*
X729651Y2108058D1*
X732503D1*
X736814Y2106599D1*
X739699Y2103747D1*
X741125Y2099436D1*
Y2095125D1*
X739699Y2090847D1*
X738240Y2089421D1*
X735388Y2087962D1*
X711014Y2120206D2*
Y2135958D1*
X722488Y2127369D1*
Y2131680D1*
X723914Y2134532D1*
X725340Y2135958D1*
X729651Y2137417D1*
X732503D1*
X736814Y2135958D1*
X739699Y2133106D1*
X741125Y2128795D1*
Y2124484D1*
X739699Y2120206D1*
X738240Y2118780D1*
X735388Y2117321D1*
X534644Y3278668D2*
X531792Y3277242D1*
X528907Y3274357D1*
X527481Y3271505D1*
Y3265768D1*
X528907Y3262883D1*
X531792Y3260031D1*
X534644Y3258572D1*
X538955Y3257146D1*
X546151D1*
X550429Y3258572D1*
X553314Y3260031D1*
X556166Y3262883D1*
X557625Y3265768D1*
Y3271505D1*
X556166Y3274357D1*
X553314Y3277242D1*
X550429Y3278668D1*
X527514Y3290816D2*
Y3306568D1*
X538988Y3297979D1*
Y3302290D1*
X540414Y3305142D1*
X541840Y3306568D1*
X546151Y3308027D1*
X549003D1*
X553314Y3306568D1*
X556199Y3303716D1*
X557625Y3299405D1*
Y3295094D1*
X556199Y3290816D1*
X554740Y3289390D1*
X551888Y3287931D1*
X557625Y3331650D2*
X527514D1*
X547577Y3317291D1*
Y3338813D1*
X869710Y2448372D2*
X868284Y2451224D1*
X865399Y2454109D1*
X862547Y2455535D1*
X856810D1*
X853925Y2454109D1*
X851073Y2451224D1*
X849614Y2448372D1*
X848188Y2444061D1*
Y2436865D1*
X849614Y2432587D1*
X851073Y2429702D1*
X853925Y2426850D1*
X856810Y2425391D1*
X862547D1*
X865399Y2426850D1*
X868284Y2429702D1*
X869710Y2432587D1*
X881859Y2455502D2*
X897611D1*
X889022Y2444028D1*
X893333D1*
X896185Y2442602D1*
X897611Y2441176D1*
X899070Y2436865D1*
Y2434013D1*
X897611Y2429702D1*
X894759Y2426817D1*
X890448Y2425391D1*
X886137D1*
X881859Y2426817D1*
X880433Y2428276D1*
X878974Y2431128D1*
X925544Y2455502D2*
X911218D1*
X909792Y2442602D1*
X911218Y2444028D1*
X915529Y2445487D1*
X919807D1*
X924118Y2444028D1*
X927003Y2441176D1*
X928429Y2436865D1*
Y2434013D1*
X927003Y2429702D1*
X924118Y2426817D1*
X919807Y2425391D1*
X915529D1*
X911218Y2426817D1*
X909792Y2428276D1*
X908333Y2431128D1*
X790261Y542829D2*
X787409Y541403D1*
X784524Y538518D1*
X783098Y535666D1*
Y529929D1*
X784524Y527044D1*
X787409Y524192D1*
X790261Y522733D1*
X794572Y521307D1*
X801768D1*
X806046Y522733D1*
X808931Y524192D1*
X811783Y527044D1*
X813242Y529929D1*
Y535666D1*
X811783Y538518D1*
X808931Y541403D1*
X806046Y542829D1*
X783131Y554978D2*
Y570730D1*
X794605Y562141D1*
Y566452D1*
X796031Y569304D1*
X797457Y570730D1*
X801768Y572189D1*
X804620D1*
X808931Y570730D1*
X811816Y567878D1*
X813242Y563567D1*
Y559256D1*
X811816Y554978D1*
X810357Y553552D1*
X807505Y552093D1*
X787409Y598663D2*
X784557Y597237D1*
X783131Y592926D1*
Y590074D1*
X784557Y585763D1*
X788868Y582878D1*
X796031Y581452D1*
X803194D1*
X808931Y582878D1*
X811816Y585763D1*
X813242Y590074D1*
Y591500D1*
X811816Y595778D1*
X808931Y598663D1*
X804620Y600089D1*
X803194D1*
X798883Y598663D1*
X796031Y595778D1*
X794605Y591500D1*
Y590074D1*
X796031Y585763D1*
X798883Y582878D1*
X803194Y581452D1*
X579432Y2381246D2*
X578006Y2384098D1*
X575121Y2386983D1*
X572269Y2388409D1*
X566532D1*
X563647Y2386983D1*
X560795Y2384098D1*
X559336Y2381246D1*
X557910Y2376935D1*
Y2369739D1*
X559336Y2365461D1*
X560795Y2362576D1*
X563647Y2359724D1*
X566532Y2358265D1*
X572269D1*
X575121Y2359724D1*
X578006Y2362576D1*
X579432Y2365461D1*
X591581Y2388376D2*
X607332D1*
X598743Y2376902D1*
X603054D1*
X605906Y2375476D1*
X607332Y2374050D1*
X608791Y2369739D1*
Y2366887D1*
X607332Y2362576D1*
X604480Y2359691D1*
X600169Y2358265D1*
X595858D1*
X591581Y2359691D1*
X590155Y2361150D1*
X588695Y2364002D1*
X623792Y2358265D2*
X638151Y2388376D1*
X618055D1*
X1432340Y623485D2*
X1430914Y626337D1*
X1428029Y629222D1*
X1425177Y630648D1*
X1419440D1*
X1416555Y629222D1*
X1413703Y626337D1*
X1412244Y623485D1*
X1410818Y619174D1*
Y611978D1*
X1412244Y607700D1*
X1413703Y604815D1*
X1416555Y601963D1*
X1419440Y600504D1*
X1425177D1*
X1428029Y601963D1*
X1430914Y604815D1*
X1432340Y607700D1*
X1444488Y630615D2*
X1460240D1*
X1451651Y619141D1*
X1455962D1*
X1458814Y617715D1*
X1460240Y616289D1*
X1461699Y611978D1*
Y609126D1*
X1460240Y604815D1*
X1457388Y601930D1*
X1453077Y600504D1*
X1448766D1*
X1444488Y601930D1*
X1443062Y603389D1*
X1441603Y606241D1*
X1478126Y630615D2*
X1473848Y629189D1*
X1472389Y626337D1*
Y623452D1*
X1473848Y620600D1*
X1476700Y619141D1*
X1482437Y617715D1*
X1486748Y616289D1*
X1489600Y613404D1*
X1491026Y610552D1*
Y606241D1*
X1489600Y603389D1*
X1488174Y601930D1*
X1483863Y600504D1*
X1478126D1*
X1473848Y601930D1*
X1472389Y603389D1*
X1470963Y606241D1*
Y610552D1*
X1472389Y613404D1*
X1475274Y616289D1*
X1479552Y617715D1*
X1485289Y619141D1*
X1488174Y620600D1*
X1489600Y623452D1*
Y626337D1*
X1488174Y629189D1*
X1483863Y630615D1*
X1478126D1*
X1461192Y1250368D2*
X1459766Y1253220D1*
X1456881Y1256105D1*
X1454029Y1257531D1*
X1448292D1*
X1445407Y1256105D1*
X1442555Y1253220D1*
X1441096Y1250368D1*
X1439670Y1246057D1*
Y1238861D1*
X1441096Y1234583D1*
X1442555Y1231698D1*
X1445407Y1228846D1*
X1448292Y1227387D1*
X1454029D1*
X1456881Y1228846D1*
X1459766Y1231698D1*
X1461192Y1234583D1*
X1473341Y1257498D2*
X1489093D1*
X1480504Y1246024D1*
X1484815D1*
X1487667Y1244598D1*
X1489093Y1243172D1*
X1490552Y1238861D1*
Y1236009D1*
X1489093Y1231698D1*
X1486241Y1228813D1*
X1481930Y1227387D1*
X1477619D1*
X1473341Y1228813D1*
X1471915Y1230272D1*
X1470456Y1233124D1*
X1518485Y1247483D2*
X1517026Y1243172D1*
X1514174Y1240287D1*
X1509863Y1238861D1*
X1508437D1*
X1504126Y1240287D1*
X1501274Y1243172D1*
X1499815Y1247483D1*
Y1248909D1*
X1501274Y1253220D1*
X1504126Y1256072D1*
X1508437Y1257498D1*
X1509863D1*
X1514174Y1256072D1*
X1517026Y1253220D1*
X1518485Y1247483D1*
Y1240287D1*
X1517026Y1233124D1*
X1514174Y1228813D1*
X1509863Y1227387D1*
X1507011D1*
X1502700Y1228813D1*
X1501274Y1231698D1*
X666517Y626507D2*
X665091Y629359D1*
X662206Y632244D1*
X659354Y633670D1*
X653617D1*
X650732Y632244D1*
X647880Y629359D1*
X646421Y626507D1*
X644995Y622196D1*
Y615000D1*
X646421Y610722D1*
X647880Y607837D1*
X650732Y604985D1*
X653617Y603526D1*
X659354D1*
X662206Y604985D1*
X665091Y607837D1*
X666517Y610722D1*
X690139Y603526D2*
Y633637D1*
X675780Y613574D1*
X697302D1*
X715188Y633637D2*
X710877Y632211D1*
X707992Y627900D1*
X706566Y620737D1*
Y616426D1*
X707992Y609263D1*
X710877Y604952D1*
X715188Y603526D1*
X718040D1*
X722351Y604952D1*
X725203Y609263D1*
X726662Y616426D1*
Y620737D1*
X725203Y627900D1*
X722351Y632211D1*
X718040Y633637D1*
X715188D1*
X725203Y627900D2*
X707992Y609263D1*
X691216Y1250368D2*
X689790Y1253220D1*
X686905Y1256105D1*
X684053Y1257531D1*
X678316D1*
X675431Y1256105D1*
X672579Y1253220D1*
X671120Y1250368D1*
X669694Y1246057D1*
Y1238861D1*
X671120Y1234583D1*
X672579Y1231698D1*
X675431Y1228846D1*
X678316Y1227387D1*
X684053D1*
X686905Y1228846D1*
X689790Y1231698D1*
X691216Y1234583D1*
X714839Y1227387D2*
Y1257498D1*
X700480Y1237435D1*
X722002D1*
X731265Y1251761D2*
X734150Y1253220D1*
X738461Y1257498D1*
Y1227387D1*
X471071Y1779442D2*
X469645Y1782294D1*
X466760Y1785179D1*
X463908Y1786605D1*
X458171D1*
X455286Y1785179D1*
X452434Y1782294D1*
X450975Y1779442D1*
X449549Y1775131D1*
Y1767935D1*
X450975Y1763657D1*
X452434Y1760772D1*
X455286Y1757920D1*
X458171Y1756461D1*
X463908D1*
X466760Y1757920D1*
X469645Y1760772D1*
X471071Y1763657D1*
X494694Y1756461D2*
Y1786572D1*
X480335Y1766509D1*
X501856D1*
X512579Y1779409D2*
Y1780835D1*
X514005Y1783720D1*
X515431Y1785146D1*
X518316Y1786572D1*
X524053D1*
X526905Y1785146D1*
X528331Y1783720D1*
X529790Y1780835D1*
Y1777983D1*
X528331Y1775098D1*
X525479Y1770820D1*
X511120Y1756461D1*
X531216D1*
X458946Y2509725D2*
X457520Y2512577D1*
X454635Y2515462D1*
X451783Y2516888D1*
X446046D1*
X443161Y2515462D1*
X440309Y2512577D1*
X438850Y2509725D1*
X437424Y2505414D1*
Y2498218D1*
X438850Y2493940D1*
X440309Y2491055D1*
X443161Y2488203D1*
X446046Y2486744D1*
X451783D1*
X454635Y2488203D1*
X457520Y2491055D1*
X458946Y2493940D1*
X482569Y2486744D2*
Y2516855D1*
X468210Y2496792D1*
X489731D1*
X501880Y2516855D2*
X517632D1*
X509043Y2505381D1*
X513354D1*
X516206Y2503955D1*
X517632Y2502529D1*
X519091Y2498218D1*
Y2495366D1*
X517632Y2491055D1*
X514780Y2488170D1*
X510469Y2486744D1*
X506158D1*
X501880Y2488170D1*
X500454Y2489629D1*
X498995Y2492481D1*
X1552299Y535048D2*
X1549447Y533622D1*
X1546562Y530737D1*
X1545136Y527885D1*
Y522148D1*
X1546562Y519263D1*
X1549447Y516411D1*
X1552299Y514952D1*
X1556610Y513526D1*
X1563806D1*
X1568084Y514952D1*
X1570969Y516411D1*
X1573821Y519263D1*
X1575280Y522148D1*
Y527885D1*
X1573821Y530737D1*
X1570969Y533622D1*
X1568084Y535048D1*
X1575280Y558670D2*
X1545169D1*
X1565232Y544311D1*
Y565833D1*
X1575280Y589456D2*
X1545169D1*
X1565232Y575097D1*
Y596619D1*
X678763Y1805272D2*
X675911Y1803846D1*
X673026Y1800961D1*
X671600Y1798109D1*
Y1792372D1*
X673026Y1789487D1*
X675911Y1786635D1*
X678763Y1785176D1*
X683074Y1783750D1*
X690270D1*
X694548Y1785176D1*
X697433Y1786635D1*
X700285Y1789487D1*
X701744Y1792372D1*
Y1798109D1*
X700285Y1800961D1*
X697433Y1803846D1*
X694548Y1805272D1*
X701744Y1828895D2*
X671633D1*
X691696Y1814536D1*
Y1836058D1*
X671633Y1862532D2*
Y1848206D1*
X684533Y1846780D1*
X683107Y1848206D1*
X681648Y1852517D1*
Y1856795D1*
X683107Y1861106D1*
X685959Y1863991D1*
X690270Y1865417D1*
X693122D1*
X697433Y1863991D1*
X700318Y1861106D1*
X701744Y1856795D1*
Y1852517D1*
X700318Y1848206D1*
X698859Y1846780D1*
X696007Y1845321D1*
X1665267Y626173D2*
X1663841Y629024D1*
X1660956Y631910D1*
X1658104Y633335D1*
X1652367D1*
X1649482Y631910D1*
X1646630Y629024D1*
X1645171Y626173D1*
X1643745Y621862D1*
Y614665D1*
X1645171Y610388D1*
X1646630Y607503D1*
X1649482Y604651D1*
X1652367Y603191D1*
X1658104D1*
X1660956Y604651D1*
X1663841Y607503D1*
X1665267Y610388D1*
X1688890Y603191D2*
Y633302D1*
X1674531Y613239D1*
X1696053D1*
X1722527Y629024D2*
X1721101Y631876D1*
X1716790Y633302D1*
X1713938D1*
X1709627Y631876D1*
X1706742Y627565D1*
X1705316Y620402D1*
Y613239D1*
X1706742Y607503D1*
X1709627Y604617D1*
X1713938Y603191D1*
X1715364D1*
X1719642Y604617D1*
X1722527Y607503D1*
X1723953Y611814D1*
Y613239D1*
X1722527Y617551D1*
X1719642Y620402D1*
X1715364Y621828D1*
X1713938D1*
X1709627Y620402D1*
X1706742Y617551D1*
X1705316Y613239D1*
X1634766Y1250368D2*
X1633340Y1253220D1*
X1630455Y1256105D1*
X1627603Y1257531D1*
X1621866D1*
X1618981Y1256105D1*
X1616129Y1253220D1*
X1614670Y1250368D1*
X1613244Y1246057D1*
Y1238861D1*
X1614670Y1234583D1*
X1616129Y1231698D1*
X1618981Y1228846D1*
X1621866Y1227387D1*
X1627603D1*
X1630455Y1228846D1*
X1633340Y1231698D1*
X1634766Y1234583D1*
X1658389Y1227387D2*
Y1257498D1*
X1644030Y1237435D1*
X1665552D1*
X1680552Y1227387D2*
X1694911Y1257498D1*
X1674815D1*
X904736Y625368D2*
X903310Y628220D1*
X900424Y631105D1*
X897573Y632531D1*
X891836D1*
X888951Y631105D1*
X886099Y628220D1*
X884640Y625368D1*
X883214Y621057D1*
Y613861D1*
X884640Y609583D1*
X886099Y606698D1*
X888951Y603846D1*
X891836Y602387D1*
X897573D1*
X900424Y603846D1*
X903310Y606698D1*
X904736Y609583D1*
X928358Y602387D2*
Y632498D1*
X913999Y612435D1*
X935521D1*
X951947Y632498D2*
X947670Y631072D1*
X946211Y628220D1*
Y625335D1*
X947670Y622483D1*
X950522Y621024D1*
X956259Y619598D1*
X960570Y618172D1*
X963421Y615287D1*
X964847Y612435D1*
Y608124D1*
X963421Y605272D1*
X961995Y603813D1*
X957684Y602387D1*
X951947D1*
X947670Y603813D1*
X946211Y605272D1*
X944785Y608124D1*
Y612435D1*
X946211Y615287D1*
X949096Y618172D1*
X953373Y619598D1*
X959110Y621024D1*
X961995Y622483D1*
X963421Y625335D1*
Y628220D1*
X961995Y631072D1*
X957684Y632498D1*
X951947D1*
X864936Y1251730D2*
X863510Y1254582D1*
X860625Y1257467D1*
X857773Y1258893D1*
X852036D1*
X849151Y1257467D1*
X846299Y1254582D1*
X844840Y1251730D1*
X843414Y1247419D1*
Y1240223D1*
X844840Y1235945D1*
X846299Y1233060D1*
X849151Y1230208D1*
X852036Y1228749D1*
X857773D1*
X860625Y1230208D1*
X863510Y1233060D1*
X864936Y1235945D1*
X888558Y1228749D2*
Y1258860D1*
X874199Y1238797D1*
X895721D1*
X923655Y1248845D2*
X922196Y1244534D1*
X919344Y1241649D1*
X915033Y1240223D1*
X913607D1*
X909296Y1241649D1*
X906444Y1244534D1*
X904985Y1248845D1*
Y1250271D1*
X906444Y1254582D1*
X909296Y1257434D1*
X913607Y1258860D1*
X915033D1*
X919344Y1257434D1*
X922196Y1254582D1*
X923655Y1248845D1*
Y1241649D1*
X922196Y1234486D1*
X919344Y1230175D1*
X915033Y1228749D1*
X912181D1*
X907870Y1230175D1*
X906444Y1233060D1*
X960763Y1418289D2*
X959337Y1421141D1*
X956452Y1424026D1*
X953600Y1425452D1*
X947863D1*
X944978Y1424026D1*
X942126Y1421141D1*
X940667Y1418289D1*
X939241Y1413978D1*
Y1406782D1*
X940667Y1402504D1*
X942126Y1399619D1*
X944978Y1396767D1*
X947863Y1395308D1*
X953600D1*
X956452Y1396767D1*
X959337Y1399619D1*
X960763Y1402504D1*
X987237Y1425419D2*
X972911D1*
X971485Y1412519D1*
X972911Y1413945D1*
X977222Y1415404D1*
X981500D1*
X985811Y1413945D1*
X988696Y1411093D1*
X990122Y1406782D1*
Y1403930D1*
X988696Y1399619D1*
X985811Y1396734D1*
X981500Y1395308D1*
X977222D1*
X972911Y1396734D1*
X971485Y1398193D1*
X970026Y1401045D1*
X1008008Y1425419D2*
X1003697Y1423993D1*
X1000812Y1419682D1*
X999386Y1412519D1*
Y1408208D1*
X1000812Y1401045D1*
X1003697Y1396734D1*
X1008008Y1395308D1*
X1010860D1*
X1015171Y1396734D1*
X1018023Y1401045D1*
X1019482Y1408208D1*
Y1412519D1*
X1018023Y1419682D1*
X1015171Y1423993D1*
X1010860Y1425419D1*
X1008008D1*
X1018023Y1419682D2*
X1000812Y1401045D1*
X1277566Y1681200D2*
X1276140Y1684052D1*
X1273255Y1686937D1*
X1270403Y1688363D1*
X1264666D1*
X1261781Y1686937D1*
X1258929Y1684052D1*
X1257470Y1681200D1*
X1256044Y1676889D1*
Y1669693D1*
X1257470Y1665415D1*
X1258929Y1662530D1*
X1261781Y1659678D1*
X1264666Y1658219D1*
X1270403D1*
X1273255Y1659678D1*
X1276140Y1662530D1*
X1277566Y1665415D1*
X1304040Y1688330D2*
X1289714D1*
X1288288Y1675430D1*
X1289714Y1676856D1*
X1294025Y1678315D1*
X1298303D1*
X1302614Y1676856D1*
X1305499Y1674004D1*
X1306925Y1669693D1*
Y1666841D1*
X1305499Y1662530D1*
X1302614Y1659645D1*
X1298303Y1658219D1*
X1294025D1*
X1289714Y1659645D1*
X1288288Y1661104D1*
X1286829Y1663956D1*
X1316189Y1682593D2*
X1319074Y1684052D1*
X1323385Y1688330D1*
Y1658219D1*
X793645Y2246569D2*
X792219Y2249421D1*
X789333Y2252306D1*
X786482Y2253732D1*
X780745D1*
X777860Y2252306D1*
X775008Y2249421D1*
X773549Y2246569D1*
X772123Y2242258D1*
Y2235062D1*
X773549Y2230784D1*
X775008Y2227899D1*
X777860Y2225047D1*
X780745Y2223588D1*
X786482D1*
X789333Y2225047D1*
X792219Y2227899D1*
X793645Y2230784D1*
X820119Y2253699D2*
X805793D1*
X804367Y2240799D1*
X805793Y2242225D1*
X810104Y2243684D1*
X814382D1*
X818693Y2242225D1*
X821578Y2239373D1*
X823004Y2235062D1*
Y2232210D1*
X821578Y2227899D1*
X818693Y2225014D1*
X814382Y2223588D1*
X810104D1*
X805793Y2225014D1*
X804367Y2226473D1*
X802908Y2229325D1*
X833727Y2246536D2*
Y2247962D1*
X835153Y2250847D1*
X836579Y2252273D1*
X839464Y2253699D1*
X845201D1*
X848053Y2252273D1*
X849479Y2250847D1*
X850938Y2247962D1*
Y2245110D1*
X849479Y2242225D1*
X846627Y2237947D1*
X832268Y2223588D1*
X852364D1*
X1642861Y2227133D2*
X1641435Y2229985D1*
X1638550Y2232870D1*
X1635698Y2234296D1*
X1629961D1*
X1627076Y2232870D1*
X1624224Y2229985D1*
X1622765Y2227133D1*
X1621339Y2222822D1*
Y2215626D1*
X1622765Y2211348D1*
X1624224Y2208463D1*
X1627076Y2205611D1*
X1629961Y2204152D1*
X1635698D1*
X1638550Y2205611D1*
X1641435Y2208463D1*
X1642861Y2211348D1*
X1669336Y2234263D2*
X1655010D1*
X1653584Y2221363D1*
X1655010Y2222789D1*
X1659321Y2224248D1*
X1663599D1*
X1667910Y2222789D1*
X1670795Y2219937D1*
X1672221Y2215626D1*
Y2212774D1*
X1670795Y2208463D1*
X1667910Y2205578D1*
X1663599Y2204152D1*
X1659321D1*
X1655010Y2205578D1*
X1653584Y2207037D1*
X1652125Y2209889D1*
X1684369Y2234263D2*
X1700121D1*
X1691532Y2222789D1*
X1695843D1*
X1698695Y2221363D1*
X1700121Y2219937D1*
X1701580Y2215626D1*
Y2212774D1*
X1700121Y2208463D1*
X1697269Y2205578D1*
X1692958Y2204152D1*
X1688647D1*
X1684369Y2205578D1*
X1682943Y2207037D1*
X1681484Y2209889D1*
X697602Y1502519D2*
X696176Y1505371D1*
X693291Y1508256D1*
X690439Y1509682D1*
X684702D1*
X681817Y1508256D1*
X678965Y1505371D1*
X677506Y1502519D1*
X676080Y1498208D1*
Y1491012D1*
X677506Y1486734D1*
X678965Y1483849D1*
X681817Y1480997D1*
X684702Y1479538D1*
X690439D1*
X693291Y1480997D1*
X696176Y1483849D1*
X697602Y1486734D1*
X724077Y1509649D2*
X709751D1*
X708325Y1496749D1*
X709751Y1498175D1*
X714062Y1499634D1*
X718340D1*
X722651Y1498175D1*
X725536Y1495323D1*
X726962Y1491012D1*
Y1488160D1*
X725536Y1483849D1*
X722651Y1480964D1*
X718340Y1479538D1*
X714062D1*
X709751Y1480964D1*
X708325Y1482423D1*
X706866Y1485275D1*
X750584Y1479538D2*
Y1509649D1*
X736225Y1489586D1*
X757747D1*
X1848423Y621860D2*
X1846997Y624712D1*
X1844112Y627597D1*
X1841260Y629023D1*
X1835523D1*
X1832638Y627597D1*
X1829786Y624712D1*
X1828327Y621860D1*
X1826901Y617549D1*
Y610353D1*
X1828327Y606075D1*
X1829786Y603190D1*
X1832638Y600338D1*
X1835523Y598879D1*
X1841260D1*
X1844112Y600338D1*
X1846997Y603190D1*
X1848423Y606075D1*
X1874897Y628990D2*
X1860571D1*
X1859145Y616090D1*
X1860571Y617516D1*
X1864882Y618975D1*
X1869160D1*
X1873471Y617516D1*
X1876356Y614664D1*
X1877782Y610353D1*
Y607501D1*
X1876356Y603190D1*
X1873471Y600305D1*
X1869160Y598879D1*
X1864882D1*
X1860571Y600305D1*
X1859145Y601764D1*
X1857686Y604616D1*
X1904257Y628990D2*
X1889931D1*
X1888505Y616090D1*
X1889931Y617516D1*
X1894242Y618975D1*
X1898520D1*
X1902831Y617516D1*
X1905716Y614664D1*
X1907142Y610353D1*
Y607501D1*
X1905716Y603190D1*
X1902831Y600305D1*
X1898520Y598879D1*
X1894242D1*
X1889931Y600305D1*
X1888505Y601764D1*
X1887046Y604616D1*
X1824843Y1537452D2*
X1823417Y1540304D1*
X1820532Y1543189D1*
X1817680Y1544615D1*
X1811943D1*
X1809058Y1543189D1*
X1806206Y1540304D1*
X1804747Y1537452D1*
X1803321Y1533141D1*
Y1525945D1*
X1804747Y1521667D1*
X1806206Y1518782D1*
X1809058Y1515930D1*
X1811943Y1514471D1*
X1817680D1*
X1820532Y1515930D1*
X1823417Y1518782D1*
X1824843Y1521667D1*
X1851317Y1544582D2*
X1836991D1*
X1835565Y1531682D1*
X1836991Y1533108D1*
X1841302Y1534567D1*
X1845580D1*
X1849891Y1533108D1*
X1852776Y1530256D1*
X1854202Y1525945D1*
Y1523093D1*
X1852776Y1518782D1*
X1849891Y1515897D1*
X1845580Y1514471D1*
X1841302D1*
X1836991Y1515897D1*
X1835565Y1517356D1*
X1834106Y1520208D1*
X1880677Y1540304D2*
X1879251Y1543156D1*
X1874940Y1544582D1*
X1872088D1*
X1867777Y1543156D1*
X1864892Y1538845D1*
X1863466Y1531682D1*
Y1524519D1*
X1864892Y1518782D1*
X1867777Y1515897D1*
X1872088Y1514471D1*
X1873514D1*
X1877792Y1515897D1*
X1880677Y1518782D1*
X1882103Y1523093D1*
Y1524519D1*
X1880677Y1528830D1*
X1877792Y1531682D1*
X1873514Y1533108D1*
X1872088D1*
X1867777Y1531682D1*
X1864892Y1528830D1*
X1863466Y1524519D1*
X501255Y626175D2*
X499829Y629027D1*
X496944Y631912D1*
X494092Y633338D1*
X488355D1*
X485470Y631912D1*
X482618Y629027D1*
X481159Y626175D1*
X479733Y621864D1*
Y614668D1*
X481159Y610390D1*
X482618Y607505D1*
X485470Y604653D1*
X488355Y603194D1*
X494092D1*
X496944Y604653D1*
X499829Y607505D1*
X501255Y610390D1*
X527729Y633305D2*
X513403D1*
X511977Y620405D1*
X513403Y621831D1*
X517714Y623290D1*
X521992D1*
X526303Y621831D1*
X529188Y618979D1*
X530614Y614668D1*
Y611816D1*
X529188Y607505D1*
X526303Y604620D1*
X521992Y603194D1*
X517714D1*
X513403Y604620D1*
X511977Y606079D1*
X510518Y608931D1*
X545615Y603194D2*
X559974Y633305D1*
X539878D1*
X518362Y1155085D2*
X516936Y1157937D1*
X514051Y1160822D1*
X511199Y1162248D1*
X505462D1*
X502577Y1160822D1*
X499725Y1157937D1*
X498266Y1155085D1*
X496840Y1150774D1*
Y1143578D1*
X498266Y1139300D1*
X499725Y1136415D1*
X502577Y1133563D1*
X505462Y1132104D1*
X511199D1*
X514051Y1133563D1*
X516936Y1136415D1*
X518362Y1139300D1*
X544836Y1162214D2*
X530510D1*
X529085Y1149315D1*
X530510Y1150740D1*
X534822Y1152200D1*
X539099D1*
X543410Y1150740D1*
X546295Y1147889D1*
X547721Y1143578D1*
Y1140726D1*
X546295Y1136415D1*
X543410Y1133530D1*
X539099Y1132104D1*
X534822D1*
X530510Y1133530D1*
X529085Y1134989D1*
X527625Y1137841D1*
X564148Y1162214D2*
X559870Y1160788D1*
X558411Y1157937D1*
Y1155051D1*
X559870Y1152200D1*
X562722Y1150740D1*
X568459Y1149315D1*
X572770Y1147889D1*
X575622Y1145003D1*
X577048Y1142152D1*
Y1137841D1*
X575622Y1134989D1*
X574196Y1133530D1*
X569885Y1132104D1*
X564148D1*
X559870Y1133530D1*
X558411Y1134989D1*
X556985Y1137841D1*
Y1142152D1*
X558411Y1145003D1*
X561296Y1147889D1*
X565574Y1149315D1*
X571311Y1150740D1*
X574196Y1152200D1*
X575622Y1155051D1*
Y1157937D1*
X574196Y1160788D1*
X569885Y1162214D1*
X564148D1*
X1613941Y503641D2*
X1612516Y506493D1*
X1609630Y509378D1*
X1606779Y510804D1*
X1601042D1*
X1598156Y509378D1*
X1595305Y506493D1*
X1593845Y503641D1*
X1592420Y499330D1*
Y492134D1*
X1593845Y487856D1*
X1595305Y484971D1*
X1598156Y482119D1*
X1601042Y480660D1*
X1606779D1*
X1609630Y482119D1*
X1612516Y484971D1*
X1613941Y487856D1*
X1640416Y510771D2*
X1626090D1*
X1624664Y497871D1*
X1626090Y499297D1*
X1630401Y500756D1*
X1634679D1*
X1638990Y499297D1*
X1641875Y496445D1*
X1643301Y492134D1*
Y489282D1*
X1641875Y484971D1*
X1638990Y482086D1*
X1634679Y480660D1*
X1630401D1*
X1626090Y482086D1*
X1624664Y483545D1*
X1623205Y486397D1*
X1671235Y500756D2*
X1669776Y496445D1*
X1666924Y493560D1*
X1662613Y492134D1*
X1661187D1*
X1656876Y493560D1*
X1654024Y496445D1*
X1652565Y500756D1*
Y502182D1*
X1654024Y506493D1*
X1656876Y509345D1*
X1661187Y510771D1*
X1662613D1*
X1666924Y509345D1*
X1669776Y506493D1*
X1671235Y500756D1*
Y493560D1*
X1669776Y486397D1*
X1666924Y482086D1*
X1662613Y480660D1*
X1659761D1*
X1655450Y482086D1*
X1654024Y484971D1*
X1190343Y505607D2*
X1188917Y508459D1*
X1186032Y511344D1*
X1183180Y512770D1*
X1177443D1*
X1174558Y511344D1*
X1171706Y508459D1*
X1170247Y505607D1*
X1168821Y501296D1*
Y494100D1*
X1170247Y489822D1*
X1171706Y486937D1*
X1174558Y484085D1*
X1177443Y482626D1*
X1183180D1*
X1186032Y484085D1*
X1188917Y486937D1*
X1190343Y489822D1*
X1216817Y508459D2*
X1215391Y511311D1*
X1211080Y512737D1*
X1208228D1*
X1203917Y511311D1*
X1201032Y507000D1*
X1199606Y499837D1*
Y492674D1*
X1201032Y486937D1*
X1203917Y484052D1*
X1208228Y482626D1*
X1209654D1*
X1213932Y484052D1*
X1216817Y486937D1*
X1218243Y491248D1*
Y492674D1*
X1216817Y496985D1*
X1213932Y499837D1*
X1209654Y501263D1*
X1208228D1*
X1203917Y499837D1*
X1201032Y496985D1*
X1199606Y492674D1*
X1236129Y512737D2*
X1231818Y511311D1*
X1228933Y507000D1*
X1227507Y499837D1*
Y495526D1*
X1228933Y488363D1*
X1231818Y484052D1*
X1236129Y482626D1*
X1238981D1*
X1243292Y484052D1*
X1246143Y488363D1*
X1247603Y495526D1*
Y499837D1*
X1246143Y507000D1*
X1243292Y511311D1*
X1238981Y512737D1*
X1236129D1*
X1246143Y507000D2*
X1228933Y488363D1*
X1822768Y1153843D2*
X1821342Y1156695D1*
X1818457Y1159580D1*
X1815605Y1161006D1*
X1809868D1*
X1806983Y1159580D1*
X1804131Y1156695D1*
X1802672Y1153843D1*
X1801246Y1149532D1*
Y1142336D1*
X1802672Y1138058D1*
X1804131Y1135173D1*
X1806983Y1132321D1*
X1809868Y1130862D1*
X1815605D1*
X1818457Y1132321D1*
X1821342Y1135173D1*
X1822768Y1138058D1*
X1849242Y1156695D2*
X1847816Y1159547D1*
X1843505Y1160973D1*
X1840653D1*
X1836342Y1159547D1*
X1833457Y1155236D1*
X1832031Y1148073D1*
Y1140910D1*
X1833457Y1135173D1*
X1836342Y1132288D1*
X1840653Y1130862D1*
X1842079D1*
X1846357Y1132288D1*
X1849242Y1135173D1*
X1850668Y1139484D1*
Y1140910D1*
X1849242Y1145221D1*
X1846357Y1148073D1*
X1842079Y1149499D1*
X1840653D1*
X1836342Y1148073D1*
X1833457Y1145221D1*
X1832031Y1140910D1*
X1859932Y1155236D2*
X1862817Y1156695D1*
X1867128Y1160973D1*
Y1130862D1*
X862178Y3432212D2*
Y3402068D1*
X872226D1*
X876537Y3403527D1*
X879422Y3406379D1*
X880848Y3409264D1*
X882274Y3413542D1*
Y3420738D1*
X880848Y3425049D1*
X879422Y3427901D1*
X876537Y3430786D1*
X872226Y3432212D1*
X862178D1*
X894423Y3432179D2*
X910174D1*
X901586Y3420705D1*
X905897D1*
X908749Y3419279D1*
X910174Y3417853D1*
X911634Y3413542D1*
Y3410690D1*
X910174Y3406379D1*
X907323Y3403494D1*
X903012Y3402068D1*
X898701D1*
X894423Y3403494D1*
X892997Y3404953D1*
X891538Y3407805D1*
X1548526Y2155223D2*
Y2125079D1*
X1558574D1*
X1562885Y2126538D1*
X1565770Y2129390D1*
X1567196Y2132275D1*
X1568622Y2136553D1*
Y2143749D1*
X1567196Y2148060D1*
X1565770Y2150912D1*
X1562885Y2153797D1*
X1558574Y2155223D1*
X1548526D1*
X1579344Y2148027D2*
Y2149452D1*
X1580770Y2152338D1*
X1582196Y2153764D1*
X1585081Y2155189D1*
X1590818D1*
X1593670Y2153764D1*
X1595096Y2152338D1*
X1596555Y2149452D1*
Y2146601D1*
X1595096Y2143716D1*
X1592244Y2139438D1*
X1577885Y2125079D1*
X1597981D1*
X1615867Y2155189D2*
X1611556Y2153764D1*
X1608671Y2149452D1*
X1607245Y2142290D1*
Y2137979D1*
X1608671Y2130816D1*
X1611556Y2126505D1*
X1615867Y2125079D1*
X1618719D1*
X1623030Y2126505D1*
X1625882Y2130816D1*
X1627341Y2137979D1*
Y2142290D1*
X1625882Y2149452D1*
X1623030Y2153764D1*
X1618719Y2155189D1*
X1615867D1*
X1625882Y2149452D2*
X1608671Y2130816D1*
X1743100Y4087279D2*
Y4057135D1*
X1773885Y4080116D2*
X1772459Y4082968D1*
X1769574Y4085853D1*
X1766722Y4087279D1*
X1760985D1*
X1758100Y4085853D1*
X1755248Y4082968D1*
X1753789Y4080116D1*
X1752363Y4075805D1*
Y4068609D1*
X1753789Y4064331D1*
X1755248Y4061446D1*
X1758100Y4058594D1*
X1760985Y4057135D1*
X1766722D1*
X1769574Y4058594D1*
X1772459Y4061446D1*
X1773885Y4064331D1*
X1783149Y4081509D2*
X1786034Y4082968D1*
X1790345Y4087246D1*
Y4057135D1*
X962449Y4673891D2*
Y4643747D1*
X993234Y4666728D2*
X991808Y4669580D1*
X988923Y4672465D1*
X986071Y4673891D1*
X980334D1*
X977449Y4672465D1*
X974597Y4669580D1*
X973138Y4666728D1*
X971712Y4662417D1*
Y4655221D1*
X973138Y4650943D1*
X974597Y4648058D1*
X977449Y4645206D1*
X980334Y4643747D1*
X986071D1*
X988923Y4645206D1*
X991808Y4648058D1*
X993234Y4650943D1*
X1003957Y4666695D2*
Y4668120D1*
X1005383Y4671006D1*
X1006809Y4672432D1*
X1009694Y4673857D1*
X1015431D1*
X1018283Y4672432D1*
X1019709Y4671006D1*
X1021168Y4668120D1*
Y4665269D1*
X1019709Y4662384D1*
X1016857Y4658106D1*
X1002498Y4643747D1*
X1022594D1*
X1542213Y2787005D2*
Y2756861D1*
X1572998Y2779843D2*
X1571572Y2782694D1*
X1568687Y2785579D1*
X1565835Y2787005D1*
X1560098D1*
X1557213Y2785579D1*
X1554361Y2782694D1*
X1552902Y2779843D1*
X1551476Y2775531D1*
Y2768335D1*
X1552902Y2764058D1*
X1554361Y2761172D1*
X1557213Y2758321D1*
X1560098Y2756861D1*
X1565835D1*
X1568687Y2758321D1*
X1571572Y2761172D1*
X1572998Y2764058D1*
X1585147Y2786972D2*
X1600898D1*
X1592310Y2775498D1*
X1596621D1*
X1599473Y2774072D1*
X1600898Y2772646D1*
X1602358Y2768335D1*
Y2765483D1*
X1600898Y2761172D1*
X1598047Y2758287D1*
X1593736Y2756861D1*
X1589425D1*
X1585147Y2758287D1*
X1583721Y2759747D1*
X1582262Y2762598D1*
X1004111Y3978574D2*
Y3948430D1*
X1034897Y3971411D2*
X1033471Y3974263D1*
X1030586Y3977148D1*
X1027734Y3978574D1*
X1021997D1*
X1019112Y3977148D1*
X1016260Y3974263D1*
X1014801Y3971411D1*
X1013375Y3967100D1*
Y3959904D1*
X1014801Y3955626D1*
X1016260Y3952741D1*
X1019112Y3949889D1*
X1021997Y3948430D1*
X1027734D1*
X1030586Y3949889D1*
X1033471Y3952741D1*
X1034897Y3955626D1*
X1058519Y3948430D2*
Y3978541D1*
X1044160Y3958478D1*
X1065682D1*
X750825Y2942754D2*
Y2912610D1*
X781611Y2935591D2*
X780185Y2938443D1*
X777300Y2941328D1*
X774448Y2942754D1*
X768711D1*
X765826Y2941328D1*
X762974Y2938443D1*
X761515Y2935591D1*
X760089Y2931280D1*
Y2924084D1*
X761515Y2919806D1*
X762974Y2916921D1*
X765826Y2914069D1*
X768711Y2912610D1*
X774448D1*
X777300Y2914069D1*
X780185Y2916921D1*
X781611Y2919806D1*
X808085Y2942721D2*
X793760D1*
X792334Y2929821D1*
X793760Y2931247D1*
X798071Y2932706D1*
X802348D1*
X806659Y2931247D1*
X809545Y2928395D1*
X810970Y2924084D1*
Y2921232D1*
X809545Y2916921D1*
X806659Y2914036D1*
X802348Y2912610D1*
X798071D1*
X793760Y2914036D1*
X792334Y2915495D1*
X790874Y2918347D1*
X1670536Y844556D2*
X1700680D1*
X1677699Y875342D2*
X1674847Y873916D1*
X1671962Y871031D1*
X1670536Y868179D1*
Y862442D1*
X1671962Y859557D1*
X1674847Y856705D1*
X1677699Y855246D1*
X1682010Y853820D1*
X1689206D1*
X1693484Y855246D1*
X1696369Y856705D1*
X1699221Y859557D1*
X1700680Y862442D1*
Y868179D1*
X1699221Y871031D1*
X1696369Y873916D1*
X1693484Y875342D1*
X1674847Y901816D2*
X1671995Y900390D1*
X1670569Y896079D1*
Y893227D1*
X1671995Y888916D1*
X1676306Y886031D1*
X1683469Y884605D1*
X1690632D1*
X1696369Y886031D1*
X1699254Y888916D1*
X1700680Y893227D1*
Y894653D1*
X1699254Y898931D1*
X1696369Y901816D1*
X1692058Y903242D1*
X1690632D1*
X1686321Y901816D1*
X1683469Y898931D1*
X1682043Y894653D1*
Y893227D1*
X1683469Y888916D1*
X1686321Y886031D1*
X1690632Y884605D1*
X655205Y855886D2*
X685349D1*
X662368Y886671D2*
X659516Y885245D1*
X656631Y882360D1*
X655205Y879508D1*
Y873771D1*
X656631Y870886D1*
X659516Y868034D1*
X662368Y866575D1*
X666679Y865149D1*
X673875D1*
X678153Y866575D1*
X681038Y868034D1*
X683890Y870886D1*
X685349Y873771D1*
Y879508D1*
X683890Y882360D1*
X681038Y885245D1*
X678153Y886671D1*
X685349Y901672D2*
X655238Y916031D1*
Y895935D1*
X551433Y2078949D2*
X581577D1*
X558596Y2109734D2*
X555744Y2108308D1*
X552859Y2105423D1*
X551433Y2102571D1*
Y2096834D1*
X552859Y2093949D1*
X555744Y2091097D1*
X558596Y2089638D1*
X562907Y2088212D1*
X570103D1*
X574381Y2089638D1*
X577266Y2091097D1*
X580118Y2093949D1*
X581577Y2096834D1*
Y2102571D1*
X580118Y2105423D1*
X577266Y2108308D1*
X574381Y2109734D1*
X551466Y2126161D2*
X552892Y2121883D1*
X555744Y2120424D1*
X558629D1*
X561481Y2121883D1*
X562940Y2124735D1*
X564366Y2130472D1*
X565792Y2134783D1*
X568677Y2137635D1*
X571529Y2139060D1*
X575840D1*
X578692Y2137635D1*
X580151Y2136209D1*
X581577Y2131898D1*
Y2126161D1*
X580151Y2121883D1*
X578692Y2120424D1*
X575840Y2118998D1*
X571529D1*
X568677Y2120424D1*
X565792Y2123309D1*
X564366Y2127587D1*
X562940Y2133324D1*
X561481Y2136209D1*
X558629Y2137635D1*
X555744D1*
X552892Y2136209D1*
X551466Y2131898D1*
Y2126161D1*
X1262317Y1547610D2*
Y1517466D1*
X1293102Y1540447D2*
X1291676Y1543299D1*
X1288791Y1546184D1*
X1285939Y1547610D1*
X1280202D1*
X1277317Y1546184D1*
X1274465Y1543299D1*
X1273006Y1540447D1*
X1271580Y1536136D1*
Y1528940D1*
X1273006Y1524662D1*
X1274465Y1521777D1*
X1277317Y1518925D1*
X1280202Y1517466D1*
X1285939D1*
X1288791Y1518925D1*
X1291676Y1521777D1*
X1293102Y1524662D1*
X1321036Y1537562D2*
X1319577Y1533251D1*
X1316725Y1530366D1*
X1312414Y1528940D1*
X1310988D1*
X1306677Y1530366D1*
X1303825Y1533251D1*
X1302366Y1537562D1*
Y1538988D1*
X1303825Y1543299D1*
X1306677Y1546151D1*
X1310988Y1547577D1*
X1312414D1*
X1316725Y1546151D1*
X1319577Y1543299D1*
X1321036Y1537562D1*
Y1530366D1*
X1319577Y1523203D1*
X1316725Y1518892D1*
X1312414Y1517466D1*
X1309562D1*
X1305251Y1518892D1*
X1303825Y1521777D1*
X1867286Y4521168D2*
Y4498220D1*
X1865860Y4493909D1*
X1864401Y4492483D1*
X1861549Y4491024D1*
X1858664D1*
X1855812Y4492483D1*
X1854386Y4493909D1*
X1852927Y4498220D1*
Y4501072D1*
X1876550Y4505383D2*
X1889483D1*
X1893760Y4506808D1*
X1895220Y4508268D1*
X1896646Y4511120D1*
Y4515431D1*
X1895220Y4518282D1*
X1893760Y4519742D1*
X1889483Y4521168D1*
X1876550D1*
Y4491024D1*
X1905909Y4515397D2*
X1908794Y4516856D1*
X1913105Y4521134D1*
Y4491024D1*
X608179Y4671913D2*
Y4648965D1*
X606753Y4644654D1*
X605293Y4643228D1*
X602442Y4641769D1*
X599556D1*
X596705Y4643228D1*
X595279Y4644654D1*
X593819Y4648965D1*
Y4651817D1*
X617442Y4656128D2*
X630375D1*
X634653Y4657554D1*
X636112Y4659013D1*
X637538Y4661865D1*
Y4666176D1*
X636112Y4669028D1*
X634653Y4670487D1*
X630375Y4671913D1*
X617442D1*
Y4641769D1*
X664013Y4671880D2*
X649687D1*
X648261Y4658980D1*
X649687Y4660406D1*
X653998Y4661865D1*
X658276D1*
X662587Y4660406D1*
X665472Y4657554D1*
X666898Y4653243D1*
Y4650391D1*
X665472Y4646080D1*
X662587Y4643195D1*
X658276Y4641769D1*
X653998D1*
X649687Y4643195D1*
X648261Y4644654D1*
X646802Y4647506D1*
X522237Y4473542D2*
X545185D1*
X549496Y4472116D1*
X550922Y4470657D1*
X552381Y4467805D1*
Y4464920D1*
X550922Y4462068D1*
X549496Y4460642D1*
X545185Y4459183D1*
X542333D1*
X538022Y4482805D2*
Y4495738D1*
X536596Y4500016D1*
X535137Y4501475D1*
X532285Y4502901D1*
X527974D1*
X525122Y4501475D1*
X523663Y4500016D1*
X522237Y4495738D1*
Y4482805D1*
X552381D1*
X526548Y4529376D2*
X523696Y4527950D1*
X522270Y4523639D1*
Y4520787D1*
X523696Y4516476D1*
X528007Y4513591D1*
X535170Y4512165D1*
X542333D1*
X548070Y4513591D1*
X550955Y4516476D1*
X552381Y4520787D1*
Y4522213D1*
X550955Y4526491D1*
X548070Y4529376D1*
X543759Y4530802D1*
X542333D1*
X538022Y4529376D1*
X535170Y4526491D1*
X533744Y4522213D1*
Y4520787D1*
X535170Y4516476D1*
X538022Y4513591D1*
X542333Y4512165D1*
X1156914Y2835484D2*
Y2812536D1*
X1155488Y2808225D1*
X1154029Y2806799D1*
X1151177Y2805340D1*
X1148292D1*
X1145440Y2806799D1*
X1144014Y2808225D1*
X1142555Y2812536D1*
Y2815388D1*
X1166178Y2819699D2*
X1179111D1*
X1183389Y2821125D1*
X1184848Y2822584D1*
X1186274Y2825436D1*
Y2829747D1*
X1184848Y2832599D1*
X1183389Y2834058D1*
X1179111Y2835484D1*
X1166178D1*
Y2805340D1*
X1202700Y2835451D2*
X1198422Y2834025D1*
X1196963Y2831173D1*
Y2828288D1*
X1198422Y2825436D1*
X1201274Y2823977D1*
X1207011Y2822551D1*
X1211322Y2821125D1*
X1214174Y2818240D1*
X1215600Y2815388D1*
Y2811077D1*
X1214174Y2808225D1*
X1212748Y2806766D1*
X1208437Y2805340D1*
X1202700D1*
X1198422Y2806766D1*
X1196963Y2808225D1*
X1195537Y2811077D1*
Y2815388D1*
X1196963Y2818240D1*
X1199848Y2821125D1*
X1204126Y2822551D1*
X1209863Y2823977D1*
X1212748Y2825436D1*
X1214174Y2828288D1*
Y2831173D1*
X1212748Y2834025D1*
X1208437Y2835451D1*
X1202700D1*
X1879072Y3391522D2*
Y3361378D1*
X1896283D1*
X1905546Y3385752D2*
X1908431Y3387211D1*
X1912742Y3391489D1*
Y3361378D1*
X1175390Y1986254D2*
Y1956110D1*
X1192601D1*
X1203323Y1979058D2*
Y1980484D1*
X1204749Y1983369D1*
X1206175Y1984795D1*
X1209060Y1986221D1*
X1214797D1*
X1217649Y1984795D1*
X1219075Y1983369D1*
X1220534Y1980484D1*
Y1977632D1*
X1219075Y1974747D1*
X1216223Y1970469D1*
X1201864Y1956110D1*
X1221960D1*
X1172474Y1885443D2*
Y1855299D1*
X1189685D1*
X1201833Y1885410D2*
X1217585D1*
X1208996Y1873936D1*
X1213307D1*
X1216159Y1872510D1*
X1217585Y1871084D1*
X1219044Y1866773D1*
Y1863921D1*
X1217585Y1859610D1*
X1214733Y1856725D1*
X1210422Y1855299D1*
X1206111D1*
X1201833Y1856725D1*
X1200407Y1858184D1*
X1198948Y1861036D1*
X1705371Y4591871D2*
X1735515D1*
Y4609082D1*
Y4632704D2*
X1705404D1*
X1725467Y4618345D1*
Y4639867D1*
X1760787Y2384435D2*
X1790931D1*
Y2401646D1*
X1760820Y2428121D2*
Y2413795D1*
X1773720Y2412369D1*
X1772294Y2413795D1*
X1770835Y2418106D1*
Y2422384D1*
X1772294Y2426695D1*
X1775146Y2429580D1*
X1779457Y2431006D1*
X1782309D1*
X1786620Y2429580D1*
X1789505Y2426695D1*
X1790931Y2422384D1*
Y2418106D1*
X1789505Y2413795D1*
X1788046Y2412369D1*
X1785194Y2410910D1*
X572428Y3913275D2*
X569576Y3911882D1*
X566691Y3908997D1*
X565265Y3906112D1*
X563806Y3901801D1*
Y3894638D1*
X565265Y3890327D1*
X566691Y3887475D1*
X569576Y3884590D1*
X572428Y3883164D1*
X578165D1*
X581050Y3884590D1*
X583902Y3887475D1*
X585328Y3890327D1*
X586787Y3894638D1*
Y3901801D1*
X585328Y3906112D1*
X583902Y3908997D1*
X581050Y3911882D1*
X578165Y3913275D1*
X572428D1*
X576739Y3888901D2*
X585328Y3880279D1*
X596051Y3907505D2*
X598936Y3908964D1*
X603247Y3913242D1*
Y3883131D1*
X1417852Y4486408D2*
Y4499307D1*
X1416393Y4503619D1*
X1414967Y4505078D1*
X1412115Y4506504D1*
X1409230D1*
X1406378Y4505078D1*
X1404919Y4503619D1*
X1403493Y4499308D1*
Y4486408D1*
X1433637D1*
X1417852Y4496456D2*
X1433637Y4506504D1*
X1403526Y4518652D2*
Y4534404D1*
X1415000Y4525815D1*
Y4530126D1*
X1416426Y4532978D1*
X1417852Y4534404D1*
X1422163Y4535863D1*
X1425015D1*
X1429326Y4534404D1*
X1432211Y4531552D1*
X1433637Y4527241D1*
Y4522930D1*
X1432211Y4518652D1*
X1430752Y4517226D1*
X1427900Y4515767D1*
X588922Y4229345D2*
X601822D1*
X606133Y4230804D1*
X607592Y4232230D1*
X609018Y4235082D1*
Y4237967D1*
X607592Y4240819D1*
X606133Y4242278D1*
X601822Y4243704D1*
X588922D1*
Y4213560D1*
X598970Y4229345D2*
X609018Y4213560D1*
X632640D2*
Y4243671D1*
X618281Y4223608D1*
X639803D1*
X616198Y4081729D2*
Y4094629D1*
X614739Y4098940D1*
X613313Y4100399D1*
X610462Y4101825D1*
X607576D1*
X604725Y4100399D1*
X603265Y4098940D1*
X601839Y4094629D1*
Y4081729D1*
X631983D1*
X616198Y4091777D2*
X631983Y4101825D1*
X601873Y4128300D2*
Y4113974D1*
X614773Y4112548D1*
X613347Y4113974D1*
X611887Y4118285D1*
Y4122563D1*
X613347Y4126874D1*
X616198Y4129759D1*
X620510Y4131185D1*
X623361D1*
X627672Y4129759D1*
X630557Y4126874D1*
X631983Y4122563D1*
Y4118285D1*
X630558Y4113974D1*
X629098Y4112548D1*
X626246Y4111089D1*
X601275Y3744985D2*
Y3757885D1*
X599815Y3762196D1*
X598390Y3763655D1*
X595538Y3765081D1*
X592653D1*
X589801Y3763655D1*
X588342Y3762196D1*
X586916Y3757885D1*
Y3744985D1*
X617060D1*
X601275Y3755033D2*
X617060Y3765081D1*
X591227Y3791555D2*
X588375Y3790129D1*
X586949Y3785818D1*
Y3782966D1*
X588375Y3778655D1*
X592686Y3775770D1*
X599849Y3774344D1*
X607012D1*
X612749Y3775770D1*
X615634Y3778655D1*
X617060Y3782966D1*
Y3784392D1*
X615634Y3788670D1*
X612749Y3791555D1*
X608438Y3792981D1*
X607012D1*
X602701Y3791555D1*
X599849Y3788670D1*
X598423Y3784392D1*
Y3782966D1*
X599849Y3778655D1*
X602701Y3775770D1*
X607012Y3774344D1*
X681864Y4481966D2*
Y4494866D1*
X680405Y4499177D1*
X678979Y4500636D1*
X676127Y4502062D1*
X673242D1*
X670390Y4500636D1*
X668931Y4499177D1*
X667505Y4494866D1*
Y4481966D1*
X697649D1*
X681864Y4492014D2*
X697649Y4502062D1*
X677553Y4529995D2*
X681864Y4528536D1*
X684749Y4525684D1*
X686175Y4521373D1*
Y4519947D1*
X684749Y4515636D1*
X681864Y4512784D1*
X677553Y4511325D1*
X676127D1*
X671816Y4512784D1*
X668964Y4515636D1*
X667538Y4519947D1*
Y4521373D1*
X668964Y4525684D1*
X671816Y4528536D1*
X677553Y4529995D1*
X684749D1*
X691912Y4528536D1*
X696223Y4525684D1*
X697649Y4521373D1*
Y4518521D1*
X696223Y4514210D1*
X693338Y4512784D1*
X867696Y4468469D2*
Y4481369D1*
X866237Y4485680D1*
X864811Y4487139D1*
X861959Y4488565D1*
X859074D1*
X856222Y4487139D1*
X854763Y4485680D1*
X853337Y4481369D1*
Y4468469D1*
X883481D1*
X867696Y4478517D2*
X883481Y4488565D1*
X859107Y4497829D2*
X857648Y4500714D1*
X853370Y4505025D1*
X883481D1*
X853370Y4522910D2*
X854796Y4518599D1*
X859107Y4515714D1*
X866270Y4514288D1*
X870581D1*
X877744Y4515714D1*
X882055Y4518599D1*
X883481Y4522910D1*
Y4525762D1*
X882055Y4530073D1*
X877744Y4532925D1*
X870581Y4534384D1*
X866270D1*
X859107Y4532925D1*
X854796Y4530073D1*
X853370Y4525762D1*
Y4522910D1*
X859107Y4532925D2*
X877744Y4515714D1*
X653930Y2223100D2*
X666830D1*
X671141Y2224559D1*
X672600Y2225985D1*
X674026Y2228837D1*
Y2231722D1*
X672600Y2234574D1*
X671141Y2236033D1*
X666830Y2237459D1*
X653930D1*
Y2207315D1*
X663978Y2223100D2*
X674026Y2207315D1*
X683289Y2231689D2*
X686174Y2233148D1*
X690485Y2237426D1*
Y2207315D1*
X699749Y2231689D2*
X702634Y2233148D1*
X706945Y2237426D1*
Y2207315D1*
X682372Y2571188D2*
X695272D1*
X699583Y2572647D1*
X701042Y2574073D1*
X702468Y2576925D1*
Y2579810D1*
X701042Y2582662D1*
X699583Y2584121D1*
X695272Y2585547D1*
X682372D1*
Y2555403D1*
X692420Y2571188D2*
X702468Y2555403D1*
X711732Y2579777D2*
X714617Y2581236D1*
X718928Y2585514D1*
Y2555403D1*
X729650Y2578351D2*
Y2579777D1*
X731076Y2582662D1*
X732502Y2584088D1*
X735387Y2585514D1*
X741124D1*
X743976Y2584088D1*
X745402Y2582662D1*
X746861Y2579777D1*
Y2576925D1*
X745402Y2574040D1*
X742550Y2569762D1*
X728191Y2555403D1*
X748287D1*
X680948Y1343635D2*
X693848D1*
X698159Y1345094D1*
X699618Y1346520D1*
X701044Y1349372D1*
Y1352257D1*
X699618Y1355109D1*
X698159Y1356568D1*
X693848Y1357994D1*
X680948D1*
Y1327850D1*
X690996Y1343635D2*
X701044Y1327850D1*
X710308Y1352224D2*
X713193Y1353683D1*
X717504Y1357961D1*
Y1327850D1*
X729652Y1357961D2*
X745404D1*
X736815Y1346487D1*
X741126D1*
X743978Y1345061D1*
X745404Y1343635D1*
X746863Y1339324D1*
Y1336472D1*
X745404Y1332161D1*
X742552Y1329276D1*
X738241Y1327850D1*
X733930D1*
X729652Y1329276D1*
X728227Y1330735D1*
X726767Y1333587D1*
X1795407Y1243172D2*
X1808307D1*
X1812618Y1244631D1*
X1814077Y1246057D1*
X1815503Y1248909D1*
Y1251794D1*
X1814077Y1254646D1*
X1812618Y1256105D1*
X1808307Y1257531D1*
X1795407D1*
Y1227387D1*
X1805455Y1243172D2*
X1815503Y1227387D1*
X1824767Y1251761D2*
X1827652Y1253220D1*
X1831963Y1257498D1*
Y1227387D1*
X1855585D2*
Y1257498D1*
X1841226Y1237435D1*
X1862748D1*
X491587Y718172D2*
X504487D1*
X508798Y719631D1*
X510257Y721057D1*
X511683Y723909D1*
Y726794D1*
X510257Y729646D1*
X508798Y731105D1*
X504487Y732531D1*
X491587D1*
Y702387D1*
X501635Y718172D2*
X511683Y702387D1*
X520947Y726761D2*
X523832Y728220D1*
X528143Y732498D1*
Y702387D1*
X554617Y732498D2*
X540292D1*
X538866Y719598D1*
X540292Y721024D1*
X544603Y722483D1*
X548880D1*
X553191Y721024D1*
X556077Y718172D1*
X557503Y713861D1*
Y711009D1*
X556077Y706698D1*
X553191Y703813D1*
X548880Y702387D1*
X544603D1*
X540292Y703813D1*
X538866Y705272D1*
X537407Y708124D1*
X576022Y2491175D2*
X588922D1*
X593233Y2492634D1*
X594692Y2494060D1*
X596118Y2496912D1*
Y2499797D1*
X594692Y2502649D1*
X593233Y2504108D1*
X588922Y2505534D1*
X576022D1*
Y2475390D1*
X586070Y2491175D2*
X596118Y2475390D1*
X605381Y2499764D2*
X608266Y2501223D1*
X612577Y2505501D1*
Y2475390D1*
X639052Y2501223D2*
X637626Y2504075D1*
X633315Y2505501D1*
X630463D1*
X626152Y2504075D1*
X623267Y2499764D1*
X621841Y2492601D1*
Y2485438D1*
X623267Y2479701D1*
X626152Y2476816D1*
X630463Y2475390D1*
X631889D1*
X636167Y2476816D1*
X639052Y2479701D1*
X640478Y2484012D1*
Y2485438D1*
X639052Y2489749D1*
X636167Y2492601D1*
X631889Y2494027D1*
X630463D1*
X626152Y2492601D1*
X623267Y2489749D1*
X621841Y2485438D1*
X1419564Y718172D2*
X1432464D1*
X1436775Y719631D1*
X1438234Y721057D1*
X1439660Y723909D1*
Y726794D1*
X1438234Y729646D1*
X1436775Y731105D1*
X1432464Y732531D1*
X1419564D1*
Y702387D1*
X1429612Y718172D2*
X1439660Y702387D1*
X1448923Y726761D2*
X1451808Y728220D1*
X1456119Y732498D1*
Y702387D1*
X1471120D2*
X1485479Y732498D1*
X1465383D1*
X1446137Y1143172D2*
X1459037D1*
X1463348Y1144631D1*
X1464807Y1146057D1*
X1466233Y1148909D1*
Y1151794D1*
X1464807Y1154646D1*
X1463348Y1156105D1*
X1459037Y1157531D1*
X1446137D1*
Y1127387D1*
X1456185Y1143172D2*
X1466233Y1127387D1*
X1475496Y1151761D2*
X1478381Y1153220D1*
X1482692Y1157498D1*
Y1127387D1*
X1499119Y1157498D2*
X1494841Y1156072D1*
X1493382Y1153220D1*
Y1150335D1*
X1494841Y1147483D1*
X1497693Y1146024D1*
X1503430Y1144598D1*
X1507741Y1143172D1*
X1510593Y1140287D1*
X1512019Y1137435D1*
Y1133124D1*
X1510593Y1130272D1*
X1509167Y1128813D1*
X1504856Y1127387D1*
X1499119D1*
X1494841Y1128813D1*
X1493382Y1130272D1*
X1491956Y1133124D1*
Y1137435D1*
X1493382Y1140287D1*
X1496267Y1143172D1*
X1500545Y1144598D1*
X1506282Y1146024D1*
X1509167Y1147483D1*
X1510593Y1150335D1*
Y1153220D1*
X1509167Y1156072D1*
X1504856Y1157498D1*
X1499119D1*
X655453Y718581D2*
X668352D1*
X672663Y720041D1*
X674123Y721467D1*
X675549Y724318D1*
Y727204D1*
X674123Y730055D1*
X672663Y731515D1*
X668352Y732940D1*
X655453D1*
Y702796D1*
X665501Y718581D2*
X675549Y702796D1*
X684812Y727170D2*
X687697Y728629D1*
X692008Y732907D1*
Y702796D1*
X719942Y722892D2*
X718483Y718581D1*
X715631Y715696D1*
X711320Y714270D1*
X709894D1*
X705583Y715696D1*
X702731Y718581D1*
X701272Y722892D1*
Y724318D1*
X702731Y728629D1*
X705583Y731481D1*
X709894Y732907D1*
X711320D1*
X715631Y731481D1*
X718483Y728629D1*
X719942Y722892D1*
Y715696D1*
X718483Y708533D1*
X715631Y704222D1*
X711320Y702796D1*
X708468D1*
X704157Y704222D1*
X702731Y707108D1*
X664670Y1143172D2*
X677570D1*
X681881Y1144631D1*
X683340Y1146057D1*
X684766Y1148909D1*
Y1151794D1*
X683340Y1154646D1*
X681881Y1156105D1*
X677570Y1157531D1*
X664670D1*
Y1127387D1*
X674718Y1143172D2*
X684766Y1127387D1*
X695489Y1150335D2*
Y1151761D1*
X696915Y1154646D1*
X698341Y1156072D1*
X701226Y1157498D1*
X706963D1*
X709815Y1156072D1*
X711241Y1154646D1*
X712700Y1151761D1*
Y1148909D1*
X711241Y1146024D1*
X708389Y1141746D1*
X694030Y1127387D1*
X714126D1*
X732011Y1157498D2*
X727700Y1156072D1*
X724815Y1151761D1*
X723389Y1144598D1*
Y1140287D1*
X724815Y1133124D1*
X727700Y1128813D1*
X732011Y1127387D1*
X734863D1*
X739174Y1128813D1*
X742026Y1133124D1*
X743485Y1140287D1*
Y1144598D1*
X742026Y1151761D1*
X739174Y1156072D1*
X734863Y1157498D1*
X732011D1*
X742026Y1151761D2*
X724815Y1133124D1*
X615728Y1961189D2*
X628628D1*
X632939Y1962648D1*
X634398Y1964074D1*
X635824Y1966926D1*
Y1969811D1*
X634398Y1972663D1*
X632939Y1974122D1*
X628628Y1975548D1*
X615728D1*
Y1945404D1*
X625776Y1961189D2*
X635824Y1945404D1*
X646546Y1968352D2*
Y1969778D1*
X647972Y1972663D1*
X649398Y1974089D1*
X652283Y1975515D1*
X658020D1*
X660872Y1974089D1*
X662298Y1972663D1*
X663757Y1969778D1*
Y1966926D1*
X662298Y1964041D1*
X659446Y1959763D1*
X645087Y1945404D1*
X665183D1*
X674447Y1969778D2*
X677332Y1971237D1*
X681643Y1975515D1*
Y1945404D1*
X445009Y1943219D2*
X457909D1*
X462220Y1944678D1*
X463679Y1946104D1*
X465105Y1948956D1*
Y1951841D1*
X463679Y1954693D1*
X462220Y1956152D1*
X457909Y1957578D1*
X445009D1*
Y1927434D1*
X455057Y1943219D2*
X465105Y1927434D1*
X475827Y1950382D2*
Y1951808D1*
X477253Y1954693D1*
X478679Y1956119D1*
X481564Y1957545D1*
X487301D1*
X490153Y1956119D1*
X491579Y1954693D1*
X493038Y1951808D1*
Y1948956D1*
X491579Y1946071D1*
X488727Y1941793D1*
X474368Y1927434D1*
X494464D1*
X505187Y1950382D2*
Y1951808D1*
X506613Y1954693D1*
X508039Y1956119D1*
X510924Y1957545D1*
X516661D1*
X519513Y1956119D1*
X520939Y1954693D1*
X522398Y1951808D1*
Y1948956D1*
X520939Y1946071D1*
X518087Y1941793D1*
X503728Y1927434D1*
X523824D1*
X1039505Y716563D2*
X1052405D1*
X1056716Y718022D1*
X1058175Y719448D1*
X1059601Y722300D1*
Y725185D1*
X1058175Y728037D1*
X1056716Y729496D1*
X1052405Y730922D1*
X1039505D1*
Y700778D1*
X1049553Y716563D2*
X1059601Y700778D1*
X1070323Y723726D2*
Y725152D1*
X1071749Y728037D1*
X1073175Y729463D1*
X1076060Y730889D1*
X1081797D1*
X1084649Y729463D1*
X1086075Y728037D1*
X1087534Y725152D1*
Y722300D1*
X1086075Y719415D1*
X1083223Y715137D1*
X1068864Y700778D1*
X1088960D1*
X1101109Y730889D2*
X1116861D1*
X1108272Y719415D1*
X1112583D1*
X1115435Y717989D1*
X1116861Y716563D1*
X1118320Y712252D1*
Y709400D1*
X1116861Y705089D1*
X1114009Y702204D1*
X1109698Y700778D1*
X1105387D1*
X1101109Y702204D1*
X1099683Y703663D1*
X1098224Y706515D1*
X1463155Y493088D2*
X1476055D1*
X1480366Y494547D1*
X1481825Y495973D1*
X1483251Y498825D1*
Y501710D1*
X1481825Y504562D1*
X1480366Y506021D1*
X1476055Y507447D1*
X1463155D1*
Y477303D1*
X1473203Y493088D2*
X1483251Y477303D1*
X1493974Y500251D2*
Y501677D1*
X1495400Y504562D1*
X1496826Y505988D1*
X1499711Y507414D1*
X1505448D1*
X1508300Y505988D1*
X1509726Y504562D1*
X1511185Y501677D1*
Y498825D1*
X1509726Y495940D1*
X1506874Y491662D1*
X1492515Y477303D1*
X1512611D1*
X1536233D2*
Y507414D1*
X1521874Y487351D1*
X1543396D1*
X1238114Y718172D2*
X1251014D1*
X1255325Y719631D1*
X1256784Y721057D1*
X1258210Y723909D1*
Y726794D1*
X1256784Y729646D1*
X1255325Y731105D1*
X1251014Y732531D1*
X1238114D1*
Y702387D1*
X1248162Y718172D2*
X1258210Y702387D1*
X1268932Y725335D2*
Y726761D1*
X1270358Y729646D1*
X1271784Y731072D1*
X1274669Y732498D1*
X1280406D1*
X1283258Y731072D1*
X1284684Y729646D1*
X1286143Y726761D1*
Y723909D1*
X1284684Y721024D1*
X1281832Y716746D1*
X1267473Y702387D1*
X1287569D1*
X1314044Y732498D2*
X1299718D1*
X1298292Y719598D1*
X1299718Y721024D1*
X1304029Y722483D1*
X1308307D1*
X1312618Y721024D1*
X1315503Y718172D1*
X1316929Y713861D1*
Y711009D1*
X1315503Y706698D1*
X1312618Y703813D1*
X1308307Y702387D1*
X1304029D1*
X1299718Y703813D1*
X1298292Y705272D1*
X1296833Y708124D1*
X1265400Y1143172D2*
X1278300D1*
X1282611Y1144631D1*
X1284070Y1146057D1*
X1285496Y1148909D1*
Y1151794D1*
X1284070Y1154646D1*
X1282611Y1156105D1*
X1278300Y1157531D1*
X1265400D1*
Y1127387D1*
X1275448Y1143172D2*
X1285496Y1127387D1*
X1296218Y1150335D2*
Y1151761D1*
X1297644Y1154646D1*
X1299070Y1156072D1*
X1301955Y1157498D1*
X1307692D1*
X1310544Y1156072D1*
X1311970Y1154646D1*
X1313429Y1151761D1*
Y1148909D1*
X1311970Y1146024D1*
X1309118Y1141746D1*
X1294759Y1127387D1*
X1314855D1*
X1341330Y1153220D2*
X1339904Y1156072D1*
X1335593Y1157498D1*
X1332741D1*
X1328430Y1156072D1*
X1325545Y1151761D1*
X1324119Y1144598D1*
Y1137435D1*
X1325545Y1131698D1*
X1328430Y1128813D1*
X1332741Y1127387D1*
X1334167D1*
X1338445Y1128813D1*
X1341330Y1131698D1*
X1342756Y1136009D1*
Y1137435D1*
X1341330Y1141746D1*
X1338445Y1144598D1*
X1334167Y1146024D1*
X1332741D1*
X1328430Y1144598D1*
X1325545Y1141746D1*
X1324119Y1137435D1*
X1071859Y1138782D2*
X1084759D1*
X1089070Y1140241D1*
X1090529Y1141667D1*
X1091955Y1144519D1*
Y1147404D1*
X1090529Y1150256D1*
X1089070Y1151715D1*
X1084759Y1153141D1*
X1071859D1*
Y1122997D1*
X1081907Y1138782D2*
X1091955Y1122997D1*
X1102678Y1145945D2*
Y1147371D1*
X1104104Y1150256D1*
X1105530Y1151682D1*
X1108415Y1153108D1*
X1114152D1*
X1117004Y1151682D1*
X1118430Y1150256D1*
X1119889Y1147371D1*
Y1144519D1*
X1118430Y1141634D1*
X1115578Y1137356D1*
X1101219Y1122997D1*
X1121315D1*
X1136315D2*
X1150674Y1153108D1*
X1130578D1*
X444310Y2311609D2*
X457210D1*
X461521Y2313068D1*
X462980Y2314494D1*
X464406Y2317346D1*
Y2320231D1*
X462980Y2323083D1*
X461521Y2324542D1*
X457210Y2325968D1*
X444310D1*
Y2295824D1*
X454358Y2311609D2*
X464406Y2295824D1*
X475128Y2318772D2*
Y2320198D1*
X476554Y2323083D1*
X477980Y2324509D1*
X480865Y2325935D1*
X486602D1*
X489454Y2324509D1*
X490880Y2323083D1*
X492339Y2320198D1*
Y2317346D1*
X490880Y2314461D1*
X488028Y2310183D1*
X473669Y2295824D1*
X493765D1*
X510192Y2325935D2*
X505914Y2324509D1*
X504455Y2321657D1*
Y2318772D1*
X505914Y2315920D1*
X508766Y2314461D1*
X514503Y2313035D1*
X518814Y2311609D1*
X521666Y2308724D1*
X523092Y2305872D1*
Y2301561D1*
X521666Y2298709D1*
X520240Y2297250D1*
X515929Y2295824D1*
X510192D1*
X505914Y2297250D1*
X504455Y2298709D1*
X503029Y2301561D1*
Y2305872D1*
X504455Y2308724D1*
X507340Y2311609D1*
X511618Y2313035D1*
X517355Y2314461D1*
X520240Y2315920D1*
X521666Y2318772D1*
Y2321657D1*
X520240Y2324509D1*
X515929Y2325935D1*
X510192D1*
X1060336Y618172D2*
X1073236D1*
X1077547Y619631D1*
X1079006Y621057D1*
X1080432Y623909D1*
Y626794D1*
X1079006Y629646D1*
X1077547Y631105D1*
X1073236Y632531D1*
X1060336D1*
Y602387D1*
X1070384Y618172D2*
X1080432Y602387D1*
X1091155Y625335D2*
Y626761D1*
X1092581Y629646D1*
X1094006Y631072D1*
X1096892Y632498D1*
X1102629D1*
X1105480Y631072D1*
X1106906Y629646D1*
X1108366Y626761D1*
Y623909D1*
X1106906Y621024D1*
X1104054Y616746D1*
X1089695Y602387D1*
X1109791D1*
X1137725Y622483D2*
X1136266Y618172D1*
X1133414Y615287D1*
X1129103Y613861D1*
X1127677D1*
X1123366Y615287D1*
X1120514Y618172D1*
X1119055Y622483D1*
Y623909D1*
X1120514Y628220D1*
X1123366Y631072D1*
X1127677Y632498D1*
X1129103D1*
X1133414Y631072D1*
X1136266Y628220D1*
X1137725Y622483D1*
Y615287D1*
X1136266Y608124D1*
X1133414Y603813D1*
X1129103Y602387D1*
X1126251D1*
X1121940Y603813D1*
X1120514Y606698D1*
X1238114Y618172D2*
X1251014D1*
X1255325Y619631D1*
X1256784Y621057D1*
X1258210Y623909D1*
Y626794D1*
X1256784Y629646D1*
X1255325Y631105D1*
X1251014Y632531D1*
X1238114D1*
Y602387D1*
X1248162Y618172D2*
X1258210Y602387D1*
X1270358Y632498D2*
X1286110D1*
X1277521Y621024D1*
X1281832D1*
X1284684Y619598D1*
X1286110Y618172D1*
X1287569Y613861D1*
Y611009D1*
X1286110Y606698D1*
X1283258Y603813D1*
X1278947Y602387D1*
X1274636D1*
X1270358Y603813D1*
X1268932Y605272D1*
X1267473Y608124D1*
X1305455Y632498D2*
X1301144Y631072D1*
X1298259Y626761D1*
X1296833Y619598D1*
Y615287D1*
X1298259Y608124D1*
X1301144Y603813D1*
X1305455Y602387D1*
X1308307D1*
X1312618Y603813D1*
X1315470Y608124D1*
X1316929Y615287D1*
Y619598D1*
X1315470Y626761D1*
X1312618Y631072D1*
X1308307Y632498D1*
X1305455D1*
X1315470Y626761D2*
X1298259Y608124D1*
X1647677Y718172D2*
X1660576D1*
X1664887Y719631D1*
X1666347Y721057D1*
X1667773Y723909D1*
Y726794D1*
X1666347Y729646D1*
X1664887Y731105D1*
X1660576Y732531D1*
X1647677D1*
Y702387D1*
X1657725Y718172D2*
X1667773Y702387D1*
X1679921Y732498D2*
X1695673D1*
X1687084Y721024D1*
X1691395D1*
X1694247Y719598D1*
X1695673Y718172D1*
X1697132Y713861D1*
Y711009D1*
X1695673Y706698D1*
X1692821Y703813D1*
X1688510Y702387D1*
X1684199D1*
X1679921Y703813D1*
X1678495Y705272D1*
X1677036Y708124D1*
X1706396Y726761D2*
X1709281Y728220D1*
X1713592Y732498D1*
Y702387D1*
X1614670Y1143172D2*
X1627570D1*
X1631881Y1144631D1*
X1633340Y1146057D1*
X1634766Y1148909D1*
Y1151794D1*
X1633340Y1154646D1*
X1631881Y1156105D1*
X1627570Y1157531D1*
X1614670D1*
Y1127387D1*
X1624718Y1143172D2*
X1634766Y1127387D1*
X1646915Y1157498D2*
X1662667D1*
X1654078Y1146024D1*
X1658389D1*
X1661241Y1144598D1*
X1662667Y1143172D1*
X1664126Y1138861D1*
Y1136009D1*
X1662667Y1131698D1*
X1659815Y1128813D1*
X1655504Y1127387D1*
X1651193D1*
X1646915Y1128813D1*
X1645489Y1130272D1*
X1644030Y1133124D1*
X1674848Y1150335D2*
Y1151761D1*
X1676274Y1154646D1*
X1677700Y1156072D1*
X1680585Y1157498D1*
X1686322D1*
X1689174Y1156072D1*
X1690600Y1154646D1*
X1692059Y1151761D1*
Y1148909D1*
X1690600Y1146024D1*
X1687748Y1141746D1*
X1673389Y1127387D1*
X1693485D1*
X1264670Y1243172D2*
X1277570D1*
X1281881Y1244631D1*
X1283340Y1246057D1*
X1284766Y1248909D1*
Y1251794D1*
X1283340Y1254646D1*
X1281881Y1256105D1*
X1277570Y1257531D1*
X1264670D1*
Y1227387D1*
X1274718Y1243172D2*
X1284766Y1227387D1*
X1296915Y1257498D2*
X1312667D1*
X1304078Y1246024D1*
X1308389D1*
X1311241Y1244598D1*
X1312667Y1243172D1*
X1314126Y1238861D1*
Y1236009D1*
X1312667Y1231698D1*
X1309815Y1228813D1*
X1305504Y1227387D1*
X1301193D1*
X1296915Y1228813D1*
X1295489Y1230272D1*
X1294030Y1233124D1*
X1326274Y1257498D2*
X1342026D1*
X1333437Y1246024D1*
X1337748D1*
X1340600Y1244598D1*
X1342026Y1243172D1*
X1343485Y1238861D1*
Y1236009D1*
X1342026Y1231698D1*
X1339174Y1228813D1*
X1334863Y1227387D1*
X1330552D1*
X1326274Y1228813D1*
X1324848Y1230272D1*
X1323389Y1233124D1*
X883910Y718172D2*
X896810D1*
X901121Y719631D1*
X902580Y721057D1*
X904006Y723909D1*
Y726794D1*
X902580Y729646D1*
X901121Y731105D1*
X896810Y732531D1*
X883910D1*
Y702387D1*
X893958Y718172D2*
X904006Y702387D1*
X916155Y732498D2*
X931906D1*
X923317Y721024D1*
X927629D1*
X930480Y719598D1*
X931906Y718172D1*
X933366Y713861D1*
Y711009D1*
X931906Y706698D1*
X929054Y703813D1*
X924743Y702387D1*
X920432D1*
X916155Y703813D1*
X914729Y705272D1*
X913269Y708124D1*
X956988Y702387D2*
Y732498D1*
X942629Y712435D1*
X964151D1*
X865203Y1144770D2*
X878103D1*
X882414Y1146230D1*
X883873Y1147656D1*
X885299Y1150507D1*
Y1153392D1*
X883873Y1156244D1*
X882414Y1157704D1*
X878103Y1159129D1*
X865203D1*
Y1128985D1*
X875251Y1144770D2*
X885299Y1128985D1*
X897448Y1159096D2*
X913199D1*
X904611Y1147622D1*
X908922D1*
X911773Y1146196D1*
X913199Y1144770D1*
X914659Y1140459D1*
Y1137608D1*
X913199Y1133296D1*
X910348Y1130411D1*
X906036Y1128985D1*
X901725D1*
X897448Y1130411D1*
X896022Y1131871D1*
X894563Y1134722D1*
X941133Y1159096D2*
X926807D1*
X925381Y1146196D1*
X926807Y1147622D1*
X931118Y1149081D1*
X935396D1*
X939707Y1147622D1*
X942592Y1144770D1*
X944018Y1140459D1*
Y1137608D1*
X942592Y1133296D1*
X939707Y1130411D1*
X935396Y1128985D1*
X931118D1*
X926807Y1130411D1*
X925381Y1131871D1*
X923922Y1134722D1*
X1066475Y1240610D2*
X1079374D1*
X1083685Y1242069D1*
X1085145Y1243495D1*
X1086571Y1246347D1*
Y1249232D1*
X1085145Y1252084D1*
X1083685Y1253543D1*
X1079374Y1254969D1*
X1066475D1*
Y1224825D1*
X1076523Y1240610D2*
X1086571Y1224825D1*
X1098719Y1254936D2*
X1114471D1*
X1105882Y1243462D1*
X1110193D1*
X1113045Y1242036D1*
X1114471Y1240610D1*
X1115930Y1236299D1*
Y1233447D1*
X1114471Y1229136D1*
X1111619Y1226251D1*
X1107308Y1224825D1*
X1102997D1*
X1098719Y1226251D1*
X1097293Y1227710D1*
X1095834Y1230562D1*
X1142405Y1250658D2*
X1140979Y1253510D1*
X1136668Y1254936D1*
X1133816D1*
X1129505Y1253510D1*
X1126620Y1249199D1*
X1125194Y1242036D1*
Y1234873D1*
X1126620Y1229136D1*
X1129505Y1226251D1*
X1133816Y1224825D1*
X1135242D1*
X1139519Y1226251D1*
X1142405Y1229136D1*
X1143831Y1233447D1*
Y1234873D1*
X1142405Y1239184D1*
X1139519Y1242036D1*
X1135242Y1243462D1*
X1133816D1*
X1129505Y1242036D1*
X1126620Y1239184D1*
X1125194Y1234873D1*
X937666Y1479138D2*
X950566D1*
X954877Y1480597D1*
X956336Y1482023D1*
X957762Y1484875D1*
Y1487760D1*
X956336Y1490612D1*
X954877Y1492071D1*
X950566Y1493497D1*
X937666D1*
Y1463353D1*
X947714Y1479138D2*
X957762Y1463353D1*
X969911Y1493464D2*
X985663D1*
X977074Y1481990D1*
X981385D1*
X984237Y1480564D1*
X985663Y1479138D1*
X987122Y1474827D1*
Y1471975D1*
X985663Y1467664D1*
X982811Y1464779D1*
X978500Y1463353D1*
X974189D1*
X969911Y1464779D1*
X968485Y1466238D1*
X967026Y1469090D1*
X1002122Y1463353D2*
X1016481Y1493464D1*
X996385D1*
X821608Y513816D2*
X834508D1*
X838819Y515275D1*
X840278Y516701D1*
X841704Y519553D1*
Y522438D1*
X840278Y525290D1*
X838819Y526749D1*
X834508Y528175D1*
X821608D1*
Y498031D1*
X831656Y513816D2*
X841704Y498031D1*
X853853Y528142D2*
X869604D1*
X861016Y516668D1*
X865327D1*
X868178Y515242D1*
X869604Y513816D1*
X871064Y509505D1*
Y506653D1*
X869604Y502342D1*
X866753Y499457D1*
X862442Y498031D1*
X858130D1*
X853853Y499457D1*
X852427Y500916D1*
X850968Y503768D1*
X887490Y528142D2*
X883212Y526716D1*
X881753Y523864D1*
Y520979D1*
X883212Y518127D1*
X886064Y516668D1*
X891801Y515242D1*
X896112Y513816D1*
X898964Y510931D1*
X900390Y508079D1*
Y503768D1*
X898964Y500916D1*
X897538Y499457D1*
X893227Y498031D1*
X887490D1*
X883212Y499457D1*
X881753Y500916D1*
X880327Y503768D1*
Y508079D1*
X881753Y510931D1*
X884638Y513816D1*
X888916Y515242D1*
X894653Y516668D1*
X897538Y518127D1*
X898964Y520979D1*
Y523864D1*
X897538Y526716D1*
X893227Y528142D1*
X887490D1*
X797858Y1434707D2*
X810758D1*
X815069Y1436167D1*
X816528Y1437593D1*
X817954Y1440444D1*
Y1443329D1*
X816528Y1446181D1*
X815069Y1447641D1*
X810758Y1449066D1*
X797858D1*
Y1418922D1*
X807906Y1434707D2*
X817954Y1418922D1*
X830103Y1449033D2*
X845855D1*
X837266Y1437559D1*
X841577D1*
X844429Y1436133D1*
X845855Y1434707D1*
X847314Y1430396D1*
Y1427545D1*
X845855Y1423233D1*
X843003Y1420348D1*
X838692Y1418922D1*
X834381D1*
X830103Y1420348D1*
X828677Y1421808D1*
X827218Y1424659D1*
X875247Y1439018D2*
X873788Y1434707D1*
X870936Y1431822D1*
X866625Y1430396D1*
X865199D1*
X860888Y1431822D1*
X858036Y1434707D1*
X856577Y1439018D1*
Y1440444D1*
X858036Y1444755D1*
X860888Y1447607D1*
X865199Y1449033D1*
X866625D1*
X870936Y1447607D1*
X873788Y1444755D1*
X875247Y1439018D1*
Y1431822D1*
X873788Y1424659D1*
X870936Y1420348D1*
X866625Y1418922D1*
X863773D1*
X859462Y1420348D1*
X858036Y1423233D1*
X1815514Y718172D2*
X1828414D1*
X1832725Y719631D1*
X1834184Y721057D1*
X1835610Y723909D1*
Y726794D1*
X1834184Y729646D1*
X1832725Y731105D1*
X1828414Y732531D1*
X1815514D1*
Y702387D1*
X1825562Y718172D2*
X1835610Y702387D1*
X1859232D2*
Y732498D1*
X1844873Y712435D1*
X1866395D1*
X1884281Y732498D2*
X1879970Y731072D1*
X1877085Y726761D1*
X1875659Y719598D1*
Y715287D1*
X1877085Y708124D1*
X1879970Y703813D1*
X1884281Y702387D1*
X1887133D1*
X1891444Y703813D1*
X1894296Y708124D1*
X1895755Y715287D1*
Y719598D1*
X1894296Y726761D1*
X1891444Y731072D1*
X1887133Y732498D1*
X1884281D1*
X1894296Y726761D2*
X1877085Y708124D1*
X1628872Y1518172D2*
X1641772D1*
X1646083Y1519631D1*
X1647542Y1521057D1*
X1648968Y1523909D1*
Y1526794D1*
X1647542Y1529646D1*
X1646083Y1531105D1*
X1641772Y1532531D1*
X1628872D1*
Y1502387D1*
X1638920Y1518172D2*
X1648968Y1502387D1*
X1672590D2*
Y1532498D1*
X1658231Y1512435D1*
X1679753D1*
X1689017Y1526761D2*
X1691902Y1528220D1*
X1696213Y1532498D1*
Y1502387D1*
X622465Y1640589D2*
X635365D1*
X639676Y1642048D1*
X641135Y1643474D1*
X642561Y1646326D1*
Y1649211D1*
X641135Y1652063D1*
X639676Y1653522D1*
X635365Y1654948D1*
X622465D1*
Y1624804D1*
X632513Y1640589D2*
X642561Y1624804D1*
X666184D2*
Y1654915D1*
X651825Y1634852D1*
X673347D1*
X699821Y1654915D2*
X685495D1*
X684069Y1642015D1*
X685495Y1643441D1*
X689806Y1644900D1*
X694084D1*
X698395Y1643441D1*
X701280Y1640589D1*
X702706Y1636278D1*
Y1633426D1*
X701280Y1629115D1*
X698395Y1626230D1*
X694084Y1624804D1*
X689806D1*
X685495Y1626230D1*
X684069Y1627689D1*
X682610Y1630541D1*
X439221Y1645881D2*
X452121D1*
X456432Y1647340D1*
X457891Y1648766D1*
X459317Y1651618D1*
Y1654503D1*
X457891Y1657355D1*
X456432Y1658814D1*
X452121Y1660240D1*
X439221D1*
Y1630096D1*
X449269Y1645881D2*
X459317Y1630096D1*
X482939D2*
Y1660207D1*
X468580Y1640144D1*
X490102D1*
X516577Y1655929D2*
X515151Y1658781D1*
X510840Y1660207D1*
X507988D1*
X503677Y1658781D1*
X500792Y1654470D1*
X499366Y1647307D1*
Y1640144D1*
X500792Y1634407D1*
X503677Y1631522D1*
X507988Y1630096D1*
X509414D1*
X513692Y1631522D1*
X516577Y1634407D1*
X518003Y1638718D1*
Y1640144D1*
X516577Y1644455D1*
X513692Y1647307D1*
X509414Y1648733D1*
X507988D1*
X503677Y1647307D1*
X500792Y1644455D1*
X499366Y1640144D1*
X441107Y1534896D2*
X454007D1*
X458318Y1536356D1*
X459777Y1537781D1*
X461203Y1540633D1*
Y1543518D1*
X459777Y1546370D1*
X458318Y1547829D1*
X454007Y1549255D1*
X441107D1*
Y1519111D1*
X451155Y1534896D2*
X461203Y1519111D1*
X484825D2*
Y1549222D1*
X470466Y1529159D1*
X491988D1*
X506989Y1519111D2*
X521348Y1549222D1*
X501252D1*
X1250508Y1749746D2*
X1263408D1*
X1267719Y1751205D1*
X1269178Y1752631D1*
X1270604Y1755482D1*
Y1758368D1*
X1269178Y1761219D1*
X1267719Y1762679D1*
X1263408Y1764105D1*
X1250508D1*
Y1733961D1*
X1260556Y1749746D2*
X1270604Y1733961D1*
X1294226D2*
Y1764071D1*
X1279867Y1744009D1*
X1301389D1*
X1317816Y1764071D2*
X1313538Y1762645D1*
X1312079Y1759794D1*
Y1756908D1*
X1313538Y1754057D1*
X1316390Y1752597D1*
X1322127Y1751171D1*
X1326438Y1749746D1*
X1329290Y1746860D1*
X1330716Y1744009D1*
Y1739698D1*
X1329290Y1736846D1*
X1327864Y1735386D1*
X1323553Y1733961D1*
X1317816D1*
X1313538Y1735386D1*
X1312079Y1736846D1*
X1310653Y1739698D1*
Y1744009D1*
X1312079Y1746860D1*
X1314964Y1749746D1*
X1319242Y1751171D1*
X1324979Y1752597D1*
X1327864Y1754057D1*
X1329290Y1756908D1*
Y1759794D1*
X1327864Y1762645D1*
X1323553Y1764071D1*
X1317816D1*
X1068864Y946568D2*
X1081764D1*
X1086075Y948027D1*
X1087534Y949453D1*
X1088960Y952305D1*
Y955190D1*
X1087534Y958042D1*
X1086075Y959501D1*
X1081764Y960927D1*
X1068864D1*
Y930783D1*
X1078912Y946568D2*
X1088960Y930783D1*
X1112583D2*
Y960894D1*
X1098224Y940831D1*
X1119746D1*
X1147679Y950879D2*
X1146220Y946568D1*
X1143368Y943683D1*
X1139057Y942257D1*
X1137631D1*
X1133320Y943683D1*
X1130469Y946568D1*
X1129009Y950879D1*
Y952305D1*
X1130469Y956616D1*
X1133320Y959468D1*
X1137631Y960894D1*
X1139057D1*
X1143368Y959468D1*
X1146220Y956616D1*
X1147679Y950879D1*
Y943683D1*
X1146220Y936520D1*
X1143368Y932209D1*
X1139057Y930783D1*
X1136206D1*
X1131895Y932209D1*
X1130469Y935094D1*
X1212993Y848668D2*
X1225893D1*
X1230204Y850127D1*
X1231663Y851553D1*
X1233089Y854405D1*
Y857290D1*
X1231663Y860142D1*
X1230204Y861601D1*
X1225893Y863027D1*
X1212993D1*
Y832883D1*
X1223041Y848668D2*
X1233089Y832883D1*
X1259563Y862994D2*
X1245238D1*
X1243812Y850094D1*
X1245238Y851520D1*
X1249549Y852979D1*
X1253827D1*
X1258138Y851520D1*
X1261023Y848668D1*
X1262449Y844357D1*
Y841505D1*
X1261023Y837194D1*
X1258138Y834309D1*
X1253827Y832883D1*
X1249549D1*
X1245238Y834309D1*
X1243812Y835768D1*
X1242353Y838620D1*
X1280334Y862994D2*
X1276023Y861568D1*
X1273138Y857257D1*
X1271712Y850094D1*
Y845783D1*
X1273138Y838620D1*
X1276023Y834309D1*
X1280334Y832883D1*
X1283186D1*
X1287497Y834309D1*
X1290349Y838620D1*
X1291808Y845783D1*
Y850094D1*
X1290349Y857257D1*
X1287497Y861568D1*
X1283186Y862994D1*
X1280334D1*
X1290349Y857257D2*
X1273138Y838620D1*
X1186511Y1031322D2*
X1199411D1*
X1203722Y1032781D1*
X1205181Y1034207D1*
X1206607Y1037059D1*
Y1039944D1*
X1205181Y1042796D1*
X1203722Y1044255D1*
X1199411Y1045681D1*
X1186511D1*
Y1015537D1*
X1196559Y1031322D2*
X1206607Y1015537D1*
X1233082Y1045647D2*
X1218756D1*
X1217330Y1032748D1*
X1218756Y1034174D1*
X1223067Y1035633D1*
X1227345D1*
X1231656Y1034174D1*
X1234541Y1031322D1*
X1235967Y1027011D1*
Y1024159D1*
X1234541Y1019848D1*
X1231656Y1016963D1*
X1227345Y1015537D1*
X1223067D1*
X1218756Y1016963D1*
X1217330Y1018422D1*
X1215871Y1021274D1*
X1245230Y1039911D2*
X1248115Y1041370D1*
X1252426Y1045647D1*
Y1015537D1*
X956458Y4236423D2*
D80*
Y4156039D1*
X990946D1*
X1002442Y4159930D1*
X1006245Y4163732D1*
X1010047Y4171337D1*
Y4182833D1*
X1006245Y4190527D1*
X1002442Y4194329D1*
X990946Y4198132D1*
X1002442Y4202023D1*
X1006245Y4205825D1*
X1010047Y4213430D1*
Y4221124D1*
X1006245Y4228729D1*
X1002442Y4232620D1*
X990946Y4236423D1*
X956458D1*
Y4198132D2*
X990946D1*
X1034750Y4186636D2*
X1080646D1*
Y4194329D1*
X1076844Y4202023D1*
X1073041Y4205825D1*
X1065347Y4209628D1*
X1053851D1*
X1046246Y4205825D1*
X1038553Y4198132D1*
X1034750Y4186636D1*
Y4179031D1*
X1038553Y4167535D1*
X1046246Y4159930D1*
X1053851Y4156039D1*
X1065347D1*
X1073041Y4159930D1*
X1080646Y4167535D1*
X1105349Y4186636D2*
X1151245D1*
Y4194329D1*
X1147442Y4202023D1*
X1143640Y4205825D1*
X1135946Y4209628D1*
X1124450D1*
X1116845Y4205825D1*
X1109151Y4198132D1*
X1105349Y4186636D1*
Y4179031D1*
X1109151Y4167535D1*
X1116845Y4159930D1*
X1124450Y4156039D1*
X1135946D1*
X1143640Y4159930D1*
X1151245Y4167535D1*
X1175948Y4236423D2*
Y4156039D1*
X1229537Y4236423D2*
Y4156039D1*
X1175948Y4198132D2*
X1229537D1*
X1254240Y4236423D2*
X1258042Y4232620D1*
X1261933Y4236423D1*
X1258042Y4240314D1*
X1254240Y4236423D1*
X1258042Y4209628D2*
Y4156039D1*
X1286636Y4209628D2*
X1309628Y4156039D1*
X1332532Y4209628D1*
X1357235Y4186636D2*
X1403130D1*
Y4194329D1*
X1399328Y4202023D1*
X1395525Y4205825D1*
X1387832Y4209628D1*
X1376336D1*
X1368731Y4205825D1*
X1361037Y4198132D1*
X1357235Y4186636D1*
Y4179031D1*
X1361037Y4167535D1*
X1368731Y4159930D1*
X1376336Y4156039D1*
X1387832D1*
X1395525Y4159930D1*
X1403130Y4167535D1*
X896842Y4626560D2*
D81*
Y4585881D1*
X899218Y4578752D1*
X904027Y4576320D1*
X908780D1*
X889657Y4609813D2*
X906403D1*
X924219D2*
X950527Y4576320D1*
Y4609813D2*
X924219Y4576320D1*
X605554Y4616316D2*
Y4582822D1*
Y4601946D2*
X607986Y4609131D1*
X612739Y4613939D1*
X617548Y4616316D1*
X624733D1*
X640172D2*
X666480Y4582822D1*
Y4616316D2*
X640172Y4582822D1*
X446555Y4507806D2*
X444123Y4512615D1*
X436993Y4519800D1*
X487178D1*
X1480076Y1842419D2*
Y1799364D1*
X1458577Y1820863D2*
X1501632D1*
X1380832Y2053274D2*
Y2022213D1*
X1431072D1*
Y2053274D1*
X1404763Y2022213D2*
Y2041336D1*
X1380832Y2068714D2*
X1431072D1*
X1380832Y2100900D2*
X1431072D1*
X1380832Y2084153D2*
Y2117646D1*
Y2133086D2*
X1431072Y2133085D1*
X1380832Y2166579D2*
X1431072D1*
X1404763Y2133085D2*
Y2166579D1*
X1380832Y2213080D2*
Y2182018D1*
X1431072D1*
Y2213080D1*
X1404763Y2182018D2*
Y2201141D1*
Y2228519D2*
Y2250019D1*
X1402332Y2257204D1*
X1399955Y2259636D1*
X1395202Y2262012D1*
X1390393D1*
X1385640Y2259636D1*
X1383208Y2257204D1*
X1380832Y2250019D1*
Y2228519D1*
X1431072D1*
X1404763Y2245265D2*
X1431072Y2262012D1*
X1380832Y2326052D2*
X1431072Y2338046D1*
X1380832Y2349984D1*
X1431072Y2361922D1*
X1380832Y2373916D1*
X1431072Y2427657D2*
X1380832Y2408478D1*
X1431072Y2389355D1*
X1414325Y2396540D2*
Y2420472D1*
X1380832Y2443096D2*
X1404763Y2462219D1*
X1431072D1*
X1380832Y2481343D2*
X1404763Y2462219D1*
X1864678Y1744867D2*
X1867054Y1740058D1*
X1871863Y1735305D1*
X1876616Y1732873D1*
X1883801Y1730497D1*
X1895794D1*
X1902924Y1732873D1*
X1907732Y1735305D1*
X1912486Y1740058D1*
X1914918Y1744867D1*
Y1754428D1*
X1912486Y1759181D1*
X1907733Y1763990D1*
X1902924Y1766367D1*
X1895794Y1768743D1*
X1883801D1*
X1876616Y1766367D1*
X1871863Y1763990D1*
X1867054Y1759182D1*
X1864678Y1754428D1*
Y1744867D1*
X1881424Y1784182D2*
X1914918D1*
X1895794D2*
X1888609Y1786614D1*
X1883801Y1791367D1*
X1881424Y1796176D1*
Y1803361D1*
X1864678Y1818800D2*
X1867054Y1821177D1*
X1864678Y1823609D1*
X1862246Y1821177D1*
X1864678Y1818800D1*
X1881424Y1821177D2*
X1914918D1*
X1883801Y1867733D2*
X1922103D1*
X1929232Y1865356D1*
X1931664Y1862979D1*
X1934041Y1858171D1*
Y1850986D1*
X1931664Y1846233D1*
X1890986Y1867733D2*
X1886233Y1862980D1*
X1883801Y1858171D1*
Y1850986D1*
X1886233Y1846233D1*
X1890986Y1841424D1*
X1898171Y1839048D1*
X1902979D1*
X1910109Y1841424D1*
X1914918Y1846233D1*
X1917294Y1850986D1*
Y1858171D1*
X1914917Y1862979D1*
X1910109Y1867733D1*
X1864678Y1883172D2*
X1867054Y1885549D1*
X1864678Y1887980D1*
X1862246Y1885549D1*
X1864678Y1883172D1*
X1881424Y1885549D2*
X1914917D1*
X1881424Y1903420D2*
X1914917D1*
X1890986D2*
X1883801Y1910605D1*
X1881424Y1915413D1*
Y1922543D1*
X1883801Y1927351D1*
X1890986Y1929728D1*
X1914917D1*
X1881424Y1973852D2*
X1914917D1*
X1888609D2*
X1883801Y1969099D1*
X1881424Y1964290D1*
Y1957161D1*
X1883801Y1952352D1*
X1888609Y1947599D1*
X1895794Y1945167D1*
X1900547D1*
X1907732Y1947599D1*
X1912486Y1952352D1*
X1914917Y1957161D1*
Y1964290D1*
X1912486Y1969099D1*
X1907732Y1973852D1*
X1864678Y1989291D2*
X1914917D1*
X1881424Y2053332D2*
X1931664D1*
X1888609D2*
X1883856Y2058140D1*
X1881424Y2062893D1*
Y2070078D1*
X1883856Y2074887D1*
X1888609Y2079640D1*
X1895794Y2082072D1*
X1900603D1*
X1907732Y2079640D1*
X1912541Y2074887D1*
X1914917Y2070078D1*
Y2062893D1*
X1912541Y2058140D1*
X1907732Y2053332D1*
X1864677Y2097511D2*
X1914917D1*
X1881424Y2141635D2*
X1914917D1*
X1888609D2*
X1883801Y2136882D1*
X1881424Y2132073D1*
Y2124944D1*
X1883801Y2120135D1*
X1888609Y2115382D1*
X1895794Y2112950D1*
X1900547D1*
X1907732Y2115382D1*
X1912486Y2120135D1*
X1914917Y2124944D1*
Y2132073D1*
X1912486Y2136882D1*
X1907732Y2141635D1*
X1864677Y2157074D2*
X1867054Y2159451D1*
X1864677Y2161883D1*
X1862246Y2159451D1*
X1864677Y2157074D1*
X1881424Y2159451D2*
X1914917D1*
X1864677Y2184507D2*
X1905356D1*
X1912486Y2186884D1*
X1914917Y2191692D1*
Y2196445D1*
X1881424Y2177322D2*
Y2194069D1*
X1888609Y2238193D2*
X1883801Y2235816D1*
X1881424Y2228631D1*
Y2221446D1*
X1883801Y2214261D1*
X1888609Y2211884D1*
X1893362Y2214261D1*
X1895794Y2219070D1*
X1898171Y2231008D1*
X1900547Y2235816D1*
X1905356Y2238193D1*
X1907732D1*
X1912486Y2235816D1*
X1914917Y2228631D1*
Y2221446D1*
X1912486Y2214261D1*
X1907732Y2211884D1*
X1864677Y2302233D2*
X1914917D1*
X1888609D2*
X1883801Y2307041D1*
X1881424Y2311795D1*
Y2318980D1*
X1883801Y2323733D1*
X1888609Y2328541D1*
X1895794Y2330918D1*
X1900547D1*
X1907732Y2328541D1*
X1912486Y2323733D1*
X1914917Y2318980D1*
Y2311795D1*
X1912486Y2307041D1*
X1907732Y2302233D1*
X1881424Y2348789D2*
X1914917Y2363104D1*
X1924479Y2358351D1*
X1929288Y2353542D1*
X1931664Y2348789D1*
Y2346357D1*
X1881424Y2377474D2*
X1914917Y2363104D1*
X1864677Y2455884D2*
X1867054Y2451076D1*
X1871863Y2446323D1*
X1876616Y2443891D1*
X1883801Y2441514D1*
X1895794D1*
X1902924Y2443891D1*
X1907732Y2446323D1*
X1912486Y2451076D1*
X1914917Y2455884D1*
Y2465446D1*
X1912486Y2470199D1*
X1907732Y2475007D1*
X1902924Y2477384D1*
X1895794Y2479761D1*
X1883801D1*
X1876616Y2477384D1*
X1871863Y2475007D1*
X1867054Y2470199D1*
X1864677Y2465446D1*
Y2455884D1*
Y2495200D2*
X1914917D1*
X1864677Y2510639D2*
X1867054Y2513016D1*
X1864677Y2515448D1*
X1862246Y2513016D1*
X1864677Y2510639D1*
X1881424Y2513016D2*
X1914917D1*
X1881424Y2530887D2*
X1914917Y2545257D1*
X1881424Y2559572D1*
X1864677Y2575011D2*
X1867054Y2577388D1*
X1864677Y2579819D1*
X1862246Y2577388D1*
X1864677Y2575011D1*
X1881424Y2577388D2*
X1914917D1*
X1895794Y2595259D2*
Y2623944D1*
X1890986D1*
X1886177Y2621567D1*
X1883801Y2619190D1*
X1881424Y2614382D1*
Y2607197D1*
X1883801Y2602444D1*
X1888609Y2597635D1*
X1895794Y2595259D1*
X1900547D1*
X1907732Y2597635D1*
X1912486Y2602444D1*
X1914917Y2607197D1*
Y2614382D1*
X1912486Y2619190D1*
X1907732Y2623944D1*
X1881424Y2639383D2*
X1914917D1*
X1895794D2*
X1888609Y2641815D1*
X1883801Y2646568D1*
X1881424Y2651376D1*
Y2658561D1*
X1876616Y2758471D2*
X1871863Y2756095D1*
X1867054Y2751286D1*
X1864677Y2746533D1*
Y2736972D1*
X1867054Y2732163D1*
X1871863Y2727410D1*
X1876616Y2724978D1*
X1883801Y2722602D1*
X1895794D1*
X1902924Y2724978D1*
X1907732Y2727410D1*
X1912486Y2732163D1*
X1914917Y2736972D1*
Y2746533D1*
X1912486Y2751286D1*
X1907732Y2756095D1*
X1902924Y2758471D1*
X1895794D1*
Y2746533D1*
X1864677Y2773911D2*
X1867054Y2776287D1*
X1864677Y2778719D1*
X1862246Y2776287D1*
X1864677Y2773911D1*
X1881424Y2776287D2*
X1914917D1*
X1864677Y2794158D2*
X1914917D1*
X1864677Y2809598D2*
X1914917D1*
X1895794Y2825037D2*
Y2853722D1*
X1890986D1*
X1886177Y2851345D1*
X1883801Y2848969D1*
X1881424Y2844160D1*
Y2836975D1*
X1883801Y2832222D1*
X1888609Y2827413D1*
X1895794Y2825037D1*
X1900547D1*
X1907732Y2827413D1*
X1912486Y2832222D1*
X1914917Y2836975D1*
Y2844160D1*
X1912486Y2848969D1*
X1907732Y2853722D1*
X1864677Y2876346D2*
X1905356D1*
X1912486Y2878723D1*
X1914917Y2883531D1*
Y2888284D1*
X1881424Y2869161D2*
Y2885908D1*
X1418440Y1620042D2*
X1416063Y1624795D1*
X1411255Y1629604D1*
X1406502Y1631980D1*
X1396940D1*
X1392132Y1629604D1*
X1387378Y1624795D1*
X1384947Y1620042D1*
X1382570Y1612857D1*
Y1600863D1*
X1384947Y1593734D1*
X1387378Y1588925D1*
X1392132Y1584172D1*
X1396940Y1581740D1*
X1406502D1*
X1411255Y1584172D1*
X1416063Y1588925D1*
X1418440Y1593734D1*
X1469749Y1620042D2*
X1467373Y1624795D1*
X1462564Y1629604D1*
X1457811Y1631980D1*
X1448249D1*
X1443441Y1629604D1*
X1438688Y1624795D1*
X1436256Y1620042D1*
X1433879Y1612857D1*
Y1600863D1*
X1436256Y1593734D1*
X1438688Y1588925D1*
X1443441Y1584172D1*
X1448249Y1581740D1*
X1457811D1*
X1462564Y1584172D1*
X1467373Y1588925D1*
X1469749Y1593734D1*
X1485188Y1606833D2*
X1512823D1*
X1528262Y1631980D2*
Y1581740D1*
X1549818D1*
X1557003Y1584172D1*
X1559379Y1586549D1*
X1561756Y1591302D1*
Y1598487D1*
X1559379Y1603295D1*
X1557003Y1605672D1*
X1549818Y1608048D1*
X1557003Y1610480D1*
X1559379Y1612857D1*
X1561756Y1617610D1*
Y1622419D1*
X1559379Y1627172D1*
X1557003Y1629604D1*
X1549818Y1631980D1*
X1528262D1*
Y1608048D2*
X1549818D1*
X1577195Y1631980D2*
X1596318Y1608048D1*
Y1581740D1*
X1615441Y1631980D2*
X1596318Y1608048D1*
X1630881Y1606833D2*
X1658516D1*
X1707448Y1624795D2*
X1702695Y1629604D1*
X1695510Y1631980D1*
X1685948D1*
X1678763Y1629604D1*
X1673955Y1624795D1*
Y1620042D1*
X1676387Y1615234D1*
X1678763Y1612857D1*
X1683516Y1610480D1*
X1697886Y1605672D1*
X1702695Y1603295D1*
X1705071Y1600863D1*
X1707448Y1596110D1*
Y1588925D1*
X1702695Y1584172D1*
X1695510Y1581740D1*
X1685948D1*
X1678763Y1584172D1*
X1673955Y1588925D1*
X1761189Y1581740D2*
X1742011Y1631980D1*
X1722887Y1581740D1*
X1730072Y1598487D2*
X1754004D1*
X1776628Y1606833D2*
X1804263D1*
X1824511Y1631925D2*
X1850764D1*
X1836449Y1612802D1*
X1843634D1*
X1848387Y1610425D1*
X1850764Y1608048D1*
X1853196Y1600863D1*
Y1596110D1*
X1850764Y1588925D1*
X1846011Y1584117D1*
X1838826Y1581740D1*
X1831641D1*
X1824511Y1584117D1*
X1822134Y1586549D1*
X1819702Y1591302D1*
X1871012Y1586549D2*
X1868635Y1584117D1*
X1871012Y1581740D1*
X1873443Y1584117D1*
X1871012Y1586549D1*
X1903253Y1631925D2*
X1896068Y1629548D1*
X1891259Y1622363D1*
X1888883Y1610425D1*
Y1603240D1*
X1891259Y1591302D1*
X1896068Y1584117D1*
X1903253Y1581740D1*
X1908006D1*
X1915191Y1584117D1*
X1919944Y1591302D1*
X1922376Y1603240D1*
Y1610425D1*
X1919944Y1622363D1*
X1915191Y1629548D1*
X1908006Y1631925D1*
X1903253D1*
X1919944Y1622363D2*
X1891259Y1591302D1*
M02*
