G04 DipTrace 3.2.0.1*
G04 beehive.GBO*
%MOIN*%
G04 #@! TF.FileFunction,Legend,Bot*
G04 #@! TF.Part,Single*
%ADD10C,0.009843*%
%ADD15C,0.008*%
%ADD16C,0.006*%
%ADD30C,0.000013*%
%ADD37C,0.005*%
%ADD40C,0.005984*%
%ADD79C,0.004632*%
%ADD81C,0.00772*%
%FSLAX26Y26*%
G04*
G70*
G90*
G75*
G01*
G04 BotSilk*
%LPD*%
X1337792Y1106291D2*
D16*
X1407827D1*
X1372827Y1141238D2*
Y1071295D1*
X1422842Y931408D2*
X1547827D1*
X1322812D2*
X1197827D1*
X1322812Y1331417D2*
X1197827D1*
X1422842D2*
X1547827D1*
Y931408D1*
X1197827D2*
Y1331417D1*
X1322812Y931408D2*
D40*
Y918934D1*
X1422842D1*
Y931408D1*
X1789113Y1575282D2*
D16*
X1719078D1*
X1754078Y1540335D2*
Y1610279D1*
X1704063Y1750166D2*
X1579078D1*
X1804093D2*
X1929078D1*
X1804093Y1350156D2*
X1929078D1*
X1704063D2*
X1579078D1*
Y1750166D1*
X1929078D2*
Y1350156D1*
X1804093Y1750166D2*
D40*
Y1762640D1*
X1704063D1*
Y1750166D1*
X950292Y1106291D2*
D16*
X1020327D1*
X985327Y1141238D2*
Y1071295D1*
X1035342Y931408D2*
X1160327D1*
X935312D2*
X810327D1*
X935312Y1331417D2*
X810327D1*
X1035342D2*
X1160327D1*
Y931408D1*
X810327D2*
Y1331417D1*
X935312Y931408D2*
D40*
Y918934D1*
X1035342D1*
Y931408D1*
X639113Y1575282D2*
D16*
X569078D1*
X604078Y1540335D2*
Y1610279D1*
X554063Y1750166D2*
X429078D1*
X654093D2*
X779078D1*
X654093Y1350156D2*
X779078D1*
X554063D2*
X429078D1*
Y1750166D1*
X779078D2*
Y1350156D1*
X654093Y1750166D2*
D40*
Y1762640D1*
X554063D1*
Y1750166D1*
X569043Y1106291D2*
D16*
X639078D1*
X604078Y1141238D2*
Y1071295D1*
X654093Y931408D2*
X779078D1*
X554063D2*
X429078D1*
X554063Y1331417D2*
X429078D1*
X654093D2*
X779078D1*
Y931408D1*
X429078D2*
Y1331417D1*
X554063Y931408D2*
D40*
Y918934D1*
X654093D1*
Y931408D1*
X1789113Y631533D2*
D16*
X1719078D1*
X1754078Y596586D2*
Y666530D1*
X1704063Y806417D2*
X1579078D1*
X1804093D2*
X1929078D1*
X1804093Y406407D2*
X1929078D1*
X1704063D2*
X1579078D1*
Y806417D1*
X1929078D2*
Y406407D1*
X1804093Y806417D2*
D40*
Y818891D1*
X1704063D1*
Y806417D1*
X1719043Y1106291D2*
D16*
X1789078D1*
X1754078Y1141238D2*
Y1071295D1*
X1804093Y931408D2*
X1929078D1*
X1704063D2*
X1579078D1*
X1704063Y1331417D2*
X1579078D1*
X1804093D2*
X1929078D1*
Y931408D1*
X1579078D2*
Y1331417D1*
X1704063Y931408D2*
D40*
Y918934D1*
X1804093D1*
Y931408D1*
X1407862Y631533D2*
D16*
X1337827D1*
X1372827Y596586D2*
Y666530D1*
X1322812Y806417D2*
X1197827D1*
X1422842D2*
X1547827D1*
X1422842Y406407D2*
X1547827D1*
X1322812D2*
X1197827D1*
Y806417D1*
X1547827D2*
Y406407D1*
X1422842Y806417D2*
D40*
Y818891D1*
X1322812D1*
Y806417D1*
X1020362Y631533D2*
D16*
X950327D1*
X985327Y596586D2*
Y666530D1*
X935312Y806417D2*
X810327D1*
X1035342D2*
X1160327D1*
X1035342Y406407D2*
X1160327D1*
X935312D2*
X810327D1*
Y806417D1*
X1160327D2*
Y406407D1*
X1035342Y806417D2*
D40*
Y818891D1*
X935312D1*
Y806417D1*
X639113Y631533D2*
D16*
X569078D1*
X604078Y596586D2*
Y666530D1*
X554063Y806417D2*
X429078D1*
X654093D2*
X779078D1*
X654093Y406407D2*
X779078D1*
X554063D2*
X429078D1*
Y806417D1*
X779078D2*
Y406407D1*
X654093Y806417D2*
D40*
Y818891D1*
X554063D1*
Y806417D1*
X1127907Y4293912D2*
D30*
G02X1127907Y4293912I51170J0D01*
G01*
X1229085Y4343921D2*
D37*
G03X1229085Y4243904I-49996J-50008D01*
G01*
Y4343921D2*
Y4243904D1*
X1127907Y4093912D2*
D30*
G02X1127907Y4093912I51170J0D01*
G01*
X1229085Y4143921D2*
D37*
G03X1229085Y4043904I-49996J-50008D01*
G01*
Y4143921D2*
Y4043904D1*
X1127907Y3893912D2*
D30*
G02X1127907Y3893912I51170J0D01*
G01*
X1229085Y3943921D2*
D37*
G03X1229085Y3843904I-49996J-50008D01*
G01*
Y3943921D2*
Y3843904D1*
X1127907Y3693912D2*
D30*
G02X1127907Y3693912I51170J0D01*
G01*
X1229085Y3743921D2*
D37*
G03X1229085Y3643904I-49996J-50008D01*
G01*
Y3743921D2*
Y3643904D1*
X1127907Y3493912D2*
D30*
G02X1127907Y3493912I51170J0D01*
G01*
X1229085Y3543921D2*
D37*
G03X1229085Y3443904I-49996J-50008D01*
G01*
Y3543921D2*
Y3443904D1*
X1127907Y3293912D2*
D30*
G02X1127907Y3293912I51170J0D01*
G01*
X1229085Y3343921D2*
D37*
G03X1229085Y3243904I-49996J-50008D01*
G01*
Y3343921D2*
Y3243904D1*
X1127907Y3093912D2*
D30*
G02X1127907Y3093912I51170J0D01*
G01*
X1229085Y3143921D2*
D37*
G03X1229085Y3043904I-49996J-50008D01*
G01*
Y3143921D2*
Y3043904D1*
X1127907Y2893912D2*
D30*
G02X1127907Y2893912I51170J0D01*
G01*
X1229085Y2943921D2*
D37*
G03X1229085Y2843904I-49996J-50008D01*
G01*
Y2943921D2*
Y2843904D1*
X1756212Y4584856D2*
D10*
X1401944D1*
Y4137979D1*
X1756212D1*
Y4584856D1*
X1441286Y4393915D2*
G02X1441286Y4393915I137768J0D01*
G01*
X956212Y4584856D2*
X601944D1*
Y4137979D1*
X956212D1*
Y4584856D1*
X641286Y4393915D2*
G02X641286Y4393915I137768J0D01*
G01*
X1756212Y3684856D2*
X1401944D1*
Y3237979D1*
X1756212D1*
Y3684856D1*
X1441286Y3493915D2*
G02X1441286Y3493915I137768J0D01*
G01*
X956212Y3684856D2*
X601944D1*
Y3237979D1*
X956212D1*
Y3684856D1*
X641286Y3493915D2*
G02X641286Y3493915I137768J0D01*
G01*
X1756212Y2784856D2*
X1401944D1*
Y2337979D1*
X1756212D1*
Y2784856D1*
X1441286Y2593915D2*
G02X1441286Y2593915I137768J0D01*
G01*
X1356212Y2084856D2*
X1001944D1*
Y1637979D1*
X1356212D1*
Y2084856D1*
X1041286Y1893915D2*
G02X1041286Y1893915I137768J0D01*
G01*
X956212Y2784856D2*
X601944D1*
Y2337979D1*
X956212D1*
Y2784856D1*
X641286Y2593915D2*
G02X641286Y2593915I137768J0D01*
G01*
X1386471Y2994311D2*
D30*
G02X1386471Y2994311I70010J0D01*
G01*
X1576483Y3079319D2*
D15*
Y2909303D1*
X1336478D2*
Y3079319D1*
X1495769Y3114299D2*
X1416496D1*
X1496945Y2874323D2*
X1416496D1*
X832167Y2993912D2*
D30*
G02X832167Y2993912I70010J0D01*
G01*
X782174Y2908904D2*
D15*
Y3078920D1*
X1022179D2*
Y2908904D1*
X862887Y2873924D2*
X942161D1*
X861711Y3113900D2*
X942161D1*
X1286241Y1307685D2*
D79*
Y1284737D1*
X1287667Y1280426D1*
X1289126Y1279000D1*
X1291978Y1277541D1*
X1294863D1*
X1297715Y1279000D1*
X1299141Y1280426D1*
X1300600Y1284737D1*
Y1287589D1*
X1276977Y1301914D2*
X1274092Y1303374D1*
X1269781Y1307651D1*
Y1277541D1*
X1682705Y1812644D2*
Y1789696D1*
X1684131Y1785385D1*
X1685590Y1783959D1*
X1688442Y1782500D1*
X1691327D1*
X1694179Y1783959D1*
X1695605Y1785385D1*
X1697064Y1789696D1*
Y1792548D1*
X1671983Y1805448D2*
Y1806874D1*
X1670557Y1809759D1*
X1669131Y1811185D1*
X1666246Y1812611D1*
X1660509D1*
X1657657Y1811185D1*
X1656231Y1809759D1*
X1654772Y1806874D1*
Y1804022D1*
X1656231Y1801137D1*
X1659083Y1796859D1*
X1673442Y1782500D1*
X1653346D1*
X908112Y1306711D2*
Y1283763D1*
X909538Y1279452D1*
X910997Y1278026D1*
X913849Y1276567D1*
X916734D1*
X919586Y1278026D1*
X921012Y1279452D1*
X922471Y1283763D1*
Y1286615D1*
X895963Y1306678D2*
X880212D1*
X888801Y1295204D1*
X884490D1*
X881638Y1293778D1*
X880212Y1292352D1*
X878753Y1288041D1*
Y1285189D1*
X880212Y1280878D1*
X883064Y1277993D1*
X887375Y1276567D1*
X891686D1*
X895963Y1277993D1*
X897389Y1279452D1*
X898849Y1282304D1*
X612291Y1888595D2*
Y1865647D1*
X613717Y1861336D1*
X615176Y1859910D1*
X618028Y1858451D1*
X620913D1*
X623765Y1859910D1*
X625191Y1861336D1*
X626650Y1865647D1*
Y1868499D1*
X588668Y1858451D2*
Y1888562D1*
X603027Y1868499D1*
X581505D1*
X539440Y1306845D2*
Y1283897D1*
X540866Y1279586D1*
X542325Y1278160D1*
X545177Y1276701D1*
X548062D1*
X550914Y1278160D1*
X552340Y1279586D1*
X553799Y1283897D1*
Y1286749D1*
X512966Y1306812D2*
X527292D1*
X528718Y1293912D1*
X527292Y1295338D1*
X522981Y1296797D1*
X518703D1*
X514392Y1295338D1*
X511507Y1292486D1*
X510081Y1288175D1*
Y1285323D1*
X511507Y1281012D1*
X514392Y1278127D1*
X518703Y1276701D1*
X522981D1*
X527292Y1278127D1*
X528718Y1279586D1*
X530177Y1282438D1*
X1830957Y871816D2*
Y848868D1*
X1832383Y844557D1*
X1833842Y843131D1*
X1836694Y841672D1*
X1839579D1*
X1842431Y843131D1*
X1843857Y844557D1*
X1845316Y848868D1*
Y851720D1*
X1804483Y867505D2*
X1805909Y870357D1*
X1810220Y871783D1*
X1813072D1*
X1817383Y870357D1*
X1820268Y866046D1*
X1821694Y858883D1*
Y851720D1*
X1820268Y845983D1*
X1817383Y843098D1*
X1813072Y841672D1*
X1811646D1*
X1807368Y843098D1*
X1804483Y845983D1*
X1803057Y850294D1*
Y851720D1*
X1804483Y856031D1*
X1807368Y858883D1*
X1811646Y860309D1*
X1813072D1*
X1817383Y858883D1*
X1820268Y856031D1*
X1821694Y851720D1*
X1684323Y1298591D2*
Y1275643D1*
X1685749Y1271332D1*
X1687208Y1269907D1*
X1690060Y1268447D1*
X1692945D1*
X1695797Y1269907D1*
X1697223Y1271332D1*
X1698682Y1275643D1*
Y1278495D1*
X1669323Y1268447D2*
X1654964Y1298558D1*
X1675060D1*
X1474523Y861271D2*
Y838323D1*
X1475949Y834012D1*
X1477408Y832586D1*
X1480260Y831127D1*
X1483145D1*
X1485997Y832586D1*
X1487423Y834012D1*
X1488882Y838323D1*
Y841175D1*
X1458097Y861238D2*
X1462375Y859812D1*
X1463834Y856960D1*
Y854075D1*
X1462375Y851223D1*
X1459523Y849764D1*
X1453786Y848338D1*
X1449475Y846912D1*
X1446623Y844027D1*
X1445197Y841175D1*
Y836864D1*
X1446623Y834012D1*
X1448049Y832553D1*
X1452360Y831127D1*
X1458097D1*
X1462375Y832553D1*
X1463834Y834012D1*
X1465260Y836864D1*
Y841175D1*
X1463834Y844027D1*
X1460949Y846912D1*
X1456671Y848338D1*
X1450934Y849764D1*
X1448049Y851223D1*
X1446623Y854075D1*
Y856960D1*
X1448049Y859812D1*
X1452360Y861238D1*
X1458097D1*
X1083288Y861271D2*
Y838323D1*
X1084714Y834012D1*
X1086173Y832586D1*
X1089025Y831127D1*
X1091910D1*
X1094762Y832586D1*
X1096187Y834012D1*
X1097647Y838323D1*
Y841175D1*
X1055354Y851223D2*
X1056813Y846912D1*
X1059665Y844027D1*
X1063976Y842601D1*
X1065402D1*
X1069713Y844027D1*
X1072565Y846912D1*
X1074024Y851223D1*
Y852649D1*
X1072565Y856960D1*
X1069713Y859812D1*
X1065402Y861238D1*
X1063976D1*
X1059665Y859812D1*
X1056813Y856960D1*
X1055354Y851223D1*
Y844027D1*
X1056813Y836864D1*
X1059665Y832553D1*
X1063976Y831127D1*
X1066828D1*
X1071139Y832553D1*
X1072565Y835438D1*
X721618Y867349D2*
Y844401D1*
X723043Y840090D1*
X724503Y838664D1*
X727354Y837205D1*
X730240D1*
X733091Y838664D1*
X734517Y840090D1*
X735977Y844401D1*
Y847253D1*
X712354Y861578D2*
X709469Y863038D1*
X705158Y867315D1*
Y837205D1*
X687272Y867315D2*
X691583Y865890D1*
X694468Y861578D1*
X695894Y854416D1*
Y850105D1*
X694468Y842942D1*
X691583Y838631D1*
X687272Y837205D1*
X684420D1*
X680109Y838631D1*
X677257Y842942D1*
X675798Y850105D1*
Y854416D1*
X677257Y861578D1*
X680109Y865890D1*
X684420Y867315D1*
X687272D1*
X677257Y861578D2*
X694468Y842942D1*
X1224543Y4408560D2*
Y4378416D1*
X1207332D1*
X1179432Y4408560D2*
X1198069D1*
Y4378416D1*
X1179432D1*
X1198069Y4394201D2*
X1186595D1*
X1170168Y4408560D2*
Y4378416D1*
X1160120D1*
X1155809Y4379875D1*
X1152924Y4382727D1*
X1151498Y4385612D1*
X1150072Y4389890D1*
Y4397086D1*
X1151498Y4401397D1*
X1152924Y4404249D1*
X1155809Y4407134D1*
X1160120Y4408560D1*
X1170168D1*
X1140809Y4402790D2*
X1137923Y4404249D1*
X1133612Y4408527D1*
Y4378416D1*
X1230993Y4208560D2*
Y4178416D1*
X1213782D1*
X1185882Y4208560D2*
X1204518D1*
Y4178416D1*
X1185882D1*
X1204518Y4194201D2*
X1193045D1*
X1176618Y4208560D2*
Y4178416D1*
X1166570D1*
X1162259Y4179875D1*
X1159374Y4182727D1*
X1157948Y4185612D1*
X1156522Y4189890D1*
Y4197086D1*
X1157948Y4201397D1*
X1159374Y4204249D1*
X1162259Y4207134D1*
X1166570Y4208560D1*
X1176618D1*
X1145799Y4201364D2*
Y4202790D1*
X1144373Y4205675D1*
X1142947Y4207101D1*
X1140062Y4208527D1*
X1134325D1*
X1131474Y4207101D1*
X1130048Y4205675D1*
X1128588Y4202790D1*
Y4199938D1*
X1130048Y4197053D1*
X1132899Y4192775D1*
X1147258Y4178416D1*
X1127162D1*
X1230993Y4008560D2*
Y3978416D1*
X1213782D1*
X1185882Y4008560D2*
X1204518D1*
Y3978416D1*
X1185882D1*
X1204518Y3994201D2*
X1193045D1*
X1176618Y4008560D2*
Y3978416D1*
X1166570D1*
X1162259Y3979875D1*
X1159374Y3982727D1*
X1157948Y3985612D1*
X1156522Y3989890D1*
Y3997086D1*
X1157948Y4001397D1*
X1159374Y4004249D1*
X1162259Y4007134D1*
X1166570Y4008560D1*
X1176618D1*
X1144373Y4008527D2*
X1128622D1*
X1137210Y3997053D1*
X1132899D1*
X1130048Y3995627D1*
X1128622Y3994201D1*
X1127162Y3989890D1*
Y3987038D1*
X1128622Y3982727D1*
X1131474Y3979842D1*
X1135785Y3978416D1*
X1140096D1*
X1144373Y3979842D1*
X1145799Y3981301D1*
X1147258Y3984153D1*
X1231706Y3808560D2*
Y3778416D1*
X1214495D1*
X1186595Y3808560D2*
X1205231D1*
Y3778416D1*
X1186595D1*
X1205231Y3794201D2*
X1193757D1*
X1177331Y3808560D2*
Y3778416D1*
X1167283D1*
X1162972Y3779875D1*
X1160087Y3782727D1*
X1158661Y3785612D1*
X1157235Y3789890D1*
Y3797086D1*
X1158661Y3801397D1*
X1160087Y3804249D1*
X1162972Y3807134D1*
X1167283Y3808560D1*
X1177331D1*
X1133612Y3778416D2*
Y3808527D1*
X1147971Y3788464D1*
X1126450D1*
X1230993Y3608560D2*
Y3578416D1*
X1213782D1*
X1185882Y3608560D2*
X1204518D1*
Y3578416D1*
X1185882D1*
X1204518Y3594201D2*
X1193045D1*
X1176618Y3608560D2*
Y3578416D1*
X1166570D1*
X1162259Y3579875D1*
X1159374Y3582727D1*
X1157948Y3585612D1*
X1156522Y3589890D1*
Y3597086D1*
X1157948Y3601397D1*
X1159374Y3604249D1*
X1162259Y3607134D1*
X1166570Y3608560D1*
X1176618D1*
X1130048Y3608527D2*
X1144373D1*
X1145799Y3595627D1*
X1144373Y3597053D1*
X1140062Y3598512D1*
X1135785D1*
X1131474Y3597053D1*
X1128588Y3594201D1*
X1127162Y3589890D1*
Y3587038D1*
X1128588Y3582727D1*
X1131474Y3579842D1*
X1135785Y3578416D1*
X1140062D1*
X1144373Y3579842D1*
X1145799Y3581301D1*
X1147258Y3584153D1*
X1230263Y3408560D2*
Y3378416D1*
X1213052D1*
X1185152Y3408560D2*
X1203789D1*
Y3378416D1*
X1185152D1*
X1203789Y3394201D2*
X1192315D1*
X1175888Y3408560D2*
Y3378416D1*
X1165840D1*
X1161529Y3379875D1*
X1158644Y3382727D1*
X1157218Y3385612D1*
X1155792Y3389890D1*
Y3397086D1*
X1157218Y3401397D1*
X1158644Y3404249D1*
X1161529Y3407134D1*
X1165840Y3408560D1*
X1175888D1*
X1129318Y3404249D2*
X1130744Y3407101D1*
X1135055Y3408527D1*
X1137907D1*
X1142218Y3407101D1*
X1145103Y3402790D1*
X1146529Y3395627D1*
Y3388464D1*
X1145103Y3382727D1*
X1142218Y3379842D1*
X1137907Y3378416D1*
X1136481D1*
X1132203Y3379842D1*
X1129318Y3382727D1*
X1127892Y3387038D1*
Y3388464D1*
X1129318Y3392775D1*
X1132203Y3395627D1*
X1136481Y3397053D1*
X1137907D1*
X1142218Y3395627D1*
X1145103Y3392775D1*
X1146529Y3388464D1*
X1230993Y3208560D2*
Y3178416D1*
X1213782D1*
X1185882Y3208560D2*
X1204518D1*
Y3178416D1*
X1185882D1*
X1204518Y3194201D2*
X1193045D1*
X1176618Y3208560D2*
Y3178416D1*
X1166570D1*
X1162259Y3179875D1*
X1159374Y3182727D1*
X1157948Y3185612D1*
X1156522Y3189890D1*
Y3197086D1*
X1157948Y3201397D1*
X1159374Y3204249D1*
X1162259Y3207134D1*
X1166570Y3208560D1*
X1176618D1*
X1141522Y3178416D2*
X1127162Y3208527D1*
X1147258D1*
X1230976Y3008560D2*
Y2978416D1*
X1213765D1*
X1185865Y3008560D2*
X1204502D1*
Y2978416D1*
X1185865D1*
X1204502Y2994201D2*
X1193028D1*
X1176601Y3008560D2*
Y2978416D1*
X1166553D1*
X1162242Y2979875D1*
X1159357Y2982727D1*
X1157931Y2985612D1*
X1156505Y2989890D1*
Y2997086D1*
X1157931Y3001397D1*
X1159357Y3004249D1*
X1162242Y3007134D1*
X1166553Y3008560D1*
X1176601D1*
X1140079Y3008527D2*
X1144357Y3007101D1*
X1145816Y3004249D1*
Y3001364D1*
X1144357Y2998512D1*
X1141505Y2997053D1*
X1135768Y2995627D1*
X1131457Y2994201D1*
X1128605Y2991316D1*
X1127179Y2988464D1*
Y2984153D1*
X1128605Y2981301D1*
X1130031Y2979842D1*
X1134342Y2978416D1*
X1140079D1*
X1144357Y2979842D1*
X1145816Y2981301D1*
X1147242Y2984153D1*
Y2988464D1*
X1145816Y2991316D1*
X1142931Y2994201D1*
X1138653Y2995627D1*
X1132916Y2997053D1*
X1130031Y2998512D1*
X1128605Y3001364D1*
Y3004249D1*
X1130031Y3007101D1*
X1134342Y3008527D1*
X1140079D1*
X1597356Y4614431D2*
X1584456D1*
X1580145Y4615890D1*
X1578685Y4617316D1*
X1577260Y4620168D1*
Y4623053D1*
X1578685Y4625904D1*
X1580145Y4627364D1*
X1584456Y4628790D1*
X1597356D1*
Y4598646D1*
X1587308Y4614431D2*
X1577260Y4598646D1*
X1567996Y4623019D2*
X1565111Y4624479D1*
X1560800Y4628756D1*
Y4598646D1*
X947031Y4617545D2*
X934131D1*
X929820Y4619004D1*
X928361Y4620430D1*
X926935Y4623282D1*
Y4626167D1*
X928361Y4629019D1*
X929820Y4630478D1*
X934131Y4631904D1*
X947031D1*
Y4601760D1*
X936983Y4617545D2*
X926935Y4601760D1*
X916213Y4624708D2*
Y4626134D1*
X914787Y4629019D1*
X913361Y4630445D1*
X910476Y4631871D1*
X904739D1*
X901887Y4630445D1*
X900461Y4629019D1*
X899002Y4626134D1*
Y4623282D1*
X900461Y4620397D1*
X903313Y4616119D1*
X917672Y4601760D1*
X897576D1*
X1603805Y3714431D2*
X1590906D1*
X1586595Y3715890D1*
X1585135Y3717316D1*
X1583709Y3720168D1*
Y3723053D1*
X1585135Y3725904D1*
X1586595Y3727364D1*
X1590906Y3728790D1*
X1603805D1*
Y3698646D1*
X1593757Y3714431D2*
X1583709Y3698646D1*
X1568709D2*
X1554350Y3728756D1*
X1574446D1*
X803789Y3714431D2*
X790889D1*
X786578Y3715890D1*
X785119Y3717316D1*
X783693Y3720168D1*
Y3723053D1*
X785119Y3725904D1*
X786578Y3727364D1*
X790889Y3728790D1*
X803789D1*
Y3698646D1*
X793741Y3714431D2*
X783693Y3698646D1*
X767266Y3728756D2*
X771544Y3727330D1*
X773003Y3724479D1*
Y3721593D1*
X771544Y3718742D1*
X768692Y3717282D1*
X762955Y3715856D1*
X758644Y3714431D1*
X755792Y3711545D1*
X754367Y3708694D1*
Y3704383D1*
X755792Y3701531D1*
X757218Y3700072D1*
X761529Y3698646D1*
X767266D1*
X771544Y3700072D1*
X773003Y3701531D1*
X774429Y3704383D1*
Y3708694D1*
X773003Y3711545D1*
X770118Y3714431D1*
X765840Y3715856D1*
X760104Y3717282D1*
X757218Y3718742D1*
X755792Y3721593D1*
Y3724479D1*
X757218Y3727330D1*
X761529Y3728756D1*
X767266D1*
X1732780Y2830491D2*
X1719880D1*
X1715569Y2831950D1*
X1714110Y2833376D1*
X1712684Y2836228D1*
Y2839113D1*
X1714110Y2841965D1*
X1715569Y2843424D1*
X1719880Y2844850D1*
X1732780D1*
Y2814706D1*
X1722732Y2830491D2*
X1712684Y2814706D1*
X1689061D2*
Y2844817D1*
X1703420Y2824754D1*
X1681898D1*
X1671175Y2837654D2*
Y2839080D1*
X1669749Y2841965D1*
X1668324Y2843391D1*
X1665438Y2844817D1*
X1659701D1*
X1656850Y2843391D1*
X1655424Y2841965D1*
X1653965Y2839080D1*
Y2836228D1*
X1655424Y2833343D1*
X1658276Y2829065D1*
X1672635Y2814706D1*
X1652539D1*
X980698Y2071213D2*
X967798D1*
X963487Y2072672D1*
X962028Y2074098D1*
X960602Y2076950D1*
Y2079835D1*
X962028Y2082687D1*
X963487Y2084146D1*
X967798Y2085572D1*
X980698D1*
Y2055428D1*
X970650Y2071213D2*
X960602Y2055428D1*
X936980D2*
Y2085539D1*
X951339Y2065476D1*
X929817D1*
X917668Y2085539D2*
X901916D1*
X910505Y2074065D1*
X906194D1*
X903342Y2072639D1*
X901916Y2071213D1*
X900457Y2066902D1*
Y2064050D1*
X901916Y2059739D1*
X904768Y2056854D1*
X909079Y2055428D1*
X913390D1*
X917668Y2056854D1*
X919094Y2058313D1*
X920553Y2061165D1*
X691205Y2819445D2*
X678305D1*
X673994Y2820904D1*
X672535Y2822330D1*
X671109Y2825182D1*
Y2828067D1*
X672535Y2830919D1*
X673994Y2832378D1*
X678305Y2833804D1*
X691205D1*
Y2803660D1*
X681157Y2819445D2*
X671109Y2803660D1*
X647487D2*
Y2833771D1*
X661846Y2813708D1*
X640324D1*
X616701Y2803660D2*
Y2833771D1*
X631060Y2813708D1*
X609538D1*
X1647544Y3000324D2*
X1650396Y3003209D1*
X1654707Y3004635D1*
X1660444D1*
X1664755Y3003209D1*
X1667640Y3000324D1*
Y2997472D1*
X1666181Y2994587D1*
X1664755Y2993161D1*
X1661903Y2991735D1*
X1653281Y2988850D1*
X1650396Y2987424D1*
X1648970Y2985965D1*
X1647544Y2983113D1*
Y2978802D1*
X1650396Y2975950D1*
X1654707Y2974491D1*
X1660444D1*
X1664755Y2975950D1*
X1667640Y2978802D1*
X1638281Y3004635D2*
X1631085Y2974491D1*
X1623922Y3004635D1*
X1616759Y2974491D1*
X1609563Y3004635D1*
X1600299Y2998865D2*
X1597414Y3000324D1*
X1593103Y3004602D1*
Y2974491D1*
X741341Y3006057D2*
X744193Y3008942D1*
X748504Y3010368D1*
X754241D1*
X758552Y3008942D1*
X761437Y3006057D1*
Y3003205D1*
X759978Y3000320D1*
X758552Y2998894D1*
X755700Y2997468D1*
X747078Y2994583D1*
X744193Y2993157D1*
X742767Y2991698D1*
X741341Y2988846D1*
Y2984535D1*
X744193Y2981683D1*
X748504Y2980224D1*
X754241D1*
X758552Y2981683D1*
X761437Y2984535D1*
X732077Y3010368D2*
X724881Y2980224D1*
X717718Y3010368D1*
X710555Y2980224D1*
X703359Y3010368D1*
X692636Y3003172D2*
Y3004598D1*
X691210Y3007483D1*
X689785Y3008909D1*
X686899Y3010335D1*
X681162D1*
X678311Y3008909D1*
X676885Y3007483D1*
X675426Y3004598D1*
Y3001746D1*
X676885Y2998861D1*
X679737Y2994583D1*
X694096Y2980224D1*
X674000D1*
X1270040Y4533697D2*
D81*
X1303534D1*
X1284410D2*
X1277225Y4531266D1*
X1272417Y4526512D1*
X1270040Y4521704D1*
Y4514519D1*
X1284410Y4499080D2*
Y4470395D1*
X1279602D1*
X1274794Y4472771D1*
X1272417Y4475148D1*
X1270040Y4479956D1*
Y4487142D1*
X1272417Y4491895D1*
X1277225Y4496703D1*
X1284410Y4499080D1*
X1289164D1*
X1296349Y4496703D1*
X1301102Y4491895D1*
X1303534Y4487141D1*
Y4479956D1*
X1301102Y4475148D1*
X1296349Y4470395D1*
X1253294Y4426271D2*
X1303534D1*
X1277225D2*
X1272417Y4431024D1*
X1270040Y4435832D1*
Y4443017D1*
X1272417Y4447771D1*
X1277225Y4452579D1*
X1284410Y4454956D1*
X1289164D1*
X1296349Y4452579D1*
X1301102Y4447771D1*
X1303534Y4443017D1*
Y4435832D1*
X1301102Y4431024D1*
X1296349Y4426271D1*
X1065319Y4509269D2*
X1103620D1*
X1110750Y4511645D1*
X1113182Y4514022D1*
X1115558Y4518830D1*
Y4526015D1*
X1113182Y4530769D1*
X1072504Y4509269D2*
X1067750Y4514022D1*
X1065318Y4518830D1*
Y4526015D1*
X1067750Y4530769D1*
X1072504Y4535577D1*
X1079689Y4537954D1*
X1084497D1*
X1091627Y4535577D1*
X1096435Y4530769D1*
X1098812Y4526015D1*
Y4518830D1*
X1096435Y4514022D1*
X1091627Y4509269D1*
X1062942Y4493830D2*
X1096435D1*
X1077312D2*
X1070127Y4491398D1*
X1065319Y4486644D1*
X1062942Y4481836D1*
Y4474651D1*
X1077312Y4459212D2*
Y4430527D1*
X1072504D1*
X1067695Y4432903D1*
X1065319Y4435280D1*
X1062942Y4440089D1*
Y4447274D1*
X1065319Y4452027D1*
X1070127Y4456835D1*
X1077312Y4459212D1*
X1082065D1*
X1089250Y4456835D1*
X1094003Y4452027D1*
X1096435Y4447274D1*
Y4440088D1*
X1094003Y4435280D1*
X1089250Y4430527D1*
X1077312Y4415088D2*
Y4386403D1*
X1072504D1*
X1067695Y4388779D1*
X1065319Y4391156D1*
X1062942Y4395964D1*
Y4403149D1*
X1065319Y4407903D1*
X1070127Y4412711D1*
X1077312Y4415088D1*
X1082065D1*
X1089250Y4412711D1*
X1094003Y4407903D1*
X1096435Y4403149D1*
Y4395964D1*
X1094003Y4391156D1*
X1089250Y4386403D1*
X1062942Y4370964D2*
X1096435D1*
X1072504D2*
X1065319Y4363779D1*
X1062942Y4358970D1*
Y4351840D1*
X1065318Y4347032D1*
X1072504Y4344655D1*
X1096435D1*
M02*
