M48
INCH
T01C0.0118
T02C0.024
T03C0.0276
T04C0.0354
T05C0.0394
T06C0.04
T07C0.052
T08C0.084
T09C0.122
%
T01
X+015041Y+026314
X+015041Y+026689
X+015041Y+027064
X+015041Y+027439
X+016541Y+027439
X+016541Y+027064
X+016541Y+026689
X+016541Y+026314
X+015853Y+025127
X+015416Y+025127
X+014786Y+025785
X+014109Y+029245
X+014622Y+029917
X+016541Y+029314
X+016541Y+030564
X+017916Y+030502
X+017916Y+031689
X+015742Y+033457
X+015001Y+033760
X+014750Y+033956
X+014595Y+033254
X+015456Y+035913
X+015761Y+036578
X+016290Y+036224
X+015103Y+037127
X+015041Y+038252
X+013642Y+038939
X+013275Y+039642
X+013800Y+040915
X+013364Y+041545
X+014014Y+041787
X+014184Y+042119
X+014791Y+042439
X+014889Y+042939
X+016111Y+043694
X+016353Y+042814
X+016853Y+043064
X+017728Y+042502
X+017728Y+042002
X+018291Y+040939
X+018952Y+040939
X+017588Y+039570
X+016353Y+039847
X+016103Y+041752
X+016103Y+044814
X+016603Y+045564
X+014700Y+045043
X+014519Y+044761
X+013196Y+044275
X+012952Y+043583
X+012030Y+044286
X+011591Y+044520
X+011606Y+044018
X+012172Y+044776
X+012254Y+045278
X+011479Y+045015
X+011443Y+045529
X+010330Y+044767
X+009696Y+044917
X+009506Y+045283
X+009682Y+045751
X+009884Y+046024
X+009383Y+046280
X+010389Y+044014
X+008883Y+043060
X+008921Y+042560
X+010101Y+041958
X+010423Y+042006
X+010198Y+041495
X+010449Y+041193
X+010757Y+040379
X+011352Y+040156
X+010548Y+039659
X+010326Y+039269
X+010077Y+039100
X+009566Y+038805
X+009273Y+038881
X+009280Y+038572
X+009613Y+038439
X+009739Y+037811
X+009493Y+037063
X+009111Y+036637
X+008871Y+037180
X+008508Y+037016
X+008260Y+037565
X+008647Y+037704
X+008972Y+038322
X+008651Y+038935
X+007608Y+038591
X+007603Y+038191
X+007817Y+037949
X+007186Y+037922
X+006070Y+037784
X+006312Y+037033
X+006042Y+036668
X+006841Y+036694
X+007077Y+035954
X+007801Y+035705
X+008162Y+035244
X+008266Y+034837
X+008527Y+034997
X+007933Y+034533
X+007913Y+034123
X+007298Y+034048
X+007347Y+033719
X+006884Y+033528
X+006559Y+033526
X+006877Y+034336
X+006460Y+032554
X+006035Y+031993
X+005972Y+031603
X+006951Y+030354
X+006691Y+029300
X+006184Y+028953
X+005606Y+029043
X+005705Y+029727
X+006495Y+028016
X+007635Y+027011
X+007385Y+025597
X+007747Y+023758
X+005812Y+023885
X+004474Y+023064
X+006078Y+022131
X+006813Y+021377
X+006840Y+019655
X+007728Y+019689
X+007728Y+018627
X+008853Y+018627
X+008853Y+019689
X+010486Y+017942
X+011196Y+017513
X+010205Y+014789
X+011235Y+014506
X+012433Y+014143
X+013400Y+014124
X+014170Y+012217
X+015094Y+012268
X+016188Y+012251
X+016874Y+012253
X+016941Y+010674
X+016855Y+009936
X+016044Y+009500
X+015055Y+009514
X+014447Y+010051
X+014447Y+010684
X+015040Y+010688
X+016165Y+010688
X+018625Y+010604
X+018625Y+011671
X+018921Y+012549
X+018625Y+012970
X+016261Y+014370
X+015581Y+015436
X+012343Y+020385
X+013747Y+021240
X+008334Y+016017
X+008321Y+015420
X+008680Y+013612
X+008023Y+013250
X+008696Y+012233
X+009259Y+012229
X+007999Y+011939
X+007826Y+011394
X+007379Y+011212
X+006651Y+011260
X+006402Y+011978
X+007135Y+012207
X+006807Y+012629
X+007474Y+010428
X+006787Y+009891
X+008498Y+010432
X+008460Y+010987
X+009228Y+010559
X+009228Y+009956
X+009308Y+008986
X+008939Y+007622
X+008479Y+007189
X+008604Y+006501
X+008604Y+005689
X+007514Y+005689
X+007354Y+006376
X+006570Y+006381
X+006385Y+005610
X+005227Y+005106
X+004785Y+005401
X+005046Y+006234
X+004769Y+006391
X+005136Y+008232
X+004827Y+009152
X+004951Y+010501
X+004726Y+010773
X+007075Y+007631
X+007479Y+007189
X+007986Y+008255
X+009303Y+007018
X+009844Y+005665
X+010750Y+005273
X+011125Y+006175
X+011859Y+007650
X+012610Y+007635
X+012610Y+009074
X+011875Y+009231
X+011875Y+010110
X+011125Y+011493
X+010423Y+011662
X+014332Y+008191
X+015040Y+007251
X+014853Y+006439
X+014056Y+006976
X+014023Y+005349
X+014853Y+005376
X+014853Y+004696
X+016445Y+005409
X+017099Y+005416
X+016415Y+006376
X+016103Y+007189
X+016677Y+007725
X+017140Y+006955
X+018921Y+006999
X+018937Y+005345
X+015558Y+008205
X+007936Y+004615
X+004474Y+015546
X+009228Y+028939
X+009791Y+029564
X+009791Y+030127
X+009646Y+030559
X+009370Y+030791
X+008823Y+030889
X+008087Y+032874
X+008811Y+033299
X+009801Y+033342
X+010948Y+033939
X+011096Y+033340
X+009663Y+036351
X+010597Y+037495
X+010719Y+037782
X+010569Y+038058
X+010927Y+038167
X+010936Y+038453
X+011529Y+042402
X+007928Y+044247
X+007243Y+044275
X+005375Y+042726
X+005689Y+041501
X+005228Y+040064
X+006541Y+039531
X+007241Y+040037
X+004828Y+038596
X+004353Y+037189
X+004958Y+035267
X+004562Y+034174
X+005104Y+033632
X+004556Y+033392
X+005071Y+033005
T02
X+019139Y+042390
X+018640Y+042390
X+018640Y+042890
X+019139Y+042890
X+019139Y+043390
X+018640Y+043390
X+018640Y+043890
X+019139Y+043890
X+019139Y+044390
X+018640Y+044390
T03
X+011791Y+042939
X+010791Y+042939
X+012791Y+042939
X+012791Y+040939
X+011791Y+040939
X+010791Y+040939
X+010791Y+038939
X+011791Y+038939
X+012791Y+038939
X+012791Y+036939
X+011791Y+036939
X+010791Y+036939
X+010791Y+034939
X+011791Y+034939
X+012791Y+034939
X+012791Y+032939
X+011791Y+032939
X+010791Y+032939
X+010791Y+030939
X+011791Y+030939
X+012791Y+030939
X+012791Y+028939
X+011791Y+028939
X+010791Y+028939
T04
X+018573Y+037150
X+018573Y+038150
X+018573Y+039150
T05
X+016771Y+040989
X+015791Y+040986
X+014811Y+040989
X+008771Y+040989
X+007791Y+040986
X+006811Y+040989
X+006811Y+031989
X+007791Y+031986
X+008771Y+031989
X+014811Y+031989
X+015791Y+031986
X+016771Y+031989
X+016771Y+022989
X+015791Y+022986
X+014811Y+022989
X+008771Y+022989
X+007791Y+022986
X+006811Y+022989
X+010811Y+015989
X+011791Y+015986
X+012771Y+015989
T06
X+013728Y+008694
X+013728Y+008684
X+017541Y+008684
X+017541Y+008694
X+009853Y+008694
X+009853Y+008684
X+006041Y+008684
X+006041Y+008694
X+006041Y+018122
X+011291Y+021939
X+012291Y+021939
X+012291Y+022939
X+012291Y+023939
X+012291Y+024939
X+011291Y+024939
X+011291Y+023939
X+011291Y+022939
X+011291Y+025939
X+012291Y+025939
X+013675Y+028663
X+015455Y+028663
X+015455Y+031223
X+013675Y+031223
X+009912Y+031219
X+008132Y+031219
X+008132Y+028659
X+009912Y+028659
X+017541Y+018122
X+004603Y+041398
X+004603Y+042398
X+004603Y+043398
X+004603Y+044398
X+007291Y+046314
X+008291Y+046314
T07
X+013728Y+009694
X+013728Y+007684
X+013728Y+004434
X+017541Y+004434
X+017541Y+007684
X+017541Y+009694
X+017541Y+012944
X+017541Y+013872
X+017541Y+017122
X+013728Y+012944
X+009853Y+012944
X+009853Y+009694
X+009853Y+007684
X+009853Y+004434
X+006041Y+004434
X+006041Y+007684
X+006041Y+009694
X+006041Y+012944
X+006041Y+013872
X+006041Y+017122
T08
X+013921Y+043939
X+017661Y+043939
X+009661Y+043939
X+005921Y+043939
X+005921Y+034939
X+009661Y+034939
X+013921Y+034939
X+017661Y+034939
X+017661Y+025939
X+013921Y+025939
X+009661Y+025939
X+005921Y+025939
X+009921Y+018939
X+013661Y+018939
T09
X+004791Y+046127
X+018791Y+046064
T00
M30
